ISO-10303-21;
HEADER;
/* Generated by software containing ST-Developer
 * from STEP Tools, Inc. (www.steptools.com) 
 */

FILE_DESCRIPTION(
/* description */ (''),
/* implementation_level */ '2;1');

FILE_NAME(
/* name */ 'Base Triangle Clean.step',
/* time_stamp */ '2024-07-26T22:01:25+02:00',
/* author */ (''),
/* organization */ (''),
/* preprocessor_version */ 'ST-DEVELOPER v20',
/* originating_system */ 'Autodesk Translation Framework v13.14.0.145',

/* authorisation */ '');

FILE_SCHEMA (('AUTOMOTIVE_DESIGN { 1 0 10303 214 3 1 1 }'));
ENDSEC;

DATA;
#10=MECHANICAL_DESIGN_GEOMETRIC_PRESENTATION_REPRESENTATION('',(#13),#1059);
#11=SHAPE_REPRESENTATION_RELATIONSHIP('SRR','None',#1066,#12);
#12=ADVANCED_BREP_SHAPE_REPRESENTATION('',(#14),#1058);
#13=STYLED_ITEM('',(#1075),#14);
#14=MANIFOLD_SOLID_BREP('Bry\X2\0142\X0\a2',#635);
#15=FACE_BOUND('',#101,.T.);
#16=FACE_BOUND('',#106,.T.);
#17=FACE_BOUND('',#124,.T.);
#18=PLANE('',#671);
#19=PLANE('',#674);
#20=PLANE('',#675);
#21=PLANE('',#678);
#22=PLANE('',#681);
#23=PLANE('',#682);
#24=PLANE('',#683);
#25=PLANE('',#684);
#26=PLANE('',#685);
#27=PLANE('',#686);
#28=PLANE('',#687);
#29=PLANE('',#688);
#30=PLANE('',#689);
#31=PLANE('',#690);
#32=PLANE('',#691);
#33=PLANE('',#692);
#34=PLANE('',#693);
#35=PLANE('',#694);
#36=PLANE('',#695);
#37=PLANE('',#696);
#38=PLANE('',#697);
#39=PLANE('',#698);
#40=PLANE('',#699);
#41=PLANE('',#700);
#42=PLANE('',#701);
#43=ELLIPSE('',#670,3.75131977296697,3.);
#44=ELLIPSE('',#673,3.72483556178548,3.);
#45=ELLIPSE('',#677,3.75131977296697,3.);
#46=ELLIPSE('',#680,3.72483556178549,3.);
#47=SPHERICAL_SURFACE('',#655,3.);
#48=SPHERICAL_SURFACE('',#660,3.);
#49=SPHERICAL_SURFACE('',#665,3.);
#50=SPHERICAL_SURFACE('',#667,3.);
#51=FACE_OUTER_BOUND('',#88,.T.);
#52=FACE_OUTER_BOUND('',#89,.T.);
#53=FACE_OUTER_BOUND('',#90,.T.);
#54=FACE_OUTER_BOUND('',#91,.T.);
#55=FACE_OUTER_BOUND('',#92,.T.);
#56=FACE_OUTER_BOUND('',#93,.T.);
#57=FACE_OUTER_BOUND('',#94,.T.);
#58=FACE_OUTER_BOUND('',#95,.T.);
#59=FACE_OUTER_BOUND('',#96,.T.);
#60=FACE_OUTER_BOUND('',#97,.T.);
#61=FACE_OUTER_BOUND('',#98,.T.);
#62=FACE_OUTER_BOUND('',#99,.T.);
#63=FACE_OUTER_BOUND('',#100,.T.);
#64=FACE_OUTER_BOUND('',#102,.T.);
#65=FACE_OUTER_BOUND('',#103,.T.);
#66=FACE_OUTER_BOUND('',#104,.T.);
#67=FACE_OUTER_BOUND('',#105,.T.);
#68=FACE_OUTER_BOUND('',#107,.T.);
#69=FACE_OUTER_BOUND('',#108,.T.);
#70=FACE_OUTER_BOUND('',#109,.T.);
#71=FACE_OUTER_BOUND('',#110,.T.);
#72=FACE_OUTER_BOUND('',#111,.T.);
#73=FACE_OUTER_BOUND('',#112,.T.);
#74=FACE_OUTER_BOUND('',#113,.T.);
#75=FACE_OUTER_BOUND('',#114,.T.);
#76=FACE_OUTER_BOUND('',#115,.T.);
#77=FACE_OUTER_BOUND('',#116,.T.);
#78=FACE_OUTER_BOUND('',#117,.T.);
#79=FACE_OUTER_BOUND('',#118,.T.);
#80=FACE_OUTER_BOUND('',#119,.T.);
#81=FACE_OUTER_BOUND('',#120,.T.);
#82=FACE_OUTER_BOUND('',#121,.T.);
#83=FACE_OUTER_BOUND('',#122,.T.);
#84=FACE_OUTER_BOUND('',#123,.T.);
#85=FACE_OUTER_BOUND('',#125,.T.);
#86=FACE_OUTER_BOUND('',#126,.T.);
#87=FACE_OUTER_BOUND('',#127,.T.);
#88=EDGE_LOOP('',(#418,#419,#420,#421));
#89=EDGE_LOOP('',(#422,#423,#424,#425));
#90=EDGE_LOOP('',(#426,#427,#428));
#91=EDGE_LOOP('',(#429,#430,#431,#432));
#92=EDGE_LOOP('',(#433,#434,#435));
#93=EDGE_LOOP('',(#436,#437,#438,#439));
#94=EDGE_LOOP('',(#440,#441,#442));
#95=EDGE_LOOP('',(#443,#444,#445));
#96=EDGE_LOOP('',(#446,#447,#448,#449));
#97=EDGE_LOOP('',(#450,#451,#452,#453));
#98=EDGE_LOOP('',(#454,#455,#456,#457));
#99=EDGE_LOOP('',(#458,#459,#460,#461));
#100=EDGE_LOOP('',(#462,#463,#464,#465));
#101=EDGE_LOOP('',(#466,#467,#468,#469));
#102=EDGE_LOOP('',(#470,#471,#472,#473));
#103=EDGE_LOOP('',(#474,#475,#476,#477));
#104=EDGE_LOOP('',(#478,#479,#480,#481));
#105=EDGE_LOOP('',(#482,#483,#484,#485,#486,#487,#488,#489));
#106=EDGE_LOOP('',(#490,#491,#492,#493));
#107=EDGE_LOOP('',(#494,#495,#496,#497));
#108=EDGE_LOOP('',(#498,#499,#500,#501));
#109=EDGE_LOOP('',(#502,#503,#504,#505));
#110=EDGE_LOOP('',(#506,#507,#508,#509));
#111=EDGE_LOOP('',(#510,#511,#512,#513));
#112=EDGE_LOOP('',(#514,#515,#516,#517));
#113=EDGE_LOOP('',(#518,#519,#520,#521));
#114=EDGE_LOOP('',(#522,#523,#524,#525,#526,#527));
#115=EDGE_LOOP('',(#528,#529,#530,#531));
#116=EDGE_LOOP('',(#532,#533,#534,#535,#536,#537));
#117=EDGE_LOOP('',(#538,#539,#540,#541,#542,#543,#544,#545));
#118=EDGE_LOOP('',(#546,#547,#548,#549));
#119=EDGE_LOOP('',(#550,#551,#552,#553,#554,#555,#556,#557));
#120=EDGE_LOOP('',(#558,#559,#560,#561));
#121=EDGE_LOOP('',(#562,#563,#564,#565));
#122=EDGE_LOOP('',(#566,#567,#568,#569));
#123=EDGE_LOOP('',(#570,#571,#572,#573));
#124=EDGE_LOOP('',(#574,#575,#576,#577));
#125=EDGE_LOOP('',(#578,#579,#580,#581));
#126=EDGE_LOOP('',(#582,#583,#584,#585));
#127=EDGE_LOOP('',(#586,#587,#588,#589));
#128=LINE('',#886,#198);
#129=LINE('',#889,#199);
#130=LINE('',#894,#200);
#131=LINE('',#897,#201);
#132=LINE('',#904,#202);
#133=LINE('',#907,#203);
#134=LINE('',#913,#204);
#135=LINE('',#916,#205);
#136=LINE('',#923,#206);
#137=LINE('',#926,#207);
#138=LINE('',#929,#208);
#139=LINE('',#930,#209);
#140=LINE('',#933,#210);
#141=LINE('',#937,#211);
#142=LINE('',#938,#212);
#143=LINE('',#942,#213);
#144=LINE('',#944,#214);
#145=LINE('',#946,#215);
#146=LINE('',#947,#216);
#147=LINE('',#950,#217);
#148=LINE('',#953,#218);
#149=LINE('',#955,#219);
#150=LINE('',#958,#220);
#151=LINE('',#961,#221);
#152=LINE('',#964,#222);
#153=LINE('',#966,#223);
#154=LINE('',#968,#224);
#155=LINE('',#969,#225);
#156=LINE('',#973,#226);
#157=LINE('',#975,#227);
#158=LINE('',#977,#228);
#159=LINE('',#978,#229);
#160=LINE('',#981,#230);
#161=LINE('',#983,#231);
#162=LINE('',#984,#232);
#163=LINE('',#988,#233);
#164=LINE('',#990,#234);
#165=LINE('',#992,#235);
#166=LINE('',#993,#236);
#167=LINE('',#996,#237);
#168=LINE('',#998,#238);
#169=LINE('',#999,#239);
#170=LINE('',#1001,#240);
#171=LINE('',#1003,#241);
#172=LINE('',#1005,#242);
#173=LINE('',#1006,#243);
#174=LINE('',#1009,#244);
#175=LINE('',#1011,#245);
#176=LINE('',#1012,#246);
#177=LINE('',#1016,#247);
#178=LINE('',#1017,#248);
#179=LINE('',#1018,#249);
#180=LINE('',#1020,#250);
#181=LINE('',#1021,#251);
#182=LINE('',#1023,#252);
#183=LINE('',#1025,#253);
#184=LINE('',#1027,#254);
#185=LINE('',#1029,#255);
#186=LINE('',#1030,#256);
#187=LINE('',#1033,#257);
#188=LINE('',#1034,#258);
#189=LINE('',#1036,#259);
#190=LINE('',#1040,#260);
#191=LINE('',#1042,#261);
#192=LINE('',#1043,#262);
#193=LINE('',#1046,#263);
#194=LINE('',#1047,#264);
#195=LINE('',#1050,#265);
#196=LINE('',#1051,#266);
#197=LINE('',#1053,#267);
#198=VECTOR('',#708,10.);
#199=VECTOR('',#711,10.);
#200=VECTOR('',#716,10.);
#201=VECTOR('',#719,10.);
#202=VECTOR('',#728,10.);
#203=VECTOR('',#731,10.);
#204=VECTOR('',#740,10.);
#205=VECTOR('',#743,10.);
#206=VECTOR('',#754,10.);
#207=VECTOR('',#757,10.);
#208=VECTOR('',#760,10.);
#209=VECTOR('',#761,10.);
#210=VECTOR('',#764,10.);
#211=VECTOR('',#769,10.);
#212=VECTOR('',#770,10.);
#213=VECTOR('',#773,10.);
#214=VECTOR('',#774,10.);
#215=VECTOR('',#775,10.);
#216=VECTOR('',#776,10.);
#217=VECTOR('',#779,10.);
#218=VECTOR('',#782,10.);
#219=VECTOR('',#785,10.);
#220=VECTOR('',#788,10.);
#221=VECTOR('',#793,10.);
#222=VECTOR('',#794,10.);
#223=VECTOR('',#795,10.);
#224=VECTOR('',#796,10.);
#225=VECTOR('',#797,10.);
#226=VECTOR('',#800,10.);
#227=VECTOR('',#801,10.);
#228=VECTOR('',#802,10.);
#229=VECTOR('',#803,10.);
#230=VECTOR('',#806,10.);
#231=VECTOR('',#807,10.);
#232=VECTOR('',#808,10.);
#233=VECTOR('',#811,10.);
#234=VECTOR('',#812,10.);
#235=VECTOR('',#813,10.);
#236=VECTOR('',#814,10.);
#237=VECTOR('',#817,10.);
#238=VECTOR('',#818,10.);
#239=VECTOR('',#819,10.);
#240=VECTOR('',#822,10.);
#241=VECTOR('',#823,10.);
#242=VECTOR('',#824,10.);
#243=VECTOR('',#825,10.);
#244=VECTOR('',#828,10.);
#245=VECTOR('',#829,10.);
#246=VECTOR('',#830,10.);
#247=VECTOR('',#833,10.);
#248=VECTOR('',#834,10.);
#249=VECTOR('',#835,10.);
#250=VECTOR('',#838,10.);
#251=VECTOR('',#839,10.);
#252=VECTOR('',#842,10.);
#253=VECTOR('',#845,10.);
#254=VECTOR('',#848,10.);
#255=VECTOR('',#849,10.);
#256=VECTOR('',#850,10.);
#257=VECTOR('',#853,10.);
#258=VECTOR('',#854,10.);
#259=VECTOR('',#857,10.);
#260=VECTOR('',#862,10.);
#261=VECTOR('',#863,10.);
#262=VECTOR('',#864,10.);
#263=VECTOR('',#867,10.);
#264=VECTOR('',#868,10.);
#265=VECTOR('',#871,10.);
#266=VECTOR('',#872,10.);
#267=VECTOR('',#875,10.);
#268=CIRCLE('',#650,3.);
#269=CIRCLE('',#651,3.);
#270=CIRCLE('',#653,3.);
#271=CIRCLE('',#654,3.);
#272=CIRCLE('',#656,3.);
#273=CIRCLE('',#658,3.);
#274=CIRCLE('',#659,3.);
#275=CIRCLE('',#661,3.);
#276=CIRCLE('',#663,3.);
#277=CIRCLE('',#664,3.);
#278=CIRCLE('',#666,3.);
#279=CIRCLE('',#668,3.);
#280=VERTEX_POINT('',#882);
#281=VERTEX_POINT('',#883);
#282=VERTEX_POINT('',#885);
#283=VERTEX_POINT('',#887);
#284=VERTEX_POINT('',#891);
#285=VERTEX_POINT('',#893);
#286=VERTEX_POINT('',#895);
#287=VERTEX_POINT('',#901);
#288=VERTEX_POINT('',#903);
#289=VERTEX_POINT('',#905);
#290=VERTEX_POINT('',#911);
#291=VERTEX_POINT('',#914);
#292=VERTEX_POINT('',#922);
#293=VERTEX_POINT('',#924);
#294=VERTEX_POINT('',#928);
#295=VERTEX_POINT('',#932);
#296=VERTEX_POINT('',#936);
#297=VERTEX_POINT('',#940);
#298=VERTEX_POINT('',#941);
#299=VERTEX_POINT('',#943);
#300=VERTEX_POINT('',#945);
#301=VERTEX_POINT('',#949);
#302=VERTEX_POINT('',#951);
#303=VERTEX_POINT('',#957);
#304=VERTEX_POINT('',#962);
#305=VERTEX_POINT('',#963);
#306=VERTEX_POINT('',#965);
#307=VERTEX_POINT('',#967);
#308=VERTEX_POINT('',#971);
#309=VERTEX_POINT('',#972);
#310=VERTEX_POINT('',#974);
#311=VERTEX_POINT('',#976);
#312=VERTEX_POINT('',#980);
#313=VERTEX_POINT('',#982);
#314=VERTEX_POINT('',#986);
#315=VERTEX_POINT('',#987);
#316=VERTEX_POINT('',#989);
#317=VERTEX_POINT('',#991);
#318=VERTEX_POINT('',#995);
#319=VERTEX_POINT('',#997);
#320=VERTEX_POINT('',#1002);
#321=VERTEX_POINT('',#1004);
#322=VERTEX_POINT('',#1008);
#323=VERTEX_POINT('',#1010);
#324=VERTEX_POINT('',#1014);
#325=VERTEX_POINT('',#1015);
#326=VERTEX_POINT('',#1028);
#327=VERTEX_POINT('',#1032);
#328=VERTEX_POINT('',#1039);
#329=VERTEX_POINT('',#1041);
#330=VERTEX_POINT('',#1045);
#331=VERTEX_POINT('',#1049);
#332=EDGE_CURVE('',#280,#281,#268,.T.);
#333=EDGE_CURVE('',#281,#282,#128,.T.);
#334=EDGE_CURVE('',#282,#283,#269,.T.);
#335=EDGE_CURVE('',#283,#280,#129,.T.);
#336=EDGE_CURVE('',#284,#282,#270,.T.);
#337=EDGE_CURVE('',#282,#285,#130,.T.);
#338=EDGE_CURVE('',#285,#286,#271,.T.);
#339=EDGE_CURVE('',#286,#284,#131,.T.);
#340=EDGE_CURVE('',#284,#283,#272,.T.);
#341=EDGE_CURVE('',#287,#285,#273,.T.);
#342=EDGE_CURVE('',#285,#288,#132,.T.);
#343=EDGE_CURVE('',#288,#289,#274,.T.);
#344=EDGE_CURVE('',#289,#287,#133,.T.);
#345=EDGE_CURVE('',#287,#286,#275,.T.);
#346=EDGE_CURVE('',#290,#288,#276,.T.);
#347=EDGE_CURVE('',#288,#281,#134,.T.);
#348=EDGE_CURVE('',#281,#291,#277,.T.);
#349=EDGE_CURVE('',#291,#290,#135,.T.);
#350=EDGE_CURVE('',#290,#289,#278,.T.);
#351=EDGE_CURVE('',#280,#291,#279,.T.);
#352=EDGE_CURVE('',#287,#292,#136,.T.);
#353=EDGE_CURVE('',#292,#293,#43,.T.);
#354=EDGE_CURVE('',#293,#286,#137,.T.);
#355=EDGE_CURVE('',#294,#289,#138,.T.);
#356=EDGE_CURVE('',#294,#292,#139,.T.);
#357=EDGE_CURVE('',#290,#295,#140,.T.);
#358=EDGE_CURVE('',#295,#294,#44,.T.);
#359=EDGE_CURVE('',#296,#291,#141,.T.);
#360=EDGE_CURVE('',#296,#295,#142,.T.);
#361=EDGE_CURVE('',#297,#298,#143,.T.);
#362=EDGE_CURVE('',#298,#299,#144,.T.);
#363=EDGE_CURVE('',#299,#300,#145,.T.);
#364=EDGE_CURVE('',#300,#297,#146,.F.);
#365=EDGE_CURVE('',#284,#301,#147,.T.);
#366=EDGE_CURVE('',#301,#302,#45,.T.);
#367=EDGE_CURVE('',#302,#283,#148,.T.);
#368=EDGE_CURVE('',#293,#301,#149,.T.);
#369=EDGE_CURVE('',#280,#303,#150,.T.);
#370=EDGE_CURVE('',#303,#296,#46,.T.);
#371=EDGE_CURVE('',#302,#303,#151,.T.);
#372=EDGE_CURVE('',#304,#305,#152,.T.);
#373=EDGE_CURVE('',#305,#306,#153,.T.);
#374=EDGE_CURVE('',#306,#307,#154,.T.);
#375=EDGE_CURVE('',#307,#304,#155,.T.);
#376=EDGE_CURVE('',#308,#309,#156,.T.);
#377=EDGE_CURVE('',#308,#310,#157,.T.);
#378=EDGE_CURVE('',#310,#311,#158,.T.);
#379=EDGE_CURVE('',#309,#311,#159,.T.);
#380=EDGE_CURVE('',#312,#310,#160,.T.);
#381=EDGE_CURVE('',#313,#312,#161,.T.);
#382=EDGE_CURVE('',#311,#313,#162,.T.);
#383=EDGE_CURVE('',#314,#315,#163,.T.);
#384=EDGE_CURVE('',#314,#316,#164,.T.);
#385=EDGE_CURVE('',#316,#317,#165,.T.);
#386=EDGE_CURVE('',#315,#317,#166,.T.);
#387=EDGE_CURVE('',#318,#316,#167,.T.);
#388=EDGE_CURVE('',#319,#318,#168,.T.);
#389=EDGE_CURVE('',#317,#319,#169,.T.);
#390=EDGE_CURVE('',#309,#314,#170,.T.);
#391=EDGE_CURVE('',#320,#314,#171,.T.);
#392=EDGE_CURVE('',#321,#320,#172,.T.);
#393=EDGE_CURVE('',#309,#321,#173,.T.);
#394=EDGE_CURVE('',#322,#318,#174,.T.);
#395=EDGE_CURVE('',#322,#323,#175,.F.);
#396=EDGE_CURVE('',#323,#319,#176,.T.);
#397=EDGE_CURVE('',#324,#325,#177,.T.);
#398=EDGE_CURVE('',#306,#325,#178,.F.);
#399=EDGE_CURVE('',#305,#324,#179,.T.);
#400=EDGE_CURVE('',#315,#324,#180,.T.);
#401=EDGE_CURVE('',#304,#320,#181,.T.);
#402=EDGE_CURVE('',#307,#321,#182,.T.);
#403=EDGE_CURVE('',#325,#308,#183,.T.);
#404=EDGE_CURVE('',#315,#308,#184,.T.);
#405=EDGE_CURVE('',#323,#326,#185,.F.);
#406=EDGE_CURVE('',#326,#312,#186,.T.);
#407=EDGE_CURVE('',#326,#327,#187,.F.);
#408=EDGE_CURVE('',#327,#313,#188,.T.);
#409=EDGE_CURVE('',#327,#322,#189,.F.);
#410=EDGE_CURVE('',#328,#299,#190,.T.);
#411=EDGE_CURVE('',#329,#328,#191,.F.);
#412=EDGE_CURVE('',#329,#300,#192,.F.);
#413=EDGE_CURVE('',#330,#329,#193,.T.);
#414=EDGE_CURVE('',#297,#330,#194,.F.);
#415=EDGE_CURVE('',#331,#328,#195,.T.);
#416=EDGE_CURVE('',#330,#331,#196,.T.);
#417=EDGE_CURVE('',#298,#331,#197,.F.);
#418=ORIENTED_EDGE('',*,*,#332,.T.);
#419=ORIENTED_EDGE('',*,*,#333,.T.);
#420=ORIENTED_EDGE('',*,*,#334,.T.);
#421=ORIENTED_EDGE('',*,*,#335,.T.);
#422=ORIENTED_EDGE('',*,*,#336,.T.);
#423=ORIENTED_EDGE('',*,*,#337,.T.);
#424=ORIENTED_EDGE('',*,*,#338,.T.);
#425=ORIENTED_EDGE('',*,*,#339,.T.);
#426=ORIENTED_EDGE('',*,*,#336,.F.);
#427=ORIENTED_EDGE('',*,*,#340,.T.);
#428=ORIENTED_EDGE('',*,*,#334,.F.);
#429=ORIENTED_EDGE('',*,*,#341,.T.);
#430=ORIENTED_EDGE('',*,*,#342,.T.);
#431=ORIENTED_EDGE('',*,*,#343,.T.);
#432=ORIENTED_EDGE('',*,*,#344,.T.);
#433=ORIENTED_EDGE('',*,*,#341,.F.);
#434=ORIENTED_EDGE('',*,*,#345,.T.);
#435=ORIENTED_EDGE('',*,*,#338,.F.);
#436=ORIENTED_EDGE('',*,*,#346,.T.);
#437=ORIENTED_EDGE('',*,*,#347,.T.);
#438=ORIENTED_EDGE('',*,*,#348,.T.);
#439=ORIENTED_EDGE('',*,*,#349,.T.);
#440=ORIENTED_EDGE('',*,*,#346,.F.);
#441=ORIENTED_EDGE('',*,*,#350,.T.);
#442=ORIENTED_EDGE('',*,*,#343,.F.);
#443=ORIENTED_EDGE('',*,*,#332,.F.);
#444=ORIENTED_EDGE('',*,*,#351,.T.);
#445=ORIENTED_EDGE('',*,*,#348,.F.);
#446=ORIENTED_EDGE('',*,*,#345,.F.);
#447=ORIENTED_EDGE('',*,*,#352,.T.);
#448=ORIENTED_EDGE('',*,*,#353,.T.);
#449=ORIENTED_EDGE('',*,*,#354,.T.);
#450=ORIENTED_EDGE('',*,*,#344,.F.);
#451=ORIENTED_EDGE('',*,*,#355,.F.);
#452=ORIENTED_EDGE('',*,*,#356,.T.);
#453=ORIENTED_EDGE('',*,*,#352,.F.);
#454=ORIENTED_EDGE('',*,*,#350,.F.);
#455=ORIENTED_EDGE('',*,*,#357,.T.);
#456=ORIENTED_EDGE('',*,*,#358,.T.);
#457=ORIENTED_EDGE('',*,*,#355,.T.);
#458=ORIENTED_EDGE('',*,*,#349,.F.);
#459=ORIENTED_EDGE('',*,*,#359,.F.);
#460=ORIENTED_EDGE('',*,*,#360,.T.);
#461=ORIENTED_EDGE('',*,*,#357,.F.);
#462=ORIENTED_EDGE('',*,*,#333,.F.);
#463=ORIENTED_EDGE('',*,*,#347,.F.);
#464=ORIENTED_EDGE('',*,*,#342,.F.);
#465=ORIENTED_EDGE('',*,*,#337,.F.);
#466=ORIENTED_EDGE('',*,*,#361,.T.);
#467=ORIENTED_EDGE('',*,*,#362,.T.);
#468=ORIENTED_EDGE('',*,*,#363,.T.);
#469=ORIENTED_EDGE('',*,*,#364,.T.);
#470=ORIENTED_EDGE('',*,*,#340,.F.);
#471=ORIENTED_EDGE('',*,*,#365,.T.);
#472=ORIENTED_EDGE('',*,*,#366,.T.);
#473=ORIENTED_EDGE('',*,*,#367,.T.);
#474=ORIENTED_EDGE('',*,*,#339,.F.);
#475=ORIENTED_EDGE('',*,*,#354,.F.);
#476=ORIENTED_EDGE('',*,*,#368,.T.);
#477=ORIENTED_EDGE('',*,*,#365,.F.);
#478=ORIENTED_EDGE('',*,*,#351,.F.);
#479=ORIENTED_EDGE('',*,*,#369,.T.);
#480=ORIENTED_EDGE('',*,*,#370,.T.);
#481=ORIENTED_EDGE('',*,*,#359,.T.);
#482=ORIENTED_EDGE('',*,*,#353,.F.);
#483=ORIENTED_EDGE('',*,*,#356,.F.);
#484=ORIENTED_EDGE('',*,*,#358,.F.);
#485=ORIENTED_EDGE('',*,*,#360,.F.);
#486=ORIENTED_EDGE('',*,*,#370,.F.);
#487=ORIENTED_EDGE('',*,*,#371,.F.);
#488=ORIENTED_EDGE('',*,*,#366,.F.);
#489=ORIENTED_EDGE('',*,*,#368,.F.);
#490=ORIENTED_EDGE('',*,*,#372,.T.);
#491=ORIENTED_EDGE('',*,*,#373,.T.);
#492=ORIENTED_EDGE('',*,*,#374,.T.);
#493=ORIENTED_EDGE('',*,*,#375,.T.);
#494=ORIENTED_EDGE('',*,*,#376,.F.);
#495=ORIENTED_EDGE('',*,*,#377,.T.);
#496=ORIENTED_EDGE('',*,*,#378,.T.);
#497=ORIENTED_EDGE('',*,*,#379,.F.);
#498=ORIENTED_EDGE('',*,*,#380,.F.);
#499=ORIENTED_EDGE('',*,*,#381,.F.);
#500=ORIENTED_EDGE('',*,*,#382,.F.);
#501=ORIENTED_EDGE('',*,*,#378,.F.);
#502=ORIENTED_EDGE('',*,*,#383,.F.);
#503=ORIENTED_EDGE('',*,*,#384,.T.);
#504=ORIENTED_EDGE('',*,*,#385,.T.);
#505=ORIENTED_EDGE('',*,*,#386,.F.);
#506=ORIENTED_EDGE('',*,*,#387,.F.);
#507=ORIENTED_EDGE('',*,*,#388,.F.);
#508=ORIENTED_EDGE('',*,*,#389,.F.);
#509=ORIENTED_EDGE('',*,*,#385,.F.);
#510=ORIENTED_EDGE('',*,*,#390,.T.);
#511=ORIENTED_EDGE('',*,*,#391,.F.);
#512=ORIENTED_EDGE('',*,*,#392,.F.);
#513=ORIENTED_EDGE('',*,*,#393,.F.);
#514=ORIENTED_EDGE('',*,*,#388,.T.);
#515=ORIENTED_EDGE('',*,*,#394,.F.);
#516=ORIENTED_EDGE('',*,*,#395,.T.);
#517=ORIENTED_EDGE('',*,*,#396,.T.);
#518=ORIENTED_EDGE('',*,*,#397,.T.);
#519=ORIENTED_EDGE('',*,*,#398,.F.);
#520=ORIENTED_EDGE('',*,*,#373,.F.);
#521=ORIENTED_EDGE('',*,*,#399,.T.);
#522=ORIENTED_EDGE('',*,*,#391,.T.);
#523=ORIENTED_EDGE('',*,*,#383,.T.);
#524=ORIENTED_EDGE('',*,*,#400,.T.);
#525=ORIENTED_EDGE('',*,*,#399,.F.);
#526=ORIENTED_EDGE('',*,*,#372,.F.);
#527=ORIENTED_EDGE('',*,*,#401,.T.);
#528=ORIENTED_EDGE('',*,*,#392,.T.);
#529=ORIENTED_EDGE('',*,*,#401,.F.);
#530=ORIENTED_EDGE('',*,*,#375,.F.);
#531=ORIENTED_EDGE('',*,*,#402,.T.);
#532=ORIENTED_EDGE('',*,*,#403,.T.);
#533=ORIENTED_EDGE('',*,*,#376,.T.);
#534=ORIENTED_EDGE('',*,*,#393,.T.);
#535=ORIENTED_EDGE('',*,*,#402,.F.);
#536=ORIENTED_EDGE('',*,*,#374,.F.);
#537=ORIENTED_EDGE('',*,*,#398,.T.);
#538=ORIENTED_EDGE('',*,*,#404,.F.);
#539=ORIENTED_EDGE('',*,*,#386,.T.);
#540=ORIENTED_EDGE('',*,*,#389,.T.);
#541=ORIENTED_EDGE('',*,*,#396,.F.);
#542=ORIENTED_EDGE('',*,*,#405,.T.);
#543=ORIENTED_EDGE('',*,*,#406,.T.);
#544=ORIENTED_EDGE('',*,*,#380,.T.);
#545=ORIENTED_EDGE('',*,*,#377,.F.);
#546=ORIENTED_EDGE('',*,*,#381,.T.);
#547=ORIENTED_EDGE('',*,*,#406,.F.);
#548=ORIENTED_EDGE('',*,*,#407,.T.);
#549=ORIENTED_EDGE('',*,*,#408,.T.);
#550=ORIENTED_EDGE('',*,*,#390,.F.);
#551=ORIENTED_EDGE('',*,*,#379,.T.);
#552=ORIENTED_EDGE('',*,*,#382,.T.);
#553=ORIENTED_EDGE('',*,*,#408,.F.);
#554=ORIENTED_EDGE('',*,*,#409,.T.);
#555=ORIENTED_EDGE('',*,*,#394,.T.);
#556=ORIENTED_EDGE('',*,*,#387,.T.);
#557=ORIENTED_EDGE('',*,*,#384,.F.);
#558=ORIENTED_EDGE('',*,*,#404,.T.);
#559=ORIENTED_EDGE('',*,*,#403,.F.);
#560=ORIENTED_EDGE('',*,*,#397,.F.);
#561=ORIENTED_EDGE('',*,*,#400,.F.);
#562=ORIENTED_EDGE('',*,*,#363,.F.);
#563=ORIENTED_EDGE('',*,*,#410,.F.);
#564=ORIENTED_EDGE('',*,*,#411,.F.);
#565=ORIENTED_EDGE('',*,*,#412,.T.);
#566=ORIENTED_EDGE('',*,*,#364,.F.);
#567=ORIENTED_EDGE('',*,*,#412,.F.);
#568=ORIENTED_EDGE('',*,*,#413,.F.);
#569=ORIENTED_EDGE('',*,*,#414,.F.);
#570=ORIENTED_EDGE('',*,*,#415,.F.);
#571=ORIENTED_EDGE('',*,*,#416,.F.);
#572=ORIENTED_EDGE('',*,*,#413,.T.);
#573=ORIENTED_EDGE('',*,*,#411,.T.);
#574=ORIENTED_EDGE('',*,*,#409,.F.);
#575=ORIENTED_EDGE('',*,*,#407,.F.);
#576=ORIENTED_EDGE('',*,*,#405,.F.);
#577=ORIENTED_EDGE('',*,*,#395,.F.);
#578=ORIENTED_EDGE('',*,*,#361,.F.);
#579=ORIENTED_EDGE('',*,*,#414,.T.);
#580=ORIENTED_EDGE('',*,*,#416,.T.);
#581=ORIENTED_EDGE('',*,*,#417,.F.);
#582=ORIENTED_EDGE('',*,*,#362,.F.);
#583=ORIENTED_EDGE('',*,*,#417,.T.);
#584=ORIENTED_EDGE('',*,*,#415,.T.);
#585=ORIENTED_EDGE('',*,*,#410,.T.);
#586=ORIENTED_EDGE('',*,*,#335,.F.);
#587=ORIENTED_EDGE('',*,*,#367,.F.);
#588=ORIENTED_EDGE('',*,*,#371,.T.);
#589=ORIENTED_EDGE('',*,*,#369,.F.);
#590=CYLINDRICAL_SURFACE('',#649,3.);
#591=CYLINDRICAL_SURFACE('',#652,3.);
#592=CYLINDRICAL_SURFACE('',#657,3.);
#593=CYLINDRICAL_SURFACE('',#662,3.);
#594=CYLINDRICAL_SURFACE('',#669,3.);
#595=CYLINDRICAL_SURFACE('',#672,3.);
#596=CYLINDRICAL_SURFACE('',#676,3.);
#597=CYLINDRICAL_SURFACE('',#679,3.);
#598=ADVANCED_FACE('',(#51),#590,.T.);
#599=ADVANCED_FACE('',(#52),#591,.T.);
#600=ADVANCED_FACE('',(#53),#47,.T.);
#601=ADVANCED_FACE('',(#54),#592,.T.);
#602=ADVANCED_FACE('',(#55),#48,.T.);
#603=ADVANCED_FACE('',(#56),#593,.T.);
#604=ADVANCED_FACE('',(#57),#49,.T.);
#605=ADVANCED_FACE('',(#58),#50,.T.);
#606=ADVANCED_FACE('',(#59),#594,.T.);
#607=ADVANCED_FACE('',(#60),#18,.F.);
#608=ADVANCED_FACE('',(#61),#595,.T.);
#609=ADVANCED_FACE('',(#62),#19,.F.);
#610=ADVANCED_FACE('',(#63,#15),#20,.T.);
#611=ADVANCED_FACE('',(#64),#596,.T.);
#612=ADVANCED_FACE('',(#65),#21,.F.);
#613=ADVANCED_FACE('',(#66),#597,.T.);
#614=ADVANCED_FACE('',(#67,#16),#22,.F.);
#615=ADVANCED_FACE('',(#68),#23,.F.);
#616=ADVANCED_FACE('',(#69),#24,.F.);
#617=ADVANCED_FACE('',(#70),#25,.F.);
#618=ADVANCED_FACE('',(#71),#26,.F.);
#619=ADVANCED_FACE('',(#72),#27,.T.);
#620=ADVANCED_FACE('',(#73),#28,.F.);
#621=ADVANCED_FACE('',(#74),#29,.T.);
#622=ADVANCED_FACE('',(#75),#30,.T.);
#623=ADVANCED_FACE('',(#76),#31,.T.);
#624=ADVANCED_FACE('',(#77),#32,.T.);
#625=ADVANCED_FACE('',(#78),#33,.F.);
#626=ADVANCED_FACE('',(#79),#34,.F.);
#627=ADVANCED_FACE('',(#80),#35,.F.);
#628=ADVANCED_FACE('',(#81),#36,.T.);
#629=ADVANCED_FACE('',(#82),#37,.F.);
#630=ADVANCED_FACE('',(#83),#38,.T.);
#631=ADVANCED_FACE('',(#84,#17),#39,.F.);
#632=ADVANCED_FACE('',(#85),#40,.F.);
#633=ADVANCED_FACE('',(#86),#41,.F.);
#634=ADVANCED_FACE('',(#87),#42,.F.);
#635=CLOSED_SHELL('',(#598,#599,#600,#601,#602,#603,#604,#605,#606,#607,
#608,#609,#610,#611,#612,#613,#614,#615,#616,#617,#618,#619,#620,#621,#622,
#623,#624,#625,#626,#627,#628,#629,#630,#631,#632,#633,#634));
#636=DERIVED_UNIT_ELEMENT(#638,1.);
#637=DERIVED_UNIT_ELEMENT(#1061,-3.);
#638=(
MASS_UNIT()
NAMED_UNIT(*)
SI_UNIT(.KILO.,.GRAM.)
);
#639=DERIVED_UNIT((#636,#637));
#640=MEASURE_REPRESENTATION_ITEM('density measure',
POSITIVE_RATIO_MEASURE(7850.),#639);
#641=PROPERTY_DEFINITION_REPRESENTATION(#646,#643);
#642=PROPERTY_DEFINITION_REPRESENTATION(#647,#644);
#643=REPRESENTATION('material name',(#645),#1058);
#644=REPRESENTATION('density',(#640),#1058);
#645=DESCRIPTIVE_REPRESENTATION_ITEM('Stal','Stal');
#646=PROPERTY_DEFINITION('material property','material name',#1068);
#647=PROPERTY_DEFINITION('material property','density of part',#1068);
#648=AXIS2_PLACEMENT_3D('',#880,#702,#703);
#649=AXIS2_PLACEMENT_3D('',#881,#704,#705);
#650=AXIS2_PLACEMENT_3D('',#884,#706,#707);
#651=AXIS2_PLACEMENT_3D('',#888,#709,#710);
#652=AXIS2_PLACEMENT_3D('',#890,#712,#713);
#653=AXIS2_PLACEMENT_3D('',#892,#714,#715);
#654=AXIS2_PLACEMENT_3D('',#896,#717,#718);
#655=AXIS2_PLACEMENT_3D('',#898,#720,#721);
#656=AXIS2_PLACEMENT_3D('',#899,#722,#723);
#657=AXIS2_PLACEMENT_3D('',#900,#724,#725);
#658=AXIS2_PLACEMENT_3D('',#902,#726,#727);
#659=AXIS2_PLACEMENT_3D('',#906,#729,#730);
#660=AXIS2_PLACEMENT_3D('',#908,#732,#733);
#661=AXIS2_PLACEMENT_3D('',#909,#734,#735);
#662=AXIS2_PLACEMENT_3D('',#910,#736,#737);
#663=AXIS2_PLACEMENT_3D('',#912,#738,#739);
#664=AXIS2_PLACEMENT_3D('',#915,#741,#742);
#665=AXIS2_PLACEMENT_3D('',#917,#744,#745);
#666=AXIS2_PLACEMENT_3D('',#918,#746,#747);
#667=AXIS2_PLACEMENT_3D('',#919,#748,#749);
#668=AXIS2_PLACEMENT_3D('',#920,#750,#751);
#669=AXIS2_PLACEMENT_3D('',#921,#752,#753);
#670=AXIS2_PLACEMENT_3D('',#925,#755,#756);
#671=AXIS2_PLACEMENT_3D('',#927,#758,#759);
#672=AXIS2_PLACEMENT_3D('',#931,#762,#763);
#673=AXIS2_PLACEMENT_3D('',#934,#765,#766);
#674=AXIS2_PLACEMENT_3D('',#935,#767,#768);
#675=AXIS2_PLACEMENT_3D('',#939,#771,#772);
#676=AXIS2_PLACEMENT_3D('',#948,#777,#778);
#677=AXIS2_PLACEMENT_3D('',#952,#780,#781);
#678=AXIS2_PLACEMENT_3D('',#954,#783,#784);
#679=AXIS2_PLACEMENT_3D('',#956,#786,#787);
#680=AXIS2_PLACEMENT_3D('',#959,#789,#790);
#681=AXIS2_PLACEMENT_3D('',#960,#791,#792);
#682=AXIS2_PLACEMENT_3D('',#970,#798,#799);
#683=AXIS2_PLACEMENT_3D('',#979,#804,#805);
#684=AXIS2_PLACEMENT_3D('',#985,#809,#810);
#685=AXIS2_PLACEMENT_3D('',#994,#815,#816);
#686=AXIS2_PLACEMENT_3D('',#1000,#820,#821);
#687=AXIS2_PLACEMENT_3D('',#1007,#826,#827);
#688=AXIS2_PLACEMENT_3D('',#1013,#831,#832);
#689=AXIS2_PLACEMENT_3D('',#1019,#836,#837);
#690=AXIS2_PLACEMENT_3D('',#1022,#840,#841);
#691=AXIS2_PLACEMENT_3D('',#1024,#843,#844);
#692=AXIS2_PLACEMENT_3D('',#1026,#846,#847);
#693=AXIS2_PLACEMENT_3D('',#1031,#851,#852);
#694=AXIS2_PLACEMENT_3D('',#1035,#855,#856);
#695=AXIS2_PLACEMENT_3D('',#1037,#858,#859);
#696=AXIS2_PLACEMENT_3D('',#1038,#860,#861);
#697=AXIS2_PLACEMENT_3D('',#1044,#865,#866);
#698=AXIS2_PLACEMENT_3D('',#1048,#869,#870);
#699=AXIS2_PLACEMENT_3D('',#1052,#873,#874);
#700=AXIS2_PLACEMENT_3D('',#1054,#876,#877);
#701=AXIS2_PLACEMENT_3D('',#1055,#878,#879);
#702=DIRECTION('axis',(0.,0.,1.));
#703=DIRECTION('refdir',(1.,0.,0.));
#704=DIRECTION('center_axis',(0.,0.,1.));
#705=DIRECTION('ref_axis',(0.525731112119133,0.85065080835204,0.));
#706=DIRECTION('center_axis',(0.,0.,1.));
#707=DIRECTION('ref_axis',(0.894427190999917,0.447213595499956,0.));
#708=DIRECTION('',(0.,0.,1.));
#709=DIRECTION('center_axis',(-8.2751138441576E-16,0.,-1.));
#710=DIRECTION('ref_axis',(0.,1.,0.));
#711=DIRECTION('',(0.,0.,-1.));
#712=DIRECTION('center_axis',(-1.,0.,0.));
#713=DIRECTION('ref_axis',(0.,0.862729207661706,0.505666208330559));
#714=DIRECTION('center_axis',(-1.,0.,0.));
#715=DIRECTION('ref_axis',(0.,0.488603371505194,0.872506014508644));
#716=DIRECTION('',(-1.,0.,0.));
#717=DIRECTION('center_axis',(1.,0.,0.));
#718=DIRECTION('ref_axis',(0.,1.,0.));
#719=DIRECTION('',(1.,0.,0.));
#720=DIRECTION('center_axis',(0.,0.,1.));
#721=DIRECTION('ref_axis',(1.,0.,0.));
#722=DIRECTION('center_axis',(-0.399859273743979,0.799718547487958,-0.447842389691607));
#723=DIRECTION('ref_axis',(0.572948298796591,0.599461582368912,0.558906126437931));
#724=DIRECTION('center_axis',(-1.90323947078598E-16,0.,-1.));
#725=DIRECTION('ref_axis',(-0.525731112119134,0.85065080835204,0.));
#726=DIRECTION('center_axis',(0.,0.,-1.));
#727=DIRECTION('ref_axis',(-0.894427190999916,0.447213595499957,0.));
#728=DIRECTION('',(-1.90323947078598E-16,0.,-1.));
#729=DIRECTION('center_axis',(0.,0.,1.));
#730=DIRECTION('ref_axis',(0.,1.,0.));
#731=DIRECTION('',(1.90323947078598E-16,0.,1.));
#732=DIRECTION('center_axis',(0.,0.,1.));
#733=DIRECTION('ref_axis',(1.,0.,0.));
#734=DIRECTION('center_axis',(0.399859273743979,0.799718547487957,-0.447842389691607));
#735=DIRECTION('ref_axis',(-0.572948298796592,0.599461582368909,0.558906126437933));
#736=DIRECTION('center_axis',(1.,0.,0.));
#737=DIRECTION('ref_axis',(0.,0.858821550758802,-0.512274871482339));
#738=DIRECTION('center_axis',(1.,0.,0.));
#739=DIRECTION('ref_axis',(0.,0.475148912095508,-0.879905399082456));
#740=DIRECTION('',(1.,0.,0.));
#741=DIRECTION('center_axis',(-1.,0.,8.41168475446618E-16));
#742=DIRECTION('ref_axis',(0.,1.,0.));
#743=DIRECTION('',(-1.,0.,0.));
#744=DIRECTION('center_axis',(0.,0.,1.));
#745=DIRECTION('ref_axis',(1.,0.,0.));
#746=DIRECTION('center_axis',(0.402702340846687,0.805404681693375,0.434918524994041));
#747=DIRECTION('ref_axis',(-0.574368172224241,0.592307202807103,-0.565042812748388));
#748=DIRECTION('center_axis',(0.,0.,1.));
#749=DIRECTION('ref_axis',(1.,0.,0.));
#750=DIRECTION('center_axis',(-0.402702340846687,0.805404681693375,0.434918524994041));
#751=DIRECTION('ref_axis',(0.574368172224241,0.592307202807104,-0.565042812748387));
#752=DIRECTION('center_axis',(0.399859273743979,0.799718547487957,-0.447842389691607));
#753=DIRECTION('ref_axis',(-0.572948298796593,0.599461582368909,0.558906126437932));
#754=DIRECTION('',(-0.399859273743979,-0.799718547487957,0.447842389691607));
#755=DIRECTION('center_axis',(0.,1.,0.));
#756=DIRECTION('ref_axis',(-0.666015766744988,0.,0.745937663915079));
#757=DIRECTION('',(0.399859273743979,0.799718547487957,-0.447842389691607));
#758=DIRECTION('center_axis',(0.894427190999916,-0.447213595499958,-1.70230913365527E-16));
#759=DIRECTION('ref_axis',(-1.90323947078598E-16,0.,-1.));
#760=DIRECTION('',(0.402702340846687,0.805404681693375,0.434918524994041));
#761=DIRECTION('',(1.90323947078598E-16,0.,1.));
#762=DIRECTION('center_axis',(0.402702340846687,0.805404681693375,0.434918524994041));
#763=DIRECTION('ref_axis',(-0.57436817222424,0.592307202807105,-0.565042812748388));
#764=DIRECTION('',(-0.402702340846687,-0.805404681693375,-0.434918524994041));
#765=DIRECTION('center_axis',(0.,1.,0.));
#766=DIRECTION('ref_axis',(-0.679408034122761,0.,-0.733760671588118));
#767=DIRECTION('center_axis',(0.,-0.475148912095507,0.879905399082456));
#768=DIRECTION('ref_axis',(1.,0.,0.));
#769=DIRECTION('',(-0.402702340846687,0.805404681693375,0.434918524994041));
#770=DIRECTION('',(-1.,0.,0.));
#771=DIRECTION('center_axis',(0.,1.,0.));
#772=DIRECTION('ref_axis',(0.,0.,1.));
#773=DIRECTION('',(0.,0.,1.));
#774=DIRECTION('',(-1.,0.,0.));
#775=DIRECTION('',(0.,0.,-1.));
#776=DIRECTION('',(-1.,0.,0.));
#777=DIRECTION('center_axis',(-0.399859273743979,0.799718547487958,-0.447842389691607));
#778=DIRECTION('ref_axis',(0.572948298796592,0.59946158236891,0.558906126437933));
#779=DIRECTION('',(0.399859273743979,-0.799718547487957,0.447842389691607));
#780=DIRECTION('center_axis',(0.,1.,0.));
#781=DIRECTION('ref_axis',(0.666015766744988,0.,0.745937663915079));
#782=DIRECTION('',(-0.399859273743979,0.799718547487957,-0.447842389691607));
#783=DIRECTION('center_axis',(0.,-0.488603371505193,-0.872506014508644));
#784=DIRECTION('ref_axis',(-1.,0.,0.));
#785=DIRECTION('',(1.,0.,0.));
#786=DIRECTION('center_axis',(-0.402702340846687,0.805404681693375,0.434918524994041));
#787=DIRECTION('ref_axis',(0.574368172224241,0.592307202807104,-0.565042812748387));
#788=DIRECTION('',(0.402702340846687,-0.805404681693375,-0.434918524994041));
#789=DIRECTION('center_axis',(0.,1.,0.));
#790=DIRECTION('ref_axis',(0.679408034122761,-8.74482418510205E-20,-0.733760671588118));
#791=DIRECTION('center_axis',(0.,1.,0.));
#792=DIRECTION('ref_axis',(0.,0.,1.));
#793=DIRECTION('',(0.,0.,-1.));
#794=DIRECTION('',(-1.,0.,0.));
#795=DIRECTION('',(1.90323947078598E-16,0.,1.));
#796=DIRECTION('',(1.,0.,0.));
#797=DIRECTION('',(0.,0.,-1.));
#798=DIRECTION('center_axis',(0.,0.,1.));
#799=DIRECTION('ref_axis',(1.,2.22044604925031E-16,0.));
#800=DIRECTION('',(1.,0.,0.));
#801=DIRECTION('',(-2.77555756156289E-16,1.,0.));
#802=DIRECTION('',(1.,2.22044604925031E-16,0.));
#803=DIRECTION('',(-2.77555756156289E-16,1.,0.));
#804=DIRECTION('center_axis',(-2.77555756156289E-16,1.,0.));
#805=DIRECTION('ref_axis',(0.,0.,1.));
#806=DIRECTION('',(0.,0.,1.));
#807=DIRECTION('',(-1.,-2.77555756156289E-16,0.));
#808=DIRECTION('',(3.96020914325682E-16,8.79343074634957E-32,-1.));
#809=DIRECTION('center_axis',(0.,0.,-1.));
#810=DIRECTION('ref_axis',(-1.,-2.22044604925031E-16,0.));
#811=DIRECTION('',(-1.,0.,0.));
#812=DIRECTION('',(-2.77555756156289E-16,1.,0.));
#813=DIRECTION('',(-1.,-2.22044604925031E-16,0.));
#814=DIRECTION('',(-2.77555756156289E-16,1.,0.));
#815=DIRECTION('center_axis',(-2.77555756156289E-16,1.,0.));
#816=DIRECTION('ref_axis',(0.,0.,1.));
#817=DIRECTION('',(4.53002239710215E-17,1.00586703346609E-32,-1.));
#818=DIRECTION('',(1.,2.77555756156289E-16,0.));
#819=DIRECTION('',(-4.53002239710215E-17,-1.00586703346609E-32,1.));
#820=DIRECTION('center_axis',(0.,-1.,0.));
#821=DIRECTION('ref_axis',(1.,0.,0.));
#822=DIRECTION('',(3.96020914325682E-16,0.,-1.));
#823=DIRECTION('',(-1.,0.,0.));
#824=DIRECTION('',(1.77520460850349E-16,-3.55040921700699E-16,-1.));
#825=DIRECTION('',(1.,0.,0.));
#826=DIRECTION('center_axis',(0.,0.,-1.));
#827=DIRECTION('ref_axis',(1.,0.,0.));
#828=DIRECTION('',(0.,-1.,0.));
#829=DIRECTION('',(1.,0.,0.));
#830=DIRECTION('',(0.,-1.,0.));
#831=DIRECTION('center_axis',(0.894427190999916,-0.447213595499958,-1.70230913365527E-16));
#832=DIRECTION('ref_axis',(-1.90323947078598E-16,0.,-1.));
#833=DIRECTION('',(1.90323947078598E-16,0.,1.));
#834=DIRECTION('',(-0.399859273743979,-0.799718547487957,0.447842389691607));
#835=DIRECTION('',(0.402702340846687,0.805404681693375,0.434918524994041));
#836=DIRECTION('center_axis',(0.,-0.475148912095507,0.879905399082456));
#837=DIRECTION('ref_axis',(1.,0.,0.));
#838=DIRECTION('',(-1.,0.,0.));
#839=DIRECTION('',(-0.402702340846687,0.805404681693375,0.434918524994041));
#840=DIRECTION('center_axis',(-0.894427190999916,-0.447213595499958,0.));
#841=DIRECTION('ref_axis',(0.,0.,1.));
#842=DIRECTION('',(-0.399859273743979,0.799718547487957,-0.447842389691607));
#843=DIRECTION('center_axis',(0.,-0.488603371505193,-0.872506014508644));
#844=DIRECTION('ref_axis',(-1.,0.,0.));
#845=DIRECTION('',(1.,0.,0.));
#846=DIRECTION('center_axis',(-1.,0.,0.));
#847=DIRECTION('ref_axis',(0.,0.,-1.));
#848=DIRECTION('',(0.,0.,1.));
#849=DIRECTION('',(0.,0.,-1.));
#850=DIRECTION('',(0.,-1.,0.));
#851=DIRECTION('center_axis',(0.,0.,1.));
#852=DIRECTION('ref_axis',(-1.,0.,0.));
#853=DIRECTION('',(-1.,0.,0.));
#854=DIRECTION('',(0.,-1.,0.));
#855=DIRECTION('center_axis',(1.,0.,0.));
#856=DIRECTION('ref_axis',(0.,0.,1.));
#857=DIRECTION('',(0.,0.,1.));
#858=DIRECTION('center_axis',(0.,-1.,0.));
#859=DIRECTION('ref_axis',(1.,0.,0.));
#860=DIRECTION('center_axis',(-1.,1.85037170770859E-16,0.));
#861=DIRECTION('ref_axis',(-1.85037170770859E-16,-1.,0.));
#862=DIRECTION('',(1.85037170770859E-16,1.,0.));
#863=DIRECTION('',(0.,0.,-1.));
#864=DIRECTION('',(-1.85037170770859E-16,-1.,0.));
#865=DIRECTION('center_axis',(0.,0.,1.));
#866=DIRECTION('ref_axis',(1.,0.,0.));
#867=DIRECTION('',(-1.,0.,0.));
#868=DIRECTION('',(2.46716227694479E-16,1.,0.));
#869=DIRECTION('center_axis',(0.,-1.,0.));
#870=DIRECTION('ref_axis',(1.,0.,0.));
#871=DIRECTION('',(-1.,0.,0.));
#872=DIRECTION('',(0.,0.,1.));
#873=DIRECTION('center_axis',(1.,-2.46716227694479E-16,0.));
#874=DIRECTION('ref_axis',(2.46716227694479E-16,1.,0.));
#875=DIRECTION('',(2.46716227694479E-16,1.,0.));
#876=DIRECTION('center_axis',(0.,0.,1.));
#877=DIRECTION('ref_axis',(1.,0.,0.));
#878=DIRECTION('center_axis',(-0.894427190999916,-0.447213595499958,0.));
#879=DIRECTION('ref_axis',(0.,0.,1.));
#880=CARTESIAN_POINT('',(0.,0.,0.));
#881=CARTESIAN_POINT('Origin',(8.14589803375032,-3.,-11.7499999031425));
#882=CARTESIAN_POINT('',(10.8291796067501,-1.65835921350013,-0.210542559057618));
#883=CARTESIAN_POINT('',(8.14589803375032,0.,-0.210542559057616));
#884=CARTESIAN_POINT('Origin',(8.14589803375032,-3.,-0.210542559057618));
#885=CARTESIAN_POINT('',(8.14589803375032,0.,11.2416282982892));
#886=CARTESIAN_POINT('',(8.14589803375032,0.,-11.7499999031425));
#887=CARTESIAN_POINT('',(10.8291796067501,-1.65835921350012,11.2416282982892));
#888=CARTESIAN_POINT('Origin',(8.14589803375032,-3.,11.2416282982892));
#889=CARTESIAN_POINT('',(10.8291796067501,-1.65835921350013,-11.7499999031425));
#890=CARTESIAN_POINT('Origin',(17.5,-3.,11.2416282982893));
#891=CARTESIAN_POINT('',(8.14589803375032,-1.53418988548442,13.8591463418152));
#892=CARTESIAN_POINT('Origin',(8.14589803375032,-3.,11.2416282982893));
#893=CARTESIAN_POINT('',(-8.14589803375031,0.,11.2416282982893));
#894=CARTESIAN_POINT('',(17.5,0.,11.2416282982893));
#895=CARTESIAN_POINT('',(-8.14589803375031,-1.53418988548442,13.8591463418152));
#896=CARTESIAN_POINT('Origin',(-8.14589803375031,-3.,11.2416282982893));
#897=CARTESIAN_POINT('',(17.5,-1.53418988548442,13.8591463418152));
#898=CARTESIAN_POINT('Origin',(8.14589803375032,-3.,11.2416282982893));
#899=CARTESIAN_POINT('Origin',(8.14589803375032,-3.00000000000001,11.2416282982893));
#900=CARTESIAN_POINT('Origin',(-8.14589803375031,-3.,23.2500000968575));
#901=CARTESIAN_POINT('',(-10.8291796067501,-1.65835921350013,11.2416282982893));
#902=CARTESIAN_POINT('Origin',(-8.14589803375031,-3.,11.2416282982893));
#903=CARTESIAN_POINT('',(-8.14589803375032,0.,-0.210542559057614));
#904=CARTESIAN_POINT('',(-8.14589803375031,0.,23.2500000968575));
#905=CARTESIAN_POINT('',(-10.8291796067501,-1.65835921350013,-0.210542559057614));
#906=CARTESIAN_POINT('Origin',(-8.14589803375032,-3.,-0.210542559057614));
#907=CARTESIAN_POINT('',(-10.8291796067501,-1.65835921350013,23.2500000968575));
#908=CARTESIAN_POINT('Origin',(-8.14589803375031,-3.00000000000001,11.2416282982893));
#909=CARTESIAN_POINT('Origin',(-8.14589803375031,-3.00000000000001,11.2416282982893));
#910=CARTESIAN_POINT('Origin',(-17.5,-3.,-0.210542559057616));
#911=CARTESIAN_POINT('',(-8.14589803375032,-1.57455326371348,-2.85025875630498));
#912=CARTESIAN_POINT('Origin',(-8.14589803375032,-3.,-0.210542559057616));
#913=CARTESIAN_POINT('',(-17.5,0.,-0.210542559057616));
#914=CARTESIAN_POINT('',(8.14589803375031,-1.57455326371347,-2.85025875630498));
#915=CARTESIAN_POINT('Origin',(8.14589803375032,-3.,-0.210542559057616));
#916=CARTESIAN_POINT('',(-17.5,-1.57455326371348,-2.85025875630499));
#917=CARTESIAN_POINT('Origin',(-8.14589803375031,-2.99999999999999,-0.210542559057609));
#918=CARTESIAN_POINT('Origin',(-8.14589803375031,-2.99999999999999,-0.210542559057605));
#919=CARTESIAN_POINT('Origin',(8.14589803375031,-3.,-0.210542559057614));
#920=CARTESIAN_POINT('Origin',(8.14589803375031,-3.,-0.210542559057614));
#921=CARTESIAN_POINT('Origin',(-27.2018391934077,-41.1118823193147,32.5842825447624));
#922=CARTESIAN_POINT('',(-32.5,-45.,35.5129473066478));
#923=CARTESIAN_POINT('',(-29.8851207664074,-39.7702415328148,32.5842825447624));
#924=CARTESIAN_POINT('',(-29.8788030910081,-45.,38.2000001743436));
#925=CARTESIAN_POINT('Origin',(-29.1458980337503,-45.,34.7616284610099));
#926=CARTESIAN_POINT('',(-27.2018391934077,-39.6460722047991,35.2018005882884));
#927=CARTESIAN_POINT('Origin',(-35.,-50.,41.0000001937151));
#928=CARTESIAN_POINT('',(-32.5,-45.,-23.6150284158489));
#929=CARTESIAN_POINT('',(-29.340258380621,-38.680516761242,-20.2025074914032));
#930=CARTESIAN_POINT('',(-32.5,-45.,23.5000001937151));
#931=CARTESIAN_POINT('Origin',(-26.6569768076213,-40.0221575477419,-20.2025074914032));
#932=CARTESIAN_POINT('',(-29.8586214018936,-45.,-26.2999998256564));
#933=CARTESIAN_POINT('',(-26.6569768076213,-38.5967108114554,-22.8422236886506));
#934=CARTESIAN_POINT('Origin',(-29.1458980337503,-45.,-22.8905423963369));
#935=CARTESIAN_POINT('Origin',(-35.,-50.,-28.9999998062849));
#936=CARTESIAN_POINT('',(29.8586214018936,-45.,-26.2999998256564));
#937=CARTESIAN_POINT('',(27.1110504545463,-39.5048581053055,-23.3326232238112));
#938=CARTESIAN_POINT('',(-17.5,-45.,-26.2999998256564));
#939=CARTESIAN_POINT('Origin',(2.77555756156289E-16,0.,5.5));
#940=CARTESIAN_POINT('',(5.1,0.,-0.1));
#941=CARTESIAN_POINT('',(5.1,0.,11.1));
#942=CARTESIAN_POINT('',(5.1,0.,2.75));
#943=CARTESIAN_POINT('',(-5.1,0.,11.1));
#944=CARTESIAN_POINT('',(1.38777878078145E-16,0.,11.1));
#945=CARTESIAN_POINT('',(-5.1,0.,-0.1));
#946=CARTESIAN_POINT('',(-5.1,0.,2.75));
#947=CARTESIAN_POINT('',(1.38777878078145E-16,0.,-0.1));
#948=CARTESIAN_POINT('Origin',(26.5303119070899,-39.7688277466793,31.8321719788832));
#949=CARTESIAN_POINT('',(29.8788030910081,-45.,38.2000001743436));
#950=CARTESIAN_POINT('',(26.5303119070899,-38.3030176321637,34.4496900224091));
#951=CARTESIAN_POINT('',(32.5,-45.,35.5129473066478));
#952=CARTESIAN_POINT('Origin',(29.1458980337503,-45.,34.7616284610099));
#953=CARTESIAN_POINT('',(29.2135934800897,-38.4271869601794,31.8321719788832));
#954=CARTESIAN_POINT('Origin',(35.,-50.,41.0000001937151));
#955=CARTESIAN_POINT('',(17.5,-45.,38.2000001743436));
#956=CARTESIAN_POINT('Origin',(27.1110504545463,-40.930304841592,-20.6929070265639));
#957=CARTESIAN_POINT('',(32.5,-45.,-23.6150284158489));
#958=CARTESIAN_POINT('',(29.7943320275461,-39.5886640550921,-20.6929070265639));
#959=CARTESIAN_POINT('Origin',(29.1458980337503,-45.,-22.8905423963369));
#960=CARTESIAN_POINT('Origin',(-8.88178419700125E-15,-45.,6.00000019371509));
#961=CARTESIAN_POINT('',(32.5,-45.,-11.4999998062849));
#962=CARTESIAN_POINT('',(30.2639320225002,-45.,-24.0270282061101));
#963=CARTESIAN_POINT('',(-30.2639320225002,-45.,-24.0270282061101));
#964=CARTESIAN_POINT('',(-17.5,-45.,-24.0270282061101));
#965=CARTESIAN_POINT('',(-30.2639320225002,-45.,35.9077523654545));
#966=CARTESIAN_POINT('',(-30.2639320225002,-45.,23.5000001937151));
#967=CARTESIAN_POINT('',(30.2639320225002,-45.,35.9077523654545));
#968=CARTESIAN_POINT('',(17.5,-45.,35.9077523654545));
#969=CARTESIAN_POINT('',(30.2639320225002,-45.,-11.4999998062849));
#970=CARTESIAN_POINT('Origin',(-1.99999971922434,-9.99999999999999,16.3077522298539));
#971=CARTESIAN_POINT('',(-1.99999971922434,-9.99999999999999,16.3077522298539));
#972=CARTESIAN_POINT('',(2.,-9.99999999999999,16.3077522298539));
#973=CARTESIAN_POINT('',(17.5,-9.99999999999998,16.3077522298539));
#974=CARTESIAN_POINT('',(-1.99999971922434,-8.99999999999999,16.3077522298539));
#975=CARTESIAN_POINT('',(-1.99999971922434,-9.99999999999999,16.3077522298539));
#976=CARTESIAN_POINT('',(2.,-8.99999999999999,16.3077522298539));
#977=CARTESIAN_POINT('',(12.7639320225002,-8.99999999999998,16.3077522298539));
#978=CARTESIAN_POINT('',(2.,-9.99999999999999,16.3077522298539));
#979=CARTESIAN_POINT('Origin',(4.16333634234434E-15,-8.99999999999999,5.59036194407162));
#980=CARTESIAN_POINT('',(-2.00000002980232,-8.99999999999999,10.0000001490116));
#981=CARTESIAN_POINT('',(-1.99999971922434,-8.99999999999999,10.0000001490116));
#982=CARTESIAN_POINT('',(2.,-8.99999999999999,10.));
#983=CARTESIAN_POINT('',(1.,-8.99999999999999,10.));
#984=CARTESIAN_POINT('',(2.,-8.99999999999999,10.));
#985=CARTESIAN_POINT('Origin',(2.,-9.99999999999999,-5.12702834171065));
#986=CARTESIAN_POINT('',(2.,-9.99999999999999,-5.12702834171066));
#987=CARTESIAN_POINT('',(-2.00000002980232,-9.99999999999999,-5.12702834171066));
#988=CARTESIAN_POINT('',(-17.5,-9.99999999999999,-5.12702834171066));
#989=CARTESIAN_POINT('',(2.,-8.99999999999999,-5.12702834171066));
#990=CARTESIAN_POINT('',(2.,-9.99999999999999,-5.12702834171066));
#991=CARTESIAN_POINT('',(-2.00000002980232,-8.99999999999999,-5.12702834171066));
#992=CARTESIAN_POINT('',(-12.7639320225002,-8.99999999999999,-5.12702834171065));
#993=CARTESIAN_POINT('',(-2.00000002980232,-9.99999999999999,-5.12702834171066));
#994=CARTESIAN_POINT('Origin',(4.16333634234434E-15,-8.99999999999999,5.59036194407162));
#995=CARTESIAN_POINT('',(2.,-8.99999999999999,1.));
#996=CARTESIAN_POINT('',(2.,-8.99999999999999,1.));
#997=CARTESIAN_POINT('',(-2.00000002980232,-8.99999999999999,1.));
#998=CARTESIAN_POINT('',(-1.00000001490116,-8.99999999999999,1.));
#999=CARTESIAN_POINT('',(-2.00000002980232,-8.99999999999999,1.));
#1000=CARTESIAN_POINT('Origin',(-5.,-9.99999999999999,0.));
#1001=CARTESIAN_POINT('',(2.,-9.99999999999999,8.15387611492696));
#1002=CARTESIAN_POINT('',(12.7639320225002,-9.99999999999999,-5.12702834171065));
#1003=CARTESIAN_POINT('',(-17.5,-9.99999999999999,-5.12702834171066));
#1004=CARTESIAN_POINT('',(12.7639320225002,-9.99999999999999,16.3077522298539));
#1005=CARTESIAN_POINT('',(12.7639320225002,-10.,-17.0635140739978));
#1006=CARTESIAN_POINT('',(17.5,-9.99999999999998,16.3077522298539));
#1007=CARTESIAN_POINT('Origin',(-2.00000002980232,0.,1.));
#1008=CARTESIAN_POINT('',(2.,-8.09999999999999,1.));
#1009=CARTESIAN_POINT('',(2.,0.,1.));
#1010=CARTESIAN_POINT('',(-2.00000002980232,-8.09999999999999,1.));
#1011=CARTESIAN_POINT('',(-3.50000001490116,-8.09999999999999,1.));
#1012=CARTESIAN_POINT('',(-2.00000002980232,0.,1.));
#1013=CARTESIAN_POINT('Origin',(-33.2111456180002,-50.8944271909999,41.0000001937151));
#1014=CARTESIAN_POINT('',(-12.7639320225002,-9.99999999999999,-5.12702834171065));
#1015=CARTESIAN_POINT('',(-12.7639320225002,-9.99999999999999,16.3077522298539));
#1016=CARTESIAN_POINT('',(-12.7639320225002,-9.99999999999998,27.0000000968575));
#1017=CARTESIAN_POINT('',(-27.9358726762827,-40.343881307565,33.3003258796517));
#1018=CARTESIAN_POINT('',(-27.3946529439995,-39.2614418429985,-20.9282068235622));
#1019=CARTESIAN_POINT('Origin',(-35.,-50.950297824191,-27.24018900812));
#1020=CARTESIAN_POINT('',(-17.5,-9.99999999999999,-5.12702834171066));
#1021=CARTESIAN_POINT('',(27.8487265909245,-40.1695891368486,-21.4186063587228));
#1022=CARTESIAN_POINT('Origin',(33.2111456180002,-50.8944271909999,-28.9999998062849));
#1023=CARTESIAN_POINT('',(27.264345389965,-39.0008267349296,32.5482153137724));
#1024=CARTESIAN_POINT('Origin',(35.,-50.9772067430104,39.2549881646978));
#1025=CARTESIAN_POINT('',(17.5,-9.99999999999998,16.3077522298539));
#1026=CARTESIAN_POINT('Origin',(-2.00000002980232,0.,10.0000001490116));
#1027=CARTESIAN_POINT('',(-1.99999971922434,-9.99999999999999,5.00000007450581));
#1028=CARTESIAN_POINT('',(-2.00000002980232,-8.09999999999999,10.0000001490116));
#1029=CARTESIAN_POINT('',(-2.00000002980232,-8.09999999999999,5.00000007450581));
#1030=CARTESIAN_POINT('',(-2.00000002980232,0.,10.0000001490116));
#1031=CARTESIAN_POINT('Origin',(2.,0.,10.));
#1032=CARTESIAN_POINT('',(2.,-8.09999999999999,10.));
#1033=CARTESIAN_POINT('',(-1.5,-8.09999999999999,10.));
#1034=CARTESIAN_POINT('',(2.,0.,10.));
#1035=CARTESIAN_POINT('Origin',(2.,0.,1.));
#1036=CARTESIAN_POINT('',(2.,-8.09999999999999,0.5));
#1037=CARTESIAN_POINT('Origin',(-5.,-9.99999999999999,0.));
#1038=CARTESIAN_POINT('Origin',(-5.1,0.123838296652092,0.));
#1039=CARTESIAN_POINT('',(-5.1,-8.09999999999999,11.1));
#1040=CARTESIAN_POINT('',(-5.09999999999999,50.5619191483261,11.1));
#1041=CARTESIAN_POINT('',(-5.1,-8.09999999999999,-0.1));
#1042=CARTESIAN_POINT('',(-5.1,-8.09999999999999,0.));
#1043=CARTESIAN_POINT('',(-5.09999999999999,50.5619191483261,-0.1));
#1044=CARTESIAN_POINT('Origin',(0.,101.,-0.1));
#1045=CARTESIAN_POINT('',(5.1,-8.09999999999999,-0.1));
#1046=CARTESIAN_POINT('',(-2.5,-8.09999999999999,-0.1));
#1047=CARTESIAN_POINT('',(5.10000000000001,46.5,-0.1));
#1048=CARTESIAN_POINT('Origin',(-5.,-8.09999999999999,0.));
#1049=CARTESIAN_POINT('',(5.1,-8.09999999999999,11.1));
#1050=CARTESIAN_POINT('',(-2.5,-8.09999999999999,11.1));
#1051=CARTESIAN_POINT('',(5.1,-8.09999999999999,0.));
#1052=CARTESIAN_POINT('Origin',(5.1,-7.99999999999999,0.));
#1053=CARTESIAN_POINT('',(5.10000000000001,46.5,11.1));
#1054=CARTESIAN_POINT('Origin',(0.,101.,11.1));
#1055=CARTESIAN_POINT('Origin',(35.,-50.,-28.9999998062849));
#1056=UNCERTAINTY_MEASURE_WITH_UNIT(LENGTH_MEASURE(0.01),#1060,
'DISTANCE_ACCURACY_VALUE',
'Maximum model space distance between geometric entities at asserted c
onnectivities');
#1057=UNCERTAINTY_MEASURE_WITH_UNIT(LENGTH_MEASURE(0.01),#1060,
'DISTANCE_ACCURACY_VALUE',
'Maximum model space distance between geometric entities at asserted c
onnectivities');
#1058=(
GEOMETRIC_REPRESENTATION_CONTEXT(3)
GLOBAL_UNCERTAINTY_ASSIGNED_CONTEXT((#1056))
GLOBAL_UNIT_ASSIGNED_CONTEXT((#1060,#1062,#1063))
REPRESENTATION_CONTEXT('','3D')
);
#1059=(
GEOMETRIC_REPRESENTATION_CONTEXT(3)
GLOBAL_UNCERTAINTY_ASSIGNED_CONTEXT((#1057))
GLOBAL_UNIT_ASSIGNED_CONTEXT((#1060,#1062,#1063))
REPRESENTATION_CONTEXT('','3D')
);
#1060=(
LENGTH_UNIT()
NAMED_UNIT(*)
SI_UNIT(.MILLI.,.METRE.)
);
#1061=(
LENGTH_UNIT()
NAMED_UNIT(*)
SI_UNIT($,.METRE.)
);
#1062=(
NAMED_UNIT(*)
PLANE_ANGLE_UNIT()
SI_UNIT($,.RADIAN.)
);
#1063=(
NAMED_UNIT(*)
SI_UNIT($,.STERADIAN.)
SOLID_ANGLE_UNIT()
);
#1064=SHAPE_DEFINITION_REPRESENTATION(#1065,#1066);
#1065=PRODUCT_DEFINITION_SHAPE('',$,#1068);
#1066=SHAPE_REPRESENTATION('',(#648),#1058);
#1067=PRODUCT_DEFINITION_CONTEXT('part definition',#1072,'design');
#1068=PRODUCT_DEFINITION('Base Triangle 2','Base Triangle 2',#1069,#1067);
#1069=PRODUCT_DEFINITION_FORMATION('',$,#1074);
#1070=PRODUCT_RELATED_PRODUCT_CATEGORY('Base Triangle 2',
'Base Triangle 2',(#1074));
#1071=APPLICATION_PROTOCOL_DEFINITION('international standard',
'automotive_design',2009,#1072);
#1072=APPLICATION_CONTEXT(
'Core Data for Automotive Mechanical Design Process');
#1073=PRODUCT_CONTEXT('part definition',#1072,'mechanical');
#1074=PRODUCT('Base Triangle 2','Base Triangle 2',$,(#1073));
#1075=PRESENTATION_STYLE_ASSIGNMENT((#1076));
#1076=SURFACE_STYLE_USAGE(.BOTH.,#1077);
#1077=SURFACE_SIDE_STYLE('',(#1078));
#1078=SURFACE_STYLE_FILL_AREA(#1079);
#1079=FILL_AREA_STYLE('Stal \X2\2014\X0\ satynowa',(#1080));
#1080=FILL_AREA_STYLE_COLOUR('Stal \X2\2014\X0\ satynowa',#1081);
#1081=COLOUR_RGB('Stal \X2\2014\X0\ satynowa',0.627450980392157,0.627450980392157,
0.627450980392157);
ENDSEC;
END-ISO-10303-21;
