ISO-10303-21;
HEADER;
/* Generated by software containing ST-Developer
 * from STEP Tools, Inc. (www.steptools.com) 
 */

FILE_DESCRIPTION(
/* description */ (''),
/* implementation_level */ '2;1');

FILE_NAME(
/* name */ 'Rounf Lamp v13.step',
/* time_stamp */ '2024-01-18T19:42:07+01:00',
/* author */ (''),
/* organization */ (''),
/* preprocessor_version */ 'ST-DEVELOPER v20',
/* originating_system */ 'Autodesk Translation Framework v12.14.0.127',

/* authorisation */ '');

FILE_SCHEMA (('AUTOMOTIVE_DESIGN { 1 0 10303 214 3 1 1 }'));
ENDSEC;

DATA;
#10=MECHANICAL_DESIGN_GEOMETRIC_PRESENTATION_REPRESENTATION('',(#17),#359);
#11=ITEM_DEFINED_TRANSFORMATION($,$,#203,#231);
#12=(
REPRESENTATION_RELATIONSHIP($,$,#370,#369)
REPRESENTATION_RELATIONSHIP_WITH_TRANSFORMATION(#11)
SHAPE_REPRESENTATION_RELATIONSHIP()
);
#13=CONTEXT_DEPENDENT_SHAPE_REPRESENTATION(#12,#368);
#14=NEXT_ASSEMBLY_USAGE_OCCURRENCE('CoverClean:1','CoverClean:1',
'CoverClean:1',#372,#373,'CoverClean:1');
#15=SHAPE_REPRESENTATION_RELATIONSHIP('SRR','None',#370,#16);
#16=ADVANCED_BREP_SHAPE_REPRESENTATION('',(#18),#358);
#17=STYLED_ITEM('',(#383),#18);
#18=MANIFOLD_SOLID_BREP('Bry\X2\0142\X0\a1',#189);
#19=FACE_BOUND('',#56,.T.);
#20=FACE_BOUND('',#60,.T.);
#21=FACE_BOUND('',#62,.T.);
#22=CIRCLE('',#211,98.85);
#23=CIRCLE('',#212,98.85);
#24=CIRCLE('',#213,98.85);
#25=CIRCLE('',#214,98.85);
#26=CIRCLE('',#216,99.95);
#27=CIRCLE('',#217,99.95);
#28=CIRCLE('',#219,99.95);
#29=CIRCLE('',#221,99.95);
#30=CIRCLE('',#223,101.);
#31=CIRCLE('',#225,92.);
#32=CIRCLE('',#226,92.);
#33=CIRCLE('',#228,101.);
#34=CYLINDRICAL_SURFACE('',#210,98.85);
#35=CYLINDRICAL_SURFACE('',#220,99.95);
#36=CYLINDRICAL_SURFACE('',#224,92.);
#37=CYLINDRICAL_SURFACE('',#227,101.);
#38=FACE_OUTER_BOUND('',#49,.T.);
#39=FACE_OUTER_BOUND('',#50,.T.);
#40=FACE_OUTER_BOUND('',#51,.T.);
#41=FACE_OUTER_BOUND('',#52,.T.);
#42=FACE_OUTER_BOUND('',#53,.T.);
#43=FACE_OUTER_BOUND('',#54,.T.);
#44=FACE_OUTER_BOUND('',#55,.T.);
#45=FACE_OUTER_BOUND('',#57,.T.);
#46=FACE_OUTER_BOUND('',#58,.T.);
#47=FACE_OUTER_BOUND('',#59,.T.);
#48=FACE_OUTER_BOUND('',#61,.T.);
#49=EDGE_LOOP('',(#123,#124,#125,#126));
#50=EDGE_LOOP('',(#127,#128,#129,#130));
#51=EDGE_LOOP('',(#131,#132,#133,#134,#135,#136,#137,#138));
#52=EDGE_LOOP('',(#139,#140,#141,#142,#143,#144));
#53=EDGE_LOOP('',(#145,#146,#147,#148));
#54=EDGE_LOOP('',(#149,#150,#151,#152,#153,#154,#155,#156));
#55=EDGE_LOOP('',(#157));
#56=EDGE_LOOP('',(#158));
#57=EDGE_LOOP('',(#159,#160,#161,#162));
#58=EDGE_LOOP('',(#163,#164,#165,#166));
#59=EDGE_LOOP('',(#167));
#60=EDGE_LOOP('',(#168));
#61=EDGE_LOOP('',(#169));
#62=EDGE_LOOP('',(#170));
#63=LINE('',#307,#71);
#64=LINE('',#310,#72);
#65=LINE('',#316,#73);
#66=LINE('',#319,#74);
#67=LINE('',#325,#75);
#68=LINE('',#336,#76);
#69=LINE('',#345,#77);
#70=LINE('',#350,#78);
#71=VECTOR('',#240,10.);
#72=VECTOR('',#243,10.);
#73=VECTOR('',#248,10.);
#74=VECTOR('',#251,10.);
#75=VECTOR('',#258,98.85);
#76=VECTOR('',#275,99.95);
#77=VECTOR('',#286,92.);
#78=VECTOR('',#293,101.);
#79=ELLIPSE('',#205,122.016420146707,99.95);
#80=ELLIPSE('',#206,120.67356809907,98.85);
#81=ELLIPSE('',#208,122.016420146707,99.95);
#82=ELLIPSE('',#209,120.67356809907,98.85);
#83=VERTEX_POINT('',#303);
#84=VERTEX_POINT('',#304);
#85=VERTEX_POINT('',#306);
#86=VERTEX_POINT('',#308);
#87=VERTEX_POINT('',#312);
#88=VERTEX_POINT('',#313);
#89=VERTEX_POINT('',#315);
#90=VERTEX_POINT('',#317);
#91=VERTEX_POINT('',#322);
#92=VERTEX_POINT('',#324);
#93=VERTEX_POINT('',#329);
#94=VERTEX_POINT('',#335);
#95=VERTEX_POINT('',#339);
#96=VERTEX_POINT('',#342);
#97=VERTEX_POINT('',#344);
#98=VERTEX_POINT('',#348);
#99=EDGE_CURVE('',#83,#84,#79,.T.);
#100=EDGE_CURVE('',#83,#85,#63,.T.);
#101=EDGE_CURVE('',#86,#85,#80,.T.);
#102=EDGE_CURVE('',#84,#86,#64,.T.);
#103=EDGE_CURVE('',#87,#88,#81,.T.);
#104=EDGE_CURVE('',#89,#87,#65,.T.);
#105=EDGE_CURVE('',#90,#89,#82,.T.);
#106=EDGE_CURVE('',#88,#90,#66,.T.);
#107=EDGE_CURVE('',#85,#90,#22,.T.);
#108=EDGE_CURVE('',#91,#89,#23,.T.);
#109=EDGE_CURVE('',#91,#92,#67,.T.);
#110=EDGE_CURVE('',#92,#92,#24,.T.);
#111=EDGE_CURVE('',#86,#91,#25,.T.);
#112=EDGE_CURVE('',#87,#93,#26,.T.);
#113=EDGE_CURVE('',#93,#84,#27,.T.);
#114=EDGE_CURVE('',#88,#83,#28,.T.);
#115=EDGE_CURVE('',#93,#94,#68,.T.);
#116=EDGE_CURVE('',#94,#94,#29,.T.);
#117=EDGE_CURVE('',#95,#95,#30,.T.);
#118=EDGE_CURVE('',#96,#96,#31,.T.);
#119=EDGE_CURVE('',#96,#97,#69,.T.);
#120=EDGE_CURVE('',#97,#97,#32,.T.);
#121=EDGE_CURVE('',#98,#98,#33,.T.);
#122=EDGE_CURVE('',#98,#95,#70,.T.);
#123=ORIENTED_EDGE('',*,*,#99,.F.);
#124=ORIENTED_EDGE('',*,*,#100,.T.);
#125=ORIENTED_EDGE('',*,*,#101,.F.);
#126=ORIENTED_EDGE('',*,*,#102,.F.);
#127=ORIENTED_EDGE('',*,*,#103,.F.);
#128=ORIENTED_EDGE('',*,*,#104,.F.);
#129=ORIENTED_EDGE('',*,*,#105,.F.);
#130=ORIENTED_EDGE('',*,*,#106,.F.);
#131=ORIENTED_EDGE('',*,*,#101,.T.);
#132=ORIENTED_EDGE('',*,*,#107,.T.);
#133=ORIENTED_EDGE('',*,*,#105,.T.);
#134=ORIENTED_EDGE('',*,*,#108,.F.);
#135=ORIENTED_EDGE('',*,*,#109,.T.);
#136=ORIENTED_EDGE('',*,*,#110,.F.);
#137=ORIENTED_EDGE('',*,*,#109,.F.);
#138=ORIENTED_EDGE('',*,*,#111,.F.);
#139=ORIENTED_EDGE('',*,*,#102,.T.);
#140=ORIENTED_EDGE('',*,*,#111,.T.);
#141=ORIENTED_EDGE('',*,*,#108,.T.);
#142=ORIENTED_EDGE('',*,*,#104,.T.);
#143=ORIENTED_EDGE('',*,*,#112,.T.);
#144=ORIENTED_EDGE('',*,*,#113,.T.);
#145=ORIENTED_EDGE('',*,*,#107,.F.);
#146=ORIENTED_EDGE('',*,*,#100,.F.);
#147=ORIENTED_EDGE('',*,*,#114,.F.);
#148=ORIENTED_EDGE('',*,*,#106,.T.);
#149=ORIENTED_EDGE('',*,*,#99,.T.);
#150=ORIENTED_EDGE('',*,*,#113,.F.);
#151=ORIENTED_EDGE('',*,*,#115,.T.);
#152=ORIENTED_EDGE('',*,*,#116,.F.);
#153=ORIENTED_EDGE('',*,*,#115,.F.);
#154=ORIENTED_EDGE('',*,*,#112,.F.);
#155=ORIENTED_EDGE('',*,*,#103,.T.);
#156=ORIENTED_EDGE('',*,*,#114,.T.);
#157=ORIENTED_EDGE('',*,*,#117,.F.);
#158=ORIENTED_EDGE('',*,*,#116,.T.);
#159=ORIENTED_EDGE('',*,*,#118,.F.);
#160=ORIENTED_EDGE('',*,*,#119,.T.);
#161=ORIENTED_EDGE('',*,*,#120,.T.);
#162=ORIENTED_EDGE('',*,*,#119,.F.);
#163=ORIENTED_EDGE('',*,*,#121,.F.);
#164=ORIENTED_EDGE('',*,*,#122,.T.);
#165=ORIENTED_EDGE('',*,*,#117,.T.);
#166=ORIENTED_EDGE('',*,*,#122,.F.);
#167=ORIENTED_EDGE('',*,*,#121,.T.);
#168=ORIENTED_EDGE('',*,*,#118,.T.);
#169=ORIENTED_EDGE('',*,*,#110,.T.);
#170=ORIENTED_EDGE('',*,*,#120,.F.);
#171=PLANE('',#204);
#172=PLANE('',#207);
#173=PLANE('',#215);
#174=PLANE('',#218);
#175=PLANE('',#222);
#176=PLANE('',#229);
#177=PLANE('',#230);
#178=ADVANCED_FACE('',(#38),#171,.F.);
#179=ADVANCED_FACE('',(#39),#172,.F.);
#180=ADVANCED_FACE('',(#40),#34,.F.);
#181=ADVANCED_FACE('',(#41),#173,.F.);
#182=ADVANCED_FACE('',(#42),#174,.F.);
#183=ADVANCED_FACE('',(#43),#35,.T.);
#184=ADVANCED_FACE('',(#44,#19),#175,.F.);
#185=ADVANCED_FACE('',(#45),#36,.F.);
#186=ADVANCED_FACE('',(#46),#37,.T.);
#187=ADVANCED_FACE('',(#47,#20),#176,.T.);
#188=ADVANCED_FACE('',(#48,#21),#177,.F.);
#189=CLOSED_SHELL('',(#178,#179,#180,#181,#182,#183,#184,#185,#186,#187,
#188));
#190=DERIVED_UNIT_ELEMENT(#192,1.);
#191=DERIVED_UNIT_ELEMENT(#361,-3.);
#192=(
MASS_UNIT()
NAMED_UNIT(*)
SI_UNIT(.KILO.,.GRAM.)
);
#193=DERIVED_UNIT((#190,#191));
#194=MEASURE_REPRESENTATION_ITEM('density measure',
POSITIVE_RATIO_MEASURE(7850.),#193);
#195=PROPERTY_DEFINITION_REPRESENTATION(#200,#197);
#196=PROPERTY_DEFINITION_REPRESENTATION(#201,#198);
#197=REPRESENTATION('material name',(#199),#358);
#198=REPRESENTATION('density',(#194),#358);
#199=DESCRIPTIVE_REPRESENTATION_ITEM('Stal','Stal');
#200=PROPERTY_DEFINITION('material property','material name',#373);
#201=PROPERTY_DEFINITION('material property','density of part',#373);
#202=AXIS2_PLACEMENT_3D('',#300,#232,#233);
#203=AXIS2_PLACEMENT_3D('',#301,#234,#235);
#204=AXIS2_PLACEMENT_3D('',#302,#236,#237);
#205=AXIS2_PLACEMENT_3D('',#305,#238,#239);
#206=AXIS2_PLACEMENT_3D('',#309,#241,#242);
#207=AXIS2_PLACEMENT_3D('',#311,#244,#245);
#208=AXIS2_PLACEMENT_3D('',#314,#246,#247);
#209=AXIS2_PLACEMENT_3D('',#318,#249,#250);
#210=AXIS2_PLACEMENT_3D('',#320,#252,#253);
#211=AXIS2_PLACEMENT_3D('',#321,#254,#255);
#212=AXIS2_PLACEMENT_3D('',#323,#256,#257);
#213=AXIS2_PLACEMENT_3D('',#326,#259,#260);
#214=AXIS2_PLACEMENT_3D('',#327,#261,#262);
#215=AXIS2_PLACEMENT_3D('',#328,#263,#264);
#216=AXIS2_PLACEMENT_3D('',#330,#265,#266);
#217=AXIS2_PLACEMENT_3D('',#331,#267,#268);
#218=AXIS2_PLACEMENT_3D('',#332,#269,#270);
#219=AXIS2_PLACEMENT_3D('',#333,#271,#272);
#220=AXIS2_PLACEMENT_3D('',#334,#273,#274);
#221=AXIS2_PLACEMENT_3D('',#337,#276,#277);
#222=AXIS2_PLACEMENT_3D('',#338,#278,#279);
#223=AXIS2_PLACEMENT_3D('',#340,#280,#281);
#224=AXIS2_PLACEMENT_3D('',#341,#282,#283);
#225=AXIS2_PLACEMENT_3D('',#343,#284,#285);
#226=AXIS2_PLACEMENT_3D('',#346,#287,#288);
#227=AXIS2_PLACEMENT_3D('',#347,#289,#290);
#228=AXIS2_PLACEMENT_3D('',#349,#291,#292);
#229=AXIS2_PLACEMENT_3D('',#351,#294,#295);
#230=AXIS2_PLACEMENT_3D('',#352,#296,#297);
#231=AXIS2_PLACEMENT_3D('',#353,#298,#299);
#232=DIRECTION('axis',(0.,0.,1.));
#233=DIRECTION('refdir',(1.,0.,0.));
#234=DIRECTION('axis',(0.,0.,1.));
#235=DIRECTION('refdir',(1.,0.,0.));
#236=DIRECTION('center_axis',(0.573576436351046,0.,0.819152044288992));
#237=DIRECTION('ref_axis',(0.819152044288992,0.,-0.573576436351046));
#238=DIRECTION('center_axis',(0.573576436351046,0.,0.819152044288992));
#239=DIRECTION('ref_axis',(0.819152044288992,0.,-0.573576436351046));
#240=DIRECTION('',(0.,1.,0.));
#241=DIRECTION('center_axis',(-0.573576436351046,0.,-0.819152044288992));
#242=DIRECTION('ref_axis',(0.819152044288992,0.,-0.573576436351046));
#243=DIRECTION('',(0.,1.,0.));
#244=DIRECTION('center_axis',(-0.573576436351046,0.,0.819152044288992));
#245=DIRECTION('ref_axis',(0.819152044288992,0.,0.573576436351046));
#246=DIRECTION('center_axis',(-0.573576436351046,0.,0.819152044288992));
#247=DIRECTION('ref_axis',(0.819152044288992,0.,0.573576436351046));
#248=DIRECTION('',(0.,-1.,0.));
#249=DIRECTION('center_axis',(0.573576436351046,0.,-0.819152044288992));
#250=DIRECTION('ref_axis',(0.819152044288992,0.,0.573576436351046));
#251=DIRECTION('',(0.,1.,0.));
#252=DIRECTION('center_axis',(0.,0.,-1.));
#253=DIRECTION('ref_axis',(1.,0.,0.));
#254=DIRECTION('center_axis',(0.,0.,-1.));
#255=DIRECTION('ref_axis',(1.,0.,0.));
#256=DIRECTION('center_axis',(0.,0.,1.));
#257=DIRECTION('ref_axis',(1.,0.,0.));
#258=DIRECTION('',(0.,0.,1.));
#259=DIRECTION('center_axis',(0.,0.,-1.));
#260=DIRECTION('ref_axis',(1.,0.,0.));
#261=DIRECTION('center_axis',(0.,0.,1.));
#262=DIRECTION('ref_axis',(1.,0.,0.));
#263=DIRECTION('center_axis',(0.,0.,1.));
#264=DIRECTION('ref_axis',(1.,0.,0.));
#265=DIRECTION('center_axis',(0.,0.,-1.));
#266=DIRECTION('ref_axis',(1.,0.,0.));
#267=DIRECTION('center_axis',(0.,0.,-1.));
#268=DIRECTION('ref_axis',(1.,0.,0.));
#269=DIRECTION('center_axis',(0.,0.,1.));
#270=DIRECTION('ref_axis',(1.,-1.64477485129653E-16,0.));
#271=DIRECTION('center_axis',(0.,0.,1.));
#272=DIRECTION('ref_axis',(1.,0.,0.));
#273=DIRECTION('center_axis',(0.,0.,-1.));
#274=DIRECTION('ref_axis',(1.,0.,0.));
#275=DIRECTION('',(0.,0.,1.));
#276=DIRECTION('center_axis',(0.,0.,1.));
#277=DIRECTION('ref_axis',(1.,0.,0.));
#278=DIRECTION('center_axis',(0.,0.,1.));
#279=DIRECTION('ref_axis',(1.,0.,0.));
#280=DIRECTION('center_axis',(0.,0.,1.));
#281=DIRECTION('ref_axis',(1.,0.,0.));
#282=DIRECTION('center_axis',(0.,0.,1.));
#283=DIRECTION('ref_axis',(1.,0.,0.));
#284=DIRECTION('center_axis',(0.,0.,-1.));
#285=DIRECTION('ref_axis',(1.,0.,0.));
#286=DIRECTION('',(0.,0.,-1.));
#287=DIRECTION('center_axis',(0.,0.,-1.));
#288=DIRECTION('ref_axis',(1.,0.,0.));
#289=DIRECTION('center_axis',(0.,0.,1.));
#290=DIRECTION('ref_axis',(1.,0.,0.));
#291=DIRECTION('center_axis',(0.,0.,1.));
#292=DIRECTION('ref_axis',(1.,0.,0.));
#293=DIRECTION('',(0.,0.,-1.));
#294=DIRECTION('center_axis',(0.,0.,1.));
#295=DIRECTION('ref_axis',(1.,0.,0.));
#296=DIRECTION('center_axis',(0.,0.,1.));
#297=DIRECTION('ref_axis',(1.,0.,0.));
#298=DIRECTION('',(0.,0.,1.));
#299=DIRECTION('',(1.,0.,0.));
#300=CARTESIAN_POINT('',(0.,0.,0.));
#301=CARTESIAN_POINT('',(0.,0.,0.));
#302=CARTESIAN_POINT('Origin',(5.00000007450581,0.,10.));
#303=CARTESIAN_POINT('',(5.00000007450581,1.17514087535641,10.));
#304=CARTESIAN_POINT('',(9.28444409473215,1.48215437494747,7.));
#305=CARTESIAN_POINT('Origin',(0.,101.,13.5010377432181));
#306=CARTESIAN_POINT('',(5.00000007450581,2.27653521449453,10.));
#307=CARTESIAN_POINT('',(5.00000007450581,0.,10.));
#308=CARTESIAN_POINT('',(9.28444409473215,2.58698461152717,7.));
#309=CARTESIAN_POINT('Origin',(0.,101.,13.5010377432181));
#310=CARTESIAN_POINT('',(9.28444409473215,50.5,7.));
#311=CARTESIAN_POINT('Origin',(-9.28444430754279,0.,7.));
#312=CARTESIAN_POINT('',(-9.28444430754279,1.48215439480147,7.));
#313=CARTESIAN_POINT('',(-5.00000007450581,1.17514087535641,10.0000001490116));
#314=CARTESIAN_POINT('Origin',(0.,101.,13.5010378922297));
#315=CARTESIAN_POINT('',(-9.28444430754279,2.58698463160407,7.));
#316=CARTESIAN_POINT('',(-9.28444430754279,50.5,7.));
#317=CARTESIAN_POINT('',(-5.00000007450581,2.27653521449453,10.0000001490116));
#318=CARTESIAN_POINT('Origin',(0.,101.,13.5010378922297));
#319=CARTESIAN_POINT('',(-5.00000007450581,0.,10.0000001490116));
#320=CARTESIAN_POINT('Origin',(0.,101.,11.));
#321=CARTESIAN_POINT('Origin',(0.,101.,10.));
#322=CARTESIAN_POINT('',(-98.85,101.,6.99999999999999));
#323=CARTESIAN_POINT('Origin',(0.,101.,7.));
#324=CARTESIAN_POINT('',(-98.85,101.,11.));
#325=CARTESIAN_POINT('',(-98.85,101.,11.));
#326=CARTESIAN_POINT('Origin',(0.,101.,11.));
#327=CARTESIAN_POINT('Origin',(0.,101.,7.));
#328=CARTESIAN_POINT('Origin',(0.,101.,7.));
#329=CARTESIAN_POINT('',(-99.95,101.,7.));
#330=CARTESIAN_POINT('Origin',(0.,101.,7.));
#331=CARTESIAN_POINT('Origin',(0.,101.,7.));
#332=CARTESIAN_POINT('Origin',(-2.00000002980232,-7.99999999999999,10.));
#333=CARTESIAN_POINT('Origin',(0.,101.,10.));
#334=CARTESIAN_POINT('Origin',(0.,101.,11.));
#335=CARTESIAN_POINT('',(-99.95,101.,11.));
#336=CARTESIAN_POINT('',(-99.95,101.,11.));
#337=CARTESIAN_POINT('Origin',(0.,101.,11.));
#338=CARTESIAN_POINT('Origin',(0.,101.,11.));
#339=CARTESIAN_POINT('',(-101.,101.,11.));
#340=CARTESIAN_POINT('Origin',(0.,101.,11.));
#341=CARTESIAN_POINT('Origin',(0.,101.,11.));
#342=CARTESIAN_POINT('',(-92.,101.,12.));
#343=CARTESIAN_POINT('Origin',(0.,101.,12.));
#344=CARTESIAN_POINT('',(-92.,101.,11.));
#345=CARTESIAN_POINT('',(-92.,101.,11.));
#346=CARTESIAN_POINT('Origin',(0.,101.,11.));
#347=CARTESIAN_POINT('Origin',(0.,101.,11.));
#348=CARTESIAN_POINT('',(-101.,101.,12.));
#349=CARTESIAN_POINT('Origin',(0.,101.,12.));
#350=CARTESIAN_POINT('',(-101.,101.,11.));
#351=CARTESIAN_POINT('Origin',(0.,101.,12.));
#352=CARTESIAN_POINT('Origin',(0.,101.,11.));
#353=CARTESIAN_POINT('',(0.,0.,0.));
#354=UNCERTAINTY_MEASURE_WITH_UNIT(LENGTH_MEASURE(0.01),#360,
'DISTANCE_ACCURACY_VALUE',
'Maximum model space distance between geometric entities at asserted c
onnectivities');
#355=UNCERTAINTY_MEASURE_WITH_UNIT(LENGTH_MEASURE(0.01),#360,
'DISTANCE_ACCURACY_VALUE',
'Maximum model space distance between geometric entities at asserted c
onnectivities');
#356=UNCERTAINTY_MEASURE_WITH_UNIT(LENGTH_MEASURE(0.01),#360,
'DISTANCE_ACCURACY_VALUE',
'Maximum model space distance between geometric entities at asserted c
onnectivities');
#357=(
GEOMETRIC_REPRESENTATION_CONTEXT(3)
GLOBAL_UNCERTAINTY_ASSIGNED_CONTEXT((#354))
GLOBAL_UNIT_ASSIGNED_CONTEXT((#360,#362,#363))
REPRESENTATION_CONTEXT('','3D')
);
#358=(
GEOMETRIC_REPRESENTATION_CONTEXT(3)
GLOBAL_UNCERTAINTY_ASSIGNED_CONTEXT((#355))
GLOBAL_UNIT_ASSIGNED_CONTEXT((#360,#362,#363))
REPRESENTATION_CONTEXT('','3D')
);
#359=(
GEOMETRIC_REPRESENTATION_CONTEXT(3)
GLOBAL_UNCERTAINTY_ASSIGNED_CONTEXT((#356))
GLOBAL_UNIT_ASSIGNED_CONTEXT((#360,#362,#363))
REPRESENTATION_CONTEXT('','3D')
);
#360=(
LENGTH_UNIT()
NAMED_UNIT(*)
SI_UNIT(.MILLI.,.METRE.)
);
#361=(
LENGTH_UNIT()
NAMED_UNIT(*)
SI_UNIT($,.METRE.)
);
#362=(
NAMED_UNIT(*)
PLANE_ANGLE_UNIT()
SI_UNIT($,.RADIAN.)
);
#363=(
NAMED_UNIT(*)
SI_UNIT($,.STERADIAN.)
SOLID_ANGLE_UNIT()
);
#364=SHAPE_DEFINITION_REPRESENTATION(#366,#369);
#365=SHAPE_DEFINITION_REPRESENTATION(#367,#370);
#366=PRODUCT_DEFINITION_SHAPE('',$,#372);
#367=PRODUCT_DEFINITION_SHAPE('',$,#373);
#368=PRODUCT_DEFINITION_SHAPE($,$,#14);
#369=SHAPE_REPRESENTATION('',(#202,#231),#357);
#370=SHAPE_REPRESENTATION('',(#203),#358);
#371=PRODUCT_DEFINITION_CONTEXT('part definition',#379,'design');
#372=PRODUCT_DEFINITION('Rounf Lamp','Rounf Lamp v13',#374,#371);
#373=PRODUCT_DEFINITION('CoverClean','CoverClean',#375,#371);
#374=PRODUCT_DEFINITION_FORMATION('',$,#381);
#375=PRODUCT_DEFINITION_FORMATION('',$,#382);
#376=PRODUCT_RELATED_PRODUCT_CATEGORY('Rounf Lamp v13','Rounf Lamp v13',
(#381));
#377=PRODUCT_RELATED_PRODUCT_CATEGORY('CoverClean','CoverClean',(#382));
#378=APPLICATION_PROTOCOL_DEFINITION('international standard',
'automotive_design',2009,#379);
#379=APPLICATION_CONTEXT(
'Core Data for Automotive Mechanical Design Process');
#380=PRODUCT_CONTEXT('part definition',#379,'mechanical');
#381=PRODUCT('Rounf Lamp','Rounf Lamp v13',$,(#380));
#382=PRODUCT('CoverClean','CoverClean',$,(#380));
#383=PRESENTATION_STYLE_ASSIGNMENT((#384));
#384=SURFACE_STYLE_USAGE(.BOTH.,#385);
#385=SURFACE_SIDE_STYLE('',(#386));
#386=SURFACE_STYLE_FILL_AREA(#387);
#387=FILL_AREA_STYLE('Stal \X2\2014\X0\ satynowa',(#388));
#388=FILL_AREA_STYLE_COLOUR('Stal \X2\2014\X0\ satynowa',#389);
#389=COLOUR_RGB('Stal \X2\2014\X0\ satynowa',0.627450980392157,0.627450980392157,
0.627450980392157);
ENDSEC;
END-ISO-10303-21;
