0
SECTION
2
HEADER
9
$INSUNITS
70
4
9
$ACADVER
1
AC1014
9
$HANDSEED
5
FFFF
0
ENDSEC
0
SECTION
2
TABLES
0
TABLE
2
VPORT
5
8
100
AcDbSymbolTable
0
ENDTAB
0
TABLE
2
LTYPE
5
5
100
AcDbSymbolTable
0
LTYPE
5
14
100
AcDbSymbolTableRecord
100
AcDbLinetypeTableRecord
2
BYBLOCK
70
0
0
LTYPE
5
15
100
AcDbSymbolTableRecord
100
AcDbLinetypeTableRecord
2
BYLAYER
70
0
0
ENDTAB
0
TABLE
2
LAYER
5
2
100
AcDbSymbolTable
70
2
0
LAYER
5
50
100
AcDbSymbolTableRecord
100
AcDbLayerTableRecord
2
0
70
0
6
CONTINUOUS
0
ENDTAB
0
TABLE
2
STYLE
5
3
100
AcDbSymbolTable
70
1
0
STYLE
5
11
100
AcDbSymbolTableRecord
100
AcDbTextStyleTableRecord
2
STANDARD
70
0
0
ENDTAB
0
TABLE
2
VIEW
5
6
100
AcDbSymbolTable
70
0
0
ENDTAB
0
TABLE
2
UCS
5
7
100
AcDbSymbolTable
70
0
0
ENDTAB
0
TABLE
2
APPID
5
9
100
AcDbSymbolTable
70
2
0
APPID
5
12
100
AcDbSymbolTableRecord
100
AcDbRegAppTableRecord
2
ACAD
70
0
0
ENDTAB
0
TABLE
2
DIMSTYLE
5
A
100
AcDbSymbolTable
70
1
0
ENDTAB
0
TABLE
2
BLOCK_RECORD
5
1
100
AcDbSymbolTable
70
1
0
BLOCK_RECORD
5
1F
100
AcDbSymbolTableRecord
100
AcDbBlockTableRecord
2
*MODEL_SPACE
0
BLOCK_RECORD
5
1B
100
AcDbSymbolTableRecord
100
AcDbBlockTableRecord
2
*PAPER_SPACE
0
ENDTAB
0
ENDSEC
0
SECTION
2
BLOCKS
0
BLOCK
5
20
100
AcDbEntity
100
AcDbBlockBegin
2
*MODEL_SPACE
0
ENDBLK
5
21
100
AcDbEntity
100
AcDbBlockEnd
0
BLOCK
5
1C
100
AcDbEntity
100
AcDbBlockBegin
2
*PAPER_SPACE
0
ENDBLK
5
1D
100
AcDbEntity
100
AcDbBlockEnd
0
ENDSEC
0
SECTION
2
ENTITIES
0
SPLINE
5
100
100
AcDbEntity
8
0
100
AcDbSpline
70
4
71
5
72
251
73
245
74
0
42
0.000000001
43
0.0000000001
44
0.0000000001
40
0
40
0
40
0
40
0
40
0
40
0
40
0.0041666666666666666
40
0.0083333333333333332
40
0.012500000000000001
40
0.016666666666666666
40
0.020833333333333332
40
0.024999999999999998
40
0.029166666666666664
40
0.033333333333333333
40
0.037499999999999999
40
0.041666666666666664
40
0.04583333333333333
40
0.049999999999999996
40
0.054166666666666662
40
0.058333333333333327
40
0.062499999999999993
40
0.066666666666666666
40
0.070833333333333331
40
0.074999999999999997
40
0.079166666666666663
40
0.083333333333333329
40
0.087499999999999994
40
0.09166666666666666
40
0.095833333333333326
40
0.099999999999999992
40
0.10416666666666666
40
0.10833333333333332
40
0.11249999999999999
40
0.11666666666666665
40
0.12083333333333332
40
0.12499999999999999
40
0.12916666666666665
40
0.13333333333333333
40
0.13750000000000001
40
0.14166666666666669
40
0.14583333333333337
40
0.15000000000000005
40
0.15416666666666673
40
0.15833333333333341
40
0.16250000000000009
40
0.16666666666666677
40
0.17083333333333345
40
0.17500000000000013
40
0.17916666666666681
40
0.18333333333333349
40
0.18750000000000017
40
0.19166666666666685
40
0.19583333333333353
40
0.20000000000000021
40
0.20416666666666689
40
0.20833333333333356
40
0.21250000000000024
40
0.21666666666666692
40
0.2208333333333336
40
0.22500000000000028
40
0.22916666666666696
40
0.23333333333333364
40
0.23750000000000032
40
0.241666666666667
40
0.24583333333333368
40
0.25000000000000033
40
0.25416666666666698
40
0.25833333333333364
40
0.26250000000000029
40
0.26666666666666694
40
0.27083333333333359
40
0.27500000000000024
40
0.2791666666666669
40
0.28333333333333355
40
0.2875000000000002
40
0.29166666666666685
40
0.2958333333333335
40
0.30000000000000016
40
0.30416666666666681
40
0.30833333333333346
40
0.31250000000000011
40
0.31666666666666676
40
0.32083333333333341
40
0.32500000000000007
40
0.32916666666666672
40
0.33333333333333337
40
0.33750000000000002
40
0.34166666666666667
40
0.34583333333333333
40
0.34999999999999998
40
0.35416666666666663
40
0.35833333333333328
40
0.36249999999999993
40
0.36666666666666659
40
0.37083333333333324
40
0.37499999999999989
40
0.37916666666666654
40
0.38333333333333319
40
0.38749999999999984
40
0.3916666666666665
40
0.39583333333333315
40
0.3999999999999998
40
0.40416666666666645
40
0.4083333333333331
40
0.41249999999999976
40
0.41666666666666641
40
0.42083333333333306
40
0.42499999999999971
40
0.42916666666666636
40
0.43333333333333302
40
0.43749999999999967
40
0.44166666666666632
40
0.44583333333333297
40
0.44999999999999962
40
0.45416666666666627
40
0.45833333333333293
40
0.46249999999999958
40
0.46666666666666623
40
0.47083333333333288
40
0.47499999999999953
40
0.47916666666666619
40
0.48333333333333284
40
0.48749999999999949
40
0.49166666666666614
40
0.49583333333333279
40
0.49999999999999944
40
0.5041666666666661
40
0.50833333333333275
40
0.5124999999999994
40
0.51666666666666605
40
0.5208333333333327
40
0.52499999999999936
40
0.52916666666666601
40
0.53333333333333266
40
0.53749999999999931
40
0.54166666666666596
40
0.54583333333333262
40
0.54999999999999927
40
0.55416666666666592
40
0.55833333333333257
40
0.56249999999999922
40
0.56666666666666587
40
0.57083333333333253
40
0.57499999999999918
40
0.57916666666666583
40
0.58333333333333248
40
0.58749999999999913
40
0.59166666666666579
40
0.59583333333333244
40
0.59999999999999909
40
0.60416666666666574
40
0.60833333333333239
40
0.61249999999999905
40
0.6166666666666657
40
0.62083333333333235
40
0.624999999999999
40
0.62916666666666565
40
0.6333333333333323
40
0.63749999999999896
40
0.64166666666666561
40
0.64583333333333226
40
0.64999999999999891
40
0.65416666666666556
40
0.65833333333333222
40
0.66249999999999887
40
0.66666666666666552
40
0.67083333333333217
40
0.67499999999999882
40
0.67916666666666548
40
0.68333333333333213
40
0.68749999999999878
40
0.69166666666666543
40
0.69583333333333208
40
0.69999999999999873
40
0.70416666666666539
40
0.70833333333333204
40
0.71249999999999869
40
0.71666666666666534
40
0.72083333333333199
40
0.72499999999999865
40
0.7291666666666653
40
0.73333333333333195
40
0.7374999999999986
40
0.74166666666666525
40
0.7458333333333319
40
0.74999999999999856
40
0.75416666666666521
40
0.75833333333333186
40
0.76249999999999851
40
0.76666666666666516
40
0.77083333333333182
40
0.77499999999999847
40
0.77916666666666512
40
0.78333333333333177
40
0.78749999999999842
40
0.79166666666666508
40
0.79583333333333173
40
0.79999999999999838
40
0.80416666666666503
40
0.80833333333333168
40
0.81249999999999833
40
0.81666666666666499
40
0.82083333333333164
40
0.82499999999999829
40
0.82916666666666494
40
0.83333333333333159
40
0.83749999999999825
40
0.8416666666666649
40
0.84583333333333155
40
0.8499999999999982
40
0.85416666666666485
40
0.85833333333333151
40
0.86249999999999816
40
0.86666666666666481
40
0.87083333333333146
40
0.87499999999999811
40
0.87916666666666476
40
0.88333333333333142
40
0.88749999999999807
40
0.89166666666666472
40
0.89583333333333137
40
0.89999999999999802
40
0.90416666666666468
40
0.90833333333333133
40
0.91249999999999798
40
0.91666666666666463
40
0.92083333333333128
40
0.92499999999999793
40
0.92916666666666459
40
0.93333333333333124
40
0.93749999999999789
40
0.94166666666666454
40
0.94583333333333119
40
0.94999999999999785
40
0.9541666666666645
40
0.95833333333333115
40
0.9624999999999978
40
0.96666666666666445
40
0.97083333333333111
40
0.97499999999999776
40
0.97916666666666441
40
0.98333333333333106
40
0.98749999999999771
40
0.99166666666666436
40
0.99583333333333102
40
1
40
1
40
1
40
1
40
1
40
1
41
1
41
1
41
1
41
1
41
1
41
1
41
1
41
1
41
1
41
1
41
1
41
1
41
1
41
1
41
1
41
1
41
1
41
1
41
1
41
1
41
1
41
1
41
1
41
1
41
1
41
1
41
1
41
1
41
1
41
1
41
1
41
1
41
1
41
1
41
1
41
1
41
1
41
1
41
1
41
1
41
1
41
1
41
1
41
1
41
1
41
1
41
1
41
1
41
1
41
1
41
1
41
1
41
1
41
1
41
1
41
1
41
1
41
1
41
1
41
1
41
1
41
1
41
1
41
1
41
1
41
1
41
1
41
1
41
1
41
1
41
1
41
1
41
1
41
1
41
1
41
1
41
1
41
1
41
1
41
1
41
1
41
1
41
1
41
1
41
1
41
1
41
1
41
1
41
1
41
1
41
1
41
1
41
1
41
1
41
1
41
1
41
1
41
1
41
1
41
1
41
1
41
1
41
1
41
1
41
1
41
1
41
1
41
1
41
1
41
1
41
1
41
1
41
1
41
1
41
1
41
1
41
1
41
1
41
1
41
1
41
1
41
1
41
1
41
1
41
1
41
1
41
1
41
1
41
1
41
1
41
1
41
1
41
1
41
1
41
1
41
1
41
1
41
1
41
1
41
1
41
1
41
1
41
1
41
1
41
1
41
1
41
1
41
1
41
1
41
1
41
1
41
1
41
1
41
1
41
1
41
1
41
1
41
1
41
1
41
1
41
1
41
1
41
1
41
1
41
1
41
1
41
1
41
1
41
1
41
1
41
1
41
1
41
1
41
1
41
1
41
1
41
1
41
1
41
1
41
1
41
1
41
1
41
1
41
1
41
1
41
1
41
1
41
1
41
1
41
1
41
1
41
1
41
1
41
1
41
1
41
1
41
1
41
1
41
1
41
1
41
1
41
1
41
1
41
1
41
1
41
1
41
1
41
1
41
1
41
1
41
1
41
1
41
1
41
1
41
1
41
1
41
1
41
1
41
1
41
1
41
1
41
1
41
1
41
1
41
1
41
1
41
1
41
1
41
1
41
1
41
1
41
1
41
1
41
1
41
1
41
1
41
1
41
1
41
1
41
1
41
1
41
1
41
1
41
1
41
1
10
17.485260207768743
20
54.645446937257177
30
0
10
17.414346237654463
20
54.643868367889539
30
0
10
17.272919003735918
20
54.642251356746847
30
0
10
17.061980282659125
20
54.644446190694751
30
0
10
16.783132887834412
20
54.656613876889764
30
0
10
16.438601745836529
20
54.687128850978375
30
0
10
16.09815941018676
20
54.732661652259111
30
0
10
15.761929870625028
20
54.792626104714309
30
0
10
15.43011270097451
20
54.866063058507223
30
0
10
15.103023900732612
20
54.951481473736393
30
0
10
14.780952805531339
20
55.047254011938506
30
0
10
14.46398674996512
20
55.152123259116252
30
0
10
14.151823858500405
20
55.265715043567141
30
0
10
13.843642253181446
20
55.388947966042402
30
0
10
13.537813796018682
20
55.524744987896668
30
0
10
13.232478280520485
20
55.677049897797879
30
0
10
12.926370667429271
20
55.849327602806071
30
0
10
12.619642444022055
20
56.043111012677699
30
0
10
12.314512332194436
20
56.256804645395988
30
0
10
12.016416052635059
20
56.483698820604658
30
0
10
11.733256759753594
20
56.713010544681808
30
0
10
11.472923571850728
20
56.933686795892996
30
0
10
11.241135483390416
20
57.137690540834434
30
0
10
11.039478043391679
20
57.322974291643511
30
0
10
10.862568189150466
20
57.497857152366159
30
0
10
10.698390709922982
20
57.680286719792619
30
0
10
10.534359180901433
20
57.887752196590576
30
0
10
10.36149290608105
20
58.130407795487386
30
0
10
10.180598487210265
20
58.400570527770569
30
0
10
10.003445646795308
20
58.671533778813576
30
0
10
9.8448392766414408
20
58.913424959807173
30
0
10
9.7165728428033979
20
59.105560117590059
30
0
10
9.6207722397798712
20
59.249880359103699
30
0
10
9.5430951571923792
20
59.384838095053581
30
0
10
9.4649922847668311
20
59.555323609771584
30
0
10
9.3774009385570878
20
59.77916624496747
30
0
10
9.2921137509165916
20
60.019404400931144
30
0
10
9.2266861334771768
20
60.222349345638825
30
0
10
9.1933267763898296
20
60.345954086047307
30
0
10
9.1818824659687479
20
60.402317539194712
30
0
10
9.1669787732677932
20
60.442566056400977
30
0
10
9.1204347064784574
20
60.528888463111407
30
0
10
9.044779325580862
20
60.655703491165895
30
0
10
8.9707679514687477
20
60.75355823411482
30
0
10
8.9060035214192546
20
60.80412704415464
30
0
10
8.8261878288572682
20
60.861639978003971
30
0
10
8.728631452831678
20
60.945432274416575
30
0
10
8.6315026242365036
20
61.034676527227028
30
0
10
8.5387949195559223
20
61.119796822996683
30
0
10
8.4371698876808985
20
61.210794685739543
30
0
10
8.31659619500304
20
61.31996712592229
30
0
10
8.179642371551811
20
61.452994666806909
30
0
10
8.0353636442055709
20
61.607545127039074
30
0
10
7.8948912161811791
20
61.768875208881447
30
0
10
7.7676667095277718
20
61.913452796483448
30
0
10
7.6602212069300091
20
62.022686414139429
30
0
10
7.5746019951210197
20
62.097974853215646
30
0
10
7.5055202012554068
20
62.163419310320577
30
0
10
7.4286520566618197
20
62.23558743390263
30
0
10
7.3001959224924207
20
62.311060837793164
30
0
10
7.0829899587890344
20
62.380121340220697
30
0
10
6.7641706206955954
20
62.43466336229487
30
0
10
6.3487208316098531
20
62.467954829475794
30
0
10
5.8548349787970411
20
62.474675654268296
30
0
10
5.3086709345601779
20
62.450881716284734
30
0
10
4.7392573381071701
20
62.394002279820299
30
0
10
4.173580864172064
20
62.302815782041179
30
0
10
3.6309488364015996
20
62.177454784916051
30
0
10
3.1233796171764983
20
62.019224475877365
30
0
10
2.6571867788736414
20
61.830386058091804
30
0
10
2.2341560269082272
20
61.613952359776114
30
0
10
1.8528753526458441
20
61.373478356747306
30
0
10
1.5100390071999437
20
61.11285408616483
30
0
10
1.201668740325319
20
60.836096272096285
30
0
10
0.9246044633061512
20
60.547141306020187
30
0
10
0.67686521107698461
20
60.249634105146839
30
0
10
0.45714227323970125
20
59.946713257504669
30
0
10
0.26454601862388571
20
59.640798353837482
30
0
10
0.098244631174968511
20
59.33337378130701
30
0
10
-0.042842096521762407
20
59.024779925013561
30
0
10
-0.16039623076786746
20
58.713984753848379
30
0
10
-0.25657019321734698
20
58.398695078432837
30
0
10
-0.33382648889148214
20
58.075494562358415
30
0
10
-0.39478587497590922
20
57.739965899266359
30
0
10
-0.44207603275184137
20
57.386833314690989
30
0
10
-0.47816933179506638
20
57.010059641482968
30
0
10
-0.50535234022690556
20
56.603400849477019
30
0
10
-0.52571291788177099
20
56.161022252386019
30
0
10
-0.5411211835972729
20
55.678088678169964
30
0
10
-0.55321269997341993
20
55.151375224312361
30
0
10
-0.56337146527779325
20
54.579847281793512
30
0
10
-0.57271108165839912
20
53.965306628219267
30
0
10
-0.58206217750993439
20
53.312855261340069
30
0
10
-0.59200703500873253
20
52.630038836385623
30
0
10
-0.60290942637833744
20
51.926122857337759
30
0
10
-0.61494627283802394
20
51.211317718230667
30
0
10
-0.62813848691248619
20
50.496026570054646
30
0
10
-0.64238218642187483
20
49.790081277826417
30
0
10
-0.65747963790216968
20
49.101988445218758
30
0
10
-0.67317052283196954
20
48.438159399105139
30
0
10
-0.6891625463772133
20
47.80217380171068
30
0
10
-0.70516354002130299
20
47.193964187040706
30
0
10
-0.72090935147214985
20
46.609222767737535
30
0
10
-0.73616195513054983
20
46.04038166084618
30
0
10
-0.75071060838566961
20
45.47743236105633
30
0
10
-0.76437183930140762
20
44.908805980879151
30
0
10
-0.77698993811241124
20
44.322228981984082
30
0
10
-0.78843722762184765
20
43.705585713754083
30
0
10
-0.79861445040919854
20
43.047786408508095
30
0
10
-0.80745106690464752
20
42.339613363863009
30
0
10
-0.81490569629803833
20
41.574623339705226
30
0
10
-0.82096620467582593
20
40.749889829073531
30
0
10
-0.82564712235646986
20
39.865508911166089
30
0
10
-0.82898731953561455
20
38.924224334267642
30
0
10
-0.83104758595514916
20
37.931007208573874
30
0
10
-0.83190825419433789
20
36.892655283298197
30
0
10
-0.8316668067252575
20
35.817384055864999
30
0
10
-0.830435492195849
20
34.714421551669709
30
0
10
-0.82833893966697048
20
33.593601745035727
30
0
10
-0.82551177539942788
20
32.464958464891602
30
0
10
-0.82209623983170665
20
31.338319573902748
30
0
10
-0.8182398056647866
20
30.222899993780985
30
0
10
-0.81409279590611394
20
29.12689755205583
30
0
10
-0.8098060031330423
20
28.057081966530255
30
0
10
-0.8055283066621266
20
27.018399522547977
30
0
10
-0.80140429461275087
20
26.013540035189369
30
0
10
-0.79757187136348495
20
25.042609723905656
30
0
10
-0.79415975707807007
20
24.103605168941531
30
0
10
-0.79128499681823783
20
23.192808971436961
30
0
10
-0.78905046484708752
20
22.305215252012573
30
0
10
-0.78754236892858653
20
21.434942242368269
30
0
10
-0.78682775359323553
20
20.57565040710811
30
0
10
-0.78695199942615091
20
19.720957875513978
30
0
10
-0.78793632648874734
20
18.864857561850748
30
0
10
-0.78977528146939591
20
18.002132308210296
30
0
10
-0.79243425561181358
20
17.128773932900351
30
0
10
-0.79584692327436812
20
16.2423938219947
30
0
10
-0.79991285651727306
20
15.342653407381732
30
0
10
-0.80449471680743123
20
14.431648487806259
30
0
10
-0.80941653076692432
20
13.514413659942146
30
0
10
-0.81445267430416912
20
12.598402990044635
30
0
10
-0.8193152592588504
20
11.692795532863443
30
0
10
-0.82364207433159198
20
10.807862046453922
30
0
10
-0.82698427769635874
20
9.9543065902943031
30
0
10
-0.82879420169248874
20
9.1426179069195772
30
0
10
-0.8284130619328911
20
8.3824190973015593
30
0
10
-0.82505877785901127
20
7.6818121201716005
30
0
10
-0.81781353757224728
20
7.0467378912531089
30
0
10
-0.80561190613277489
20
6.4802979786758836
30
0
10
-0.78722763475493895
20
5.982165818182966
30
0
10
-0.76126354935866836
20
5.5477823098036652
30
0
10
-0.72613170697892748
20
5.168206077938958
30
0
10
-0.68000029736442258
20
4.8318484811415443
30
0
10
-0.62075171880817237
20
4.5258590172056454
30
0
10
-0.54592529045384364
20
4.2376704562605836
30
0
10
-0.45269178015723721
20
3.9564253057450842
30
0
10
-0.33774719199724856
20
3.6745872768570607
30
0
10
-0.19796158611479431
20
3.3880311767565834
30
0
10
-0.031139377306508287
20
3.0959109765806501
30
0
10
0.16325767753762932
20
2.800608536671469
30
0
10
0.38337577561990077
20
2.5076430288748646
30
0
10
0.62422845814794403
20
2.2256118739336843
30
0
10
0.87903487211303588
20
1.9642463271127633
30
0
10
1.1405391797840947
20
1.7325186765888765
30
0
10
1.4023911050006932
20
1.5366209041128589
30
0
10
1.6603765614585475
20
1.3782471138093821
30
0
10
1.9140312746393207
20
1.2521023950841776
30
0
10
2.1661117784356421
20
1.1478161290910407
30
0
10
2.4213232838612431
20
1.0535384235112968
30
0
10
2.685294568168195
20
0.95870619511135946
30
0
10
2.9634448428792526
20
0.85780184341703736
30
0
10
3.2599287696892754
20
0.75132291336729984
30
0
10
3.5767071296711928
20
0.64336458342957914
30
0
10
3.9124549263005415
20
0.53999326617286103
30
0
10
4.2618252413414837
20
0.44741662672153909
30
0
10
4.6138472782635809
20
0.36995305309816184
30
0
10
4.9536736924877056
20
0.30932168749172939
30
0
10
5.2668247841521421
20
0.26514782127472125
30
0
10
5.5430294516263157
20
0.23500917156665185
30
0
10
5.7795482948923693
20
0.21490665674592474
30
0
10
5.9864366357960996
20
0.19896720113707547
30
0
10
6.1819180520065187
20
0.18236143653652542
30
0
10
6.3841351677647262
20
0.16483146669848786
30
0
10
6.6026455670572837
20
0.15542018897376347
30
0
10
6.8346791088290715
20
0.17206064866291687
30
0
10
7.0708942006813702
20
0.23136497680291371
30
0
10
7.298866558333561
20
0.34134383118403844
30
0
10
7.5076587629917313
20
0.49125975599400418
30
0
10
7.6900150257155619
20
0.65951009012861661
30
0
10
7.8442224216614376
20
0.82374947010813471
30
0
10
7.9764223814616075
20
0.97095399120094739
30
0
10
8.101763422946334
20
1.1054957909980239
30
0
10
8.2371790324525396
20
1.239480460129865
30
0
10
8.3948777847250398
20
1.3847582866687835
30
0
10
8.5758200389725445
20
1.5445803858979745
30
0
10
8.7733639655448101
20
1.7171230653719685
30
0
10
8.9764338140575628
20
1.8983432906430464
30
0
10
9.1731149201917042
20
2.0854937895029861
30
0
10
9.3533093673164558
20
2.2790969974898196
30
0
10
9.5090141318630383
20
2.4806725177977142
30
0
10
9.6349612199197452
20
2.6914049180206714
30
0
10
9.7292549435815303
20
2.9100550850891604
30
0
10
9.7935643396398611
20
3.1324485124770245
30
0
10
9.8319809550297101
20
3.3548997193272672
30
0
10
9.8501598456545061
20
3.5764893237510225
30
0
10
9.854306011801409
20
3.8027266219257694
30
0
10
9.8504774167565543
20
4.0430702943967791
30
0
10
9.8439678803881847
20
4.3063303193651485
30
0
10
9.8386643545741634
20
4.596740184432754
30
0
10
9.8364183140926684
20
4.9097960836806678
30
0
10
9.8374996012647564
20
5.2358696621915479
30
0
10
9.84104396406142
20
5.563846713897469
30
0
10
9.8455088240651634
20
5.8845355350979842
30
0
10
9.8491111900394799
20
6.1946962378859913
30
0
10
9.8503154423180774
20
6.4991660701516194
30
0
10
9.8484258510293277
20
6.8072198389234835
30
0
10
9.8442055042455969
20
7.1298255459904025
30
0
10
9.8403918157850043
20
7.4767658150605882
30
0
10
9.8424815936732948
20
7.8532885364229035
30
0
10
9.8585546012073166
20
8.2589414008696203
30
0
10
9.8979406700290049
20
8.6891377401410175
30
0
10
9.9701902593664862
20
9.1360117486448971
30
0
10
10.083909440269018
20
9.5895670774717097
30
0
10
10.245681062677555
20
10.038689042012299
30
0
10
10.458881459541324
20
10.472240337185976
30
0
10
10.722737101490409
20
10.880047933396595
30
0
10
11.033298428800705
20
11.253175770279601
30
0
10
11.384244190832916
20
11.584261604092465
30
0
10
11.7677448032032
20
11.867823968501256
30
0
10
12.175312772230157
20
12.100595042379982
30
0
10
12.598629815354343
20
12.281812443293703
30
0
10
13.030452925414743
20
12.413601365021126
30
0
10
13.465275891565941
20
12.501097186646231
30
0
10
13.898987203545556
20
12.551521640338114
30
0
10
14.328675799377194
20
12.573408834948673
30
0
10
14.752380885306584
20
12.575782924033694
30
0
10
15.168861871499001
20
12.567333680573578
30
0
10
15.577368767073665
20
12.555646425587899
30
0
10
15.977388998461272
20
12.546269410990705
30
0
10
16.368575125091329
20
12.542863256343653
30
0
10
16.750721798051313
20
12.547637992882114
30
0
10
17.049125126947349
20
12.558881454391546
30
0
10
17.268798434513368
20
12.571655387672614
30
0
10
17.413412143107742
20
12.582100656476774
30
0
10
17.485260207768743
20
12.587805625851116
30
0
0
CIRCLE
5
101
100
AcDbEntity
8
0
100
AcDbCircle
10
5.3827910566223647
20
57.706541119331433
30
0
40
1.4750000000000016
210
0
220
-0
230
1
0
CIRCLE
5
102
100
AcDbEntity
8
0
100
AcDbCircle
10
29.654079023353344
20
57.706541119331433
30
0
40
1.4749999999999996
210
0
220
-0
230
1
0
LINE
5
103
100
AcDbEntity
8
0
100
AcDbLine
10
16.03159680383294
20
51.43919758119668
30
0
11
19.007467622944578
21
51.438914028175915
31
0
0
ARC
5
104
100
AcDbEntity
8
0
100
AcDbCircle
10
16.03159680383294
20
50.839197581196672
30
0
40
0.60000000000000497
210
0
220
-0
230
1
100
AcDbArc
50
90
51
195.20640063983819
0
LINE
5
105
100
AcDbEntity
8
0
100
AcDbLine
10
15.452604484606603
20
50.681819392501694
30
0
11
16.936136246513019
21
44.618931140549066
31
0
0
ARC
5
106
100
AcDbEntity
8
0
100
AcDbCircle
10
19.007410452515501
20
50.83891403089963
30
0
40
0.6000000000000032
210
-0
220
0
230
1
100
AcDbArc
50
-15.217319492407857
51
89.994540626159974
0
LINE
5
107
100
AcDbEntity
8
0
100
AcDbLine
10
23.779859466790548
20
46.681031620575411
30
0
11
25.263391228696968
21
52.743919872528039
31
0
0
LINE
5
108
100
AcDbEntity
8
0
100
AcDbLine
10
19.586372769678349
20
50.681425506538545
30
0
11
18.101685630540697
21
44.618820081217706
31
0
0
ARC
5
109
100
AcDbEntity
8
0
100
AcDbCircle
10
17.518827672003667
20
44.761215952213966
30
0
40
0.59999998658895415
210
0
220
0
230
1
100
AcDbArc
50
192.3144851090783
51
346.27120076748577
0
ARC
5
110
100
AcDbEntity
8
0
100
AcDbCircle
10
9.1539178673530284
20
52.601635060863138
30
0
40
0.59999998658895415
210
0
220
-0
230
1
100
AcDbArc
50
12.314485109078289
51
166.27120076748648
0
LINE
5
111
100
AcDbEntity
8
0
100
AcDbLine
10
7.086372769678345
20
46.681425506538552
30
0
11
8.5710599088159949
21
52.744030931859392
31
0
0
LINE
5
112
100
AcDbEntity
8
0
100
AcDbLine
10
11.220141054750092
20
46.681031620575411
30
0
11
9.736609292843676
21
52.743919872528039
31
0
0
ARC
5
113
100
AcDbEntity
8
0
100
AcDbCircle
10
10.641148735523753
20
46.523653431880433
30
0
40
0.60000000000000497
210
-0
220
0
230
1
100
AcDbArc
50
-90
51
15.20640063983813
0
LINE
5
114
100
AcDbEntity
8
0
100
AcDbLine
10
10.641148735523753
20
45.923653431880425
30
0
11
7.6652779164121156
21
45.923936984901189
31
0
0
ARC
5
115
100
AcDbEntity
8
0
100
AcDbCircle
10
7.6653350868411927
20
46.523936982177474
30
0
40
0.6000000000000032
210
0
220
0
230
1
100
AcDbArc
50
164.7826805075928
51
269.99454062615996
0
ARC
5
116
100
AcDbEntity
8
0
100
AcDbCircle
10
25.846082654187615
20
52.601635060863138
30
0
40
0.59999998658894804
210
0
220
-0
230
1
100
AcDbArc
50
13.728799232513692
51
167.68551489092167
0
LINE
5
117
100
AcDbEntity
8
0
100
AcDbLine
10
27.913627751862297
20
46.681425506538552
30
0
11
26.428940612724645
21
52.744030931859392
31
0
0
LINE
5
118
100
AcDbEntity
8
0
100
AcDbLine
10
24.358851786016888
20
45.923653431880425
30
0
11
27.334722605128526
21
45.923936984901189
31
0
0
ARC
5
119
100
AcDbEntity
8
0
100
AcDbCircle
10
24.358851786016888
20
46.523653431880433
30
0
40
0.60000000000000675
210
0
220
0
230
1
100
AcDbArc
50
164.79359936016198
51
270
0
ARC
5
120
100
AcDbEntity
8
0
100
AcDbCircle
10
27.334665434699449
20
46.523936982177474
30
0
40
0.60000000000000531
210
-0
220
0
230
1
100
AcDbArc
50
-89.994540626159974
51
15.217319492407183
0
CIRCLE
5
121
100
AcDbEntity
8
0
100
AcDbCircle
10
27.518435039996415
20
41.319176639091609
30
0
40
1.4749999999999983
210
0
220
-0
230
1
0
CIRCLE
5
122
100
AcDbEntity
8
0
100
AcDbCircle
10
7.5184350399964197
20
41.319176639091609
30
0
40
1.4750000000000041
210
0
220
-0
230
1
0
CIRCLE
5
123
100
AcDbEntity
8
0
100
AcDbCircle
10
7.5184350399964197
20
21.319176639091609
30
0
40
1.4750000000000041
210
0
220
-0
230
1
0
CIRCLE
5
124
100
AcDbEntity
8
0
100
AcDbCircle
10
27.518435039996415
20
21.319176639091609
30
0
40
1.4750000000000005
210
0
220
-0
230
1
0
ARC
5
125
100
AcDbEntity
8
0
100
AcDbCircle
10
5.5184350399964233
20
36.31917663936639
30
0
40
1.0599999999999987
210
0
220
0
230
1
100
AcDbArc
50
0
51
180
0
ARC
5
126
100
AcDbEntity
8
0
100
AcDbCircle
10
5.5184350399964277
20
26.319176639366386
30
0
40
1.0599999999999943
210
0
220
0
230
1
100
AcDbArc
50
-180
51
0
0
LINE
5
127
100
AcDbEntity
8
0
100
AcDbLine
10
4.4584350399964334
20
26.319176639366372
30
0
11
4.458435039996429
21
36.31917663936639
31
0
0
LINE
5
128
100
AcDbEntity
8
0
100
AcDbLine
10
6.578435039996422
20
36.319176639366383
30
0
11
6.578435039996422
21
26.3191766393664
31
0
0
ARC
5
129
100
AcDbEntity
8
0
100
AcDbCircle
10
-73.352601128340822
20
31.318785591674757
30
0
40
86.931036169216725
210
-0
220
0
230
1
100
AcDbArc
50
-5.2892745910346965
51
5.2897900655432384
0
ARC
5
130
100
AcDbEntity
8
0
100
AcDbCircle
10
-75.472601128337715
20
31.318785591674747
30
0
40
86.931036169213641
210
-0
220
0
230
1
100
AcDbArc
50
-4.9968081130317676
51
5.1616775868377802
0
ARC
5
131
100
AcDbEntity
8
0
100
AcDbCircle
10
12.164736368394301
20
39.152665947590492
30
0
40
1.0600000000013647
210
0
220
-0
230
1
100
AcDbArc
50
11.213532502459131
51
179.18127978556225
0
ARC
5
132
100
AcDbEntity
8
0
100
AcDbCircle
10
12.164736368394301
20
23.484905235804572
30
0
40
1.0599999999999983
210
0
220
0
230
1
100
AcDbArc
50
172.0350808299207
51
348.73079155591114
0
ARC
5
133
100
AcDbEntity
8
0
100
AcDbCircle
10
17.518435039996422
20
36.31917663936639
30
0
40
1.0599999999999987
210
0
220
0
230
1
100
AcDbArc
50
0
51
180
0
ARC
5
134
100
AcDbEntity
8
0
100
AcDbCircle
10
17.518435039996426
20
26.319176639366386
30
0
40
1.0599999999999943
210
0
220
0
230
1
100
AcDbArc
50
-180
51
0
0
LINE
5
135
100
AcDbEntity
8
0
100
AcDbLine
10
16.458435039996434
20
26.319176639366372
30
0
11
16.458435039996427
21
36.31917663936639
31
0
0
LINE
5
136
100
AcDbEntity
8
0
100
AcDbLine
10
18.578435039996421
20
36.319176639366383
30
0
11
18.578435039996421
21
26.3191766393664
31
0
0
ARC
5
137
100
AcDbEntity
8
0
100
AcDbCircle
10
22.87213371159854
20
39.152665947590492
30
0
40
1.0600000000013601
210
0
220
-0
230
1
100
AcDbArc
50
0.81872021443774079
51
168.78646749754083
0
ARC
5
138
100
AcDbEntity
8
0
100
AcDbCircle
10
108.38947120833154
20
31.318785591674903
30
0
40
86.931036169214622
210
0
220
0
230
1
100
AcDbArc
50
174.71020993445686
51
185.28927459103474
0
ARC
5
139
100
AcDbEntity
8
0
100
AcDbCircle
10
110.50947120833143
20
31.31878559167459
30
0
40
86.931036169214508
210
0
220
0
230
1
100
AcDbArc
50
174.83832241316227
51
184.99680811303153
0
ARC
5
140
100
AcDbEntity
8
0
100
AcDbCircle
10
22.87213371159854
20
23.484905235804582
30
0
40
1.0599999999999994
210
0
220
0
230
1
100
AcDbArc
50
-168.73079155591063
51
7.9649191700786988
0
LINE
5
141
100
AcDbEntity
8
0
100
AcDbLine
10
28.421565481544221
20
36.319176639366383
30
0
11
28.421565481544221
21
26.3191766393664
31
0
0
LINE
5
142
100
AcDbEntity
8
0
100
AcDbLine
10
30.541565481544207
20
26.319176639366372
30
0
11
30.541565481544211
21
36.31917663936639
31
0
0
ARC
5
143
100
AcDbEntity
8
0
100
AcDbCircle
10
29.481565481544216
20
26.319176639366386
30
0
40
1.0599999999999943
210
0
220
0
230
1
100
AcDbArc
50
180
51
360
0
ARC
5
144
100
AcDbEntity
8
0
100
AcDbCircle
10
29.481565481544216
20
36.31917663936639
30
0
40
1.0599999999999943
210
0
220
-0
230
1
100
AcDbArc
50
0
51
180
0
ARC
5
145
100
AcDbEntity
8
0
100
AcDbCircle
10
14.518435039996657
20
18.766320936445219
30
0
40
1.0000000000001097
210
0
220
-0
230
1
100
AcDbArc
50
89.999999999996945
51
180
0
ARC
5
146
100
AcDbEntity
8
0
100
AcDbCircle
10
14.518435039996598
20
18.766320936445368
30
0
40
0.99999999999996314
210
-0
220
0
230
1
100
AcDbArc
50
0
51
89.999999999993577
0
LINE
5
147
100
AcDbEntity
8
0
100
AcDbLine
10
15.518435039996568
20
15.842319170080341
30
0
11
15.518435039996561
21
18.766320936445268
31
0
0
LINE
5
148
100
AcDbEntity
8
0
100
AcDbLine
10
13.518435039996548
20
18.766320936445268
30
0
11
13.51843503999655
21
16.17181917008033
31
0
0
ARC
5
149
100
AcDbEntity
8
0
100
AcDbCircle
10
14.518435039996573
20
15.842319170080472
30
0
40
1.0000000000000231
210
0
220
0
230
1
100
AcDbArc
50
180
51
270.00000000000762
0
ARC
5
150
100
AcDbEntity
8
0
100
AcDbCircle
10
14.518435039996687
20
15.84231917008033
30
0
40
0.99999999999988098
210
-0
220
0
230
1
100
AcDbArc
50
-89.999999999998877
51
0
0
LINE
5
151
100
AcDbEntity
8
0
100
AcDbLine
10
19.518435039996504
20
16.17181917008033
30
0
11
19.518435039996504
21
15.842319170080341
31
0
0
ARC
5
152
100
AcDbEntity
8
0
100
AcDbCircle
10
20.518435039996618
20
15.842319170080332
30
0
40
0.9999999999998832
210
-0
220
0
230
1
100
AcDbArc
50
-89.999999999999389
51
0
0
ARC
5
153
100
AcDbEntity
8
0
100
AcDbCircle
10
20.518435039996511
20
15.842319170080456
30
0
40
1.0000000000000075
210
0
220
0
230
1
100
AcDbArc
50
180
51
270.00000000000671
0
LINE
5
154
100
AcDbEntity
8
0
100
AcDbLine
10
19.518435039996504
20
18.766320936445268
30
0
11
19.518435039996504
21
16.17181917008033
31
0
0
ARC
5
155
100
AcDbEntity
8
0
100
AcDbCircle
10
20.518435039996593
20
18.766320936445243
30
0
40
1.0000000000000875
210
0
220
-0
230
1
100
AcDbArc
50
89.999999999997954
51
180
0
ARC
5
156
100
AcDbEntity
8
0
100
AcDbCircle
10
20.518435039996529
20
18.766320936445361
30
0
40
0.9999999999999698
210
-0
220
0
230
1
100
AcDbArc
50
0
51
89.999999999994301
0
LINE
5
157
100
AcDbEntity
8
0
100
AcDbLine
10
21.518435039996504
20
15.842319170080341
30
0
11
21.518435039996501
21
18.766320936445268
31
0
0
ARC
5
158
100
AcDbEntity
8
0
100
AcDbCircle
10
29.481565481544045
20
15.266320936445368
30
0
40
0.99999999999996092
210
0
220
0
230
1
100
AcDbArc
50
90.000000000006523
51
180
0
ARC
5
159
100
AcDbEntity
8
0
100
AcDbCircle
10
29.481565481543981
20
15.266320936445217
30
0
40
1.0000000000001119
210
0
220
-0
230
1
100
AcDbArc
50
0
51
90.000000000002842
0
LINE
5
160
100
AcDbEntity
8
0
100
AcDbLine
10
30.481565481544095
20
15.26632093644527
30
0
11
30.481565481544092
21
12.67181917008033
31
0
0
LINE
5
161
100
AcDbEntity
8
0
100
AcDbLine
10
28.481565481544074
20
12.342319170080343
30
0
11
28.481565481544081
21
15.26632093644527
31
0
0
ARC
5
162
100
AcDbEntity
8
0
100
AcDbCircle
10
29.481565481543957
20
12.342319170080334
30
0
40
0.99999999999988098
210
0
220
0
230
1
100
AcDbArc
50
180
51
269.99999999999881
0
ARC
5
163
100
AcDbEntity
8
0
100
AcDbCircle
10
29.481565481544067
20
12.342319170080476
30
0
40
1.000000000000032
210
0
220
0
230
1
100
AcDbArc
50
269.99999999999244
51
360
0
LINE
5
164
100
AcDbEntity
8
0
100
AcDbLine
10
30.481565481544092
20
12.67181917008033
30
0
11
30.481565481544092
21
12.342319170080343
31
0
0
LINE
5
165
100
AcDbEntity
8
0
100
AcDbLine
10
13.51843503999655
20
16.17181917008033
30
0
11
13.51843503999655
21
15.842319170080341
31
0
0
LINE
5
166
100
AcDbEntity
8
0
100
AcDbLine
10
4.5184350399965512
20
12.67181917008033
30
0
11
4.5184350399965512
21
12.342319170080341
31
0
0
ARC
5
167
100
AcDbEntity
8
0
100
AcDbCircle
10
5.5184350399965743
20
12.342319170080472
30
0
40
1.0000000000000231
210
0
220
0
230
1
100
AcDbArc
50
180
51
270.00000000000762
0
ARC
5
168
100
AcDbEntity
8
0
100
AcDbCircle
10
5.5184350399966871
20
12.34231917008033
30
0
40
0.99999999999988098
210
-0
220
0
230
1
100
AcDbArc
50
-89.99999999999882
51
0
0
LINE
5
169
100
AcDbEntity
8
0
100
AcDbLine
10
6.518435039996568
20
12.342319170080341
30
0
11
6.5184350399965618
21
15.266320936445268
31
0
0
LINE
5
170
100
AcDbEntity
8
0
100
AcDbLine
10
4.5184350399965485
20
15.266320936445268
30
0
11
4.5184350399965512
21
12.67181917008033
31
0
0
ARC
5
171
100
AcDbEntity
8
0
100
AcDbCircle
10
5.5184350399966586
20
15.266320936445219
30
0
40
1.0000000000001119
210
0
220
-0
230
1
100
AcDbArc
50
89.999999999996945
51
180
0
ARC
5
172
100
AcDbEntity
8
0
100
AcDbCircle
10
5.5184350399965982
20
15.266320936445366
30
0
40
0.99999999999996314
210
-0
220
0
230
1
100
AcDbArc
50
0
51
89.999999999993491
0
CIRCLE
5
173
100
AcDbEntity
8
0
100
AcDbCircle
10
5.382791056635269
20
4.9318121588635151
30
0
40
1.5000000000000002
210
0
220
-0
230
1
0
CIRCLE
5
174
100
AcDbEntity
8
0
100
AcDbCircle
10
29.654079023366325
20
4.9318121588635151
30
0
40
1.5000000000000002
210
0
220
-0
230
1
0
ARC
5
175
100
AcDbEntity
8
0
100
AcDbCircle
10
8.8965711533289706
20
23.94217553573089
30
0
40
2.2400000000238971
210
-0
220
0
230
1
100
AcDbArc
50
352.03508082993335
51
355.00319188694863
0
ARC
5
176
100
AcDbEntity
8
0
100
AcDbCircle
10
12.94440862546481
20
23.329547035635688
30
0
40
0.26500000075148999
210
0
220
0
230
1
100
AcDbArc
50
348.73079155591932
51
354.71072540504559
0
ARC
5
177
100
AcDbEntity
8
0
100
AcDbCircle
10
11.374817020447347
20
39.163954160514066
30
0
40
0.26999999999380114
210
0
220
0
230
1
100
AcDbArc
50
179.18127978554048
51
185.16167758695175
0
ARC
5
178
100
AcDbEntity
8
0
100
AcDbCircle
10
12.959272862462344
20
39.310183435365367
30
0
40
0.25000000039590226
210
0
220
-0
230
1
100
AcDbArc
50
5.2897900677694469
51
11.213532502460607
0
ARC
5
179
100
AcDbEntity
8
0
100
AcDbCircle
10
22.092461454529456
20
23.329547035635901
30
0
40
0.26500000075292307
210
0
220
0
230
1
100
AcDbArc
50
185.28927459497271
51
191.26920844406587
0
ARC
5
180
100
AcDbEntity
8
0
100
AcDbCircle
10
26.140298926648342
20
23.94217553572949
30
0
40
2.2400000000083233
210
0
220
0
230
1
100
AcDbArc
50
184.99680811305174
51
187.96491917008595
0
ARC
5
181
100
AcDbEntity
8
0
100
AcDbCircle
10
23.662053059546309
20
39.163954160513974
30
0
40
0.26999999999298319
210
-0
220
0
230
1
100
AcDbArc
50
-5.1616775869476772
51
0.81872021448136845
0
ARC
5
182
100
AcDbEntity
8
0
100
AcDbCircle
10
22.077597217532109
20
39.310183435364998
30
0
40
0.25000000039755232
210
0
220
0
230
1
100
AcDbArc
50
168.78646749752824
51
174.71020993220836
0
SPLINE
5
183
100
AcDbEntity
8
0
100
AcDbSpline
70
4
71
5
72
251
73
245
74
0
42
0.000000001
43
0.0000000001
44
0.0000000001
40
0
40
0
40
0
40
0
40
0
40
0
40
0.0041666666666666666
40
0.0083333333333333332
40
0.012500000000000001
40
0.016666666666666666
40
0.020833333333333332
40
0.024999999999999998
40
0.029166666666666664
40
0.033333333333333333
40
0.037499999999999999
40
0.041666666666666664
40
0.04583333333333333
40
0.049999999999999996
40
0.054166666666666662
40
0.058333333333333327
40
0.062499999999999993
40
0.066666666666666666
40
0.070833333333333331
40
0.074999999999999997
40
0.079166666666666663
40
0.083333333333333329
40
0.087499999999999994
40
0.09166666666666666
40
0.095833333333333326
40
0.099999999999999992
40
0.10416666666666666
40
0.10833333333333332
40
0.11249999999999999
40
0.11666666666666665
40
0.12083333333333332
40
0.12499999999999999
40
0.12916666666666665
40
0.13333333333333333
40
0.13750000000000001
40
0.14166666666666669
40
0.14583333333333337
40
0.15000000000000005
40
0.15416666666666673
40
0.15833333333333341
40
0.16250000000000009
40
0.16666666666666677
40
0.17083333333333345
40
0.17500000000000013
40
0.17916666666666681
40
0.18333333333333349
40
0.18750000000000017
40
0.19166666666666685
40
0.19583333333333353
40
0.20000000000000021
40
0.20416666666666689
40
0.20833333333333356
40
0.21250000000000024
40
0.21666666666666692
40
0.2208333333333336
40
0.22500000000000028
40
0.22916666666666696
40
0.23333333333333364
40
0.23750000000000032
40
0.241666666666667
40
0.24583333333333368
40
0.25000000000000033
40
0.25416666666666698
40
0.25833333333333364
40
0.26250000000000029
40
0.26666666666666694
40
0.27083333333333359
40
0.27500000000000024
40
0.2791666666666669
40
0.28333333333333355
40
0.2875000000000002
40
0.29166666666666685
40
0.2958333333333335
40
0.30000000000000016
40
0.30416666666666681
40
0.30833333333333346
40
0.31250000000000011
40
0.31666666666666676
40
0.32083333333333341
40
0.32500000000000007
40
0.32916666666666672
40
0.33333333333333337
40
0.33750000000000002
40
0.34166666666666667
40
0.34583333333333333
40
0.34999999999999998
40
0.35416666666666663
40
0.35833333333333328
40
0.36249999999999993
40
0.36666666666666659
40
0.37083333333333324
40
0.37499999999999989
40
0.37916666666666654
40
0.38333333333333319
40
0.38749999999999984
40
0.3916666666666665
40
0.39583333333333315
40
0.3999999999999998
40
0.40416666666666645
40
0.4083333333333331
40
0.41249999999999976
40
0.41666666666666641
40
0.42083333333333306
40
0.42499999999999971
40
0.42916666666666636
40
0.43333333333333302
40
0.43749999999999967
40
0.44166666666666632
40
0.44583333333333297
40
0.44999999999999962
40
0.45416666666666627
40
0.45833333333333293
40
0.46249999999999958
40
0.46666666666666623
40
0.47083333333333288
40
0.47499999999999953
40
0.47916666666666619
40
0.48333333333333284
40
0.48749999999999949
40
0.49166666666666614
40
0.49583333333333279
40
0.49999999999999944
40
0.5041666666666661
40
0.50833333333333275
40
0.5124999999999994
40
0.51666666666666605
40
0.5208333333333327
40
0.52499999999999936
40
0.52916666666666601
40
0.53333333333333266
40
0.53749999999999931
40
0.54166666666666596
40
0.54583333333333262
40
0.54999999999999927
40
0.55416666666666592
40
0.55833333333333257
40
0.56249999999999922
40
0.56666666666666587
40
0.57083333333333253
40
0.57499999999999918
40
0.57916666666666583
40
0.58333333333333248
40
0.58749999999999913
40
0.59166666666666579
40
0.59583333333333244
40
0.59999999999999909
40
0.60416666666666574
40
0.60833333333333239
40
0.61249999999999905
40
0.6166666666666657
40
0.62083333333333235
40
0.624999999999999
40
0.62916666666666565
40
0.6333333333333323
40
0.63749999999999896
40
0.64166666666666561
40
0.64583333333333226
40
0.64999999999999891
40
0.65416666666666556
40
0.65833333333333222
40
0.66249999999999887
40
0.66666666666666552
40
0.67083333333333217
40
0.67499999999999882
40
0.67916666666666548
40
0.68333333333333213
40
0.68749999999999878
40
0.69166666666666543
40
0.69583333333333208
40
0.69999999999999873
40
0.70416666666666539
40
0.70833333333333204
40
0.71249999999999869
40
0.71666666666666534
40
0.72083333333333199
40
0.72499999999999865
40
0.7291666666666653
40
0.73333333333333195
40
0.7374999999999986
40
0.74166666666666525
40
0.7458333333333319
40
0.74999999999999856
40
0.75416666666666521
40
0.75833333333333186
40
0.76249999999999851
40
0.76666666666666516
40
0.77083333333333182
40
0.77499999999999847
40
0.77916666666666512
40
0.78333333333333177
40
0.78749999999999842
40
0.79166666666666508
40
0.79583333333333173
40
0.79999999999999838
40
0.80416666666666503
40
0.80833333333333168
40
0.81249999999999833
40
0.81666666666666499
40
0.82083333333333164
40
0.82499999999999829
40
0.82916666666666494
40
0.83333333333333159
40
0.83749999999999825
40
0.8416666666666649
40
0.84583333333333155
40
0.8499999999999982
40
0.85416666666666485
40
0.85833333333333151
40
0.86249999999999816
40
0.86666666666666481
40
0.87083333333333146
40
0.87499999999999811
40
0.87916666666666476
40
0.88333333333333142
40
0.88749999999999807
40
0.89166666666666472
40
0.89583333333333137
40
0.89999999999999802
40
0.90416666666666468
40
0.90833333333333133
40
0.91249999999999798
40
0.91666666666666463
40
0.92083333333333128
40
0.92499999999999793
40
0.92916666666666459
40
0.93333333333333124
40
0.93749999999999789
40
0.94166666666666454
40
0.94583333333333119
40
0.94999999999999785
40
0.9541666666666645
40
0.95833333333333115
40
0.9624999999999978
40
0.96666666666666445
40
0.97083333333333111
40
0.97499999999999776
40
0.97916666666666441
40
0.98333333333333106
40
0.98749999999999771
40
0.99166666666666436
40
0.99583333333333102
40
1
40
1
40
1
40
1
40
1
40
1
41
1
41
1
41
1
41
1
41
1
41
1
41
1
41
1
41
1
41
1
41
1
41
1
41
1
41
1
41
1
41
1
41
1
41
1
41
1
41
1
41
1
41
1
41
1
41
1
41
1
41
1
41
1
41
1
41
1
41
1
41
1
41
1
41
1
41
1
41
1
41
1
41
1
41
1
41
1
41
1
41
1
41
1
41
1
41
1
41
1
41
1
41
1
41
1
41
1
41
1
41
1
41
1
41
1
41
1
41
1
41
1
41
1
41
1
41
1
41
1
41
1
41
1
41
1
41
1
41
1
41
1
41
1
41
1
41
1
41
1
41
1
41
1
41
1
41
1
41
1
41
1
41
1
41
1
41
1
41
1
41
1
41
1
41
1
41
1
41
1
41
1
41
1
41
1
41
1
41
1
41
1
41
1
41
1
41
1
41
1
41
1
41
1
41
1
41
1
41
1
41
1
41
1
41
1
41
1
41
1
41
1
41
1
41
1
41
1
41
1
41
1
41
1
41
1
41
1
41
1
41
1
41
1
41
1
41
1
41
1
41
1
41
1
41
1
41
1
41
1
41
1
41
1
41
1
41
1
41
1
41
1
41
1
41
1
41
1
41
1
41
1
41
1
41
1
41
1
41
1
41
1
41
1
41
1
41
1
41
1
41
1
41
1
41
1
41
1
41
1
41
1
41
1
41
1
41
1
41
1
41
1
41
1
41
1
41
1
41
1
41
1
41
1
41
1
41
1
41
1
41
1
41
1
41
1
41
1
41
1
41
1
41
1
41
1
41
1
41
1
41
1
41
1
41
1
41
1
41
1
41
1
41
1
41
1
41
1
41
1
41
1
41
1
41
1
41
1
41
1
41
1
41
1
41
1
41
1
41
1
41
1
41
1
41
1
41
1
41
1
41
1
41
1
41
1
41
1
41
1
41
1
41
1
41
1
41
1
41
1
41
1
41
1
41
1
41
1
41
1
41
1
41
1
41
1
41
1
41
1
41
1
41
1
41
1
41
1
41
1
41
1
41
1
41
1
41
1
41
1
41
1
41
1
41
1
41
1
41
1
41
1
41
1
41
1
41
1
41
1
41
1
41
1
41
1
41
1
41
1
10
17.485260207768743
20
54.645446937257177
30
0
10
17.556174177883022
20
54.643868367889539
30
0
10
17.697601411801568
20
54.642251356746847
30
0
10
17.908540132878361
20
54.644446190694751
30
0
10
18.187387527703073
20
54.656613876889764
30
0
10
18.531918669700957
20
54.687128850978375
30
0
10
18.872361005350726
20
54.732661652259111
30
0
10
19.208590544912457
20
54.792626104714309
30
0
10
19.540407714562974
20
54.866063058507223
30
0
10
19.867496514804873
20
54.951481473736393
30
0
10
20.189567610006147
20
55.047254011938506
30
0
10
20.506533665572366
20
55.152123259116252
30
0
10
20.818696557037079
20
55.265715043567141
30
0
10
21.126878162356036
20
55.388947966042402
30
0
10
21.432706619518804
20
55.524744987896668
30
0
10
21.738042135017
20
55.677049897797879
30
0
10
22.044149748108211
20
55.849327602806071
30
0
10
22.35087797151543
20
56.043111012677699
30
0
10
22.65600808334305
20
56.256804645395988
30
0
10
22.954104362902427
20
56.483698820604658
30
0
10
23.237263655783892
20
56.713010544681808
30
0
10
23.497596843686757
20
56.933686795892996
30
0
10
23.72938493214707
20
57.137690540834434
30
0
10
23.931042372145804
20
57.322974291643511
30
0
10
24.10795222638702
20
57.497857152366159
30
0
10
24.272129705614503
20
57.680286719792619
30
0
10
24.436161234636053
20
57.887752196590576
30
0
10
24.609027509456432
20
58.130407795487386
30
0
10
24.789921928327221
20
58.400570527770569
30
0
10
24.967074768742176
20
58.671533778813576
30
0
10
25.125681138896041
20
58.913424959807173
30
0
10
25.253947572734088
20
59.105560117590059
30
0
10
25.349748175757615
20
59.249880359103699
30
0
10
25.427425258345107
20
59.384838095053581
30
0
10
25.505528130770653
20
59.555323609771584
30
0
10
25.593119476980398
20
59.77916624496747
30
0
10
25.678406664620894
20
60.019404400931144
30
0
10
25.743834282060305
20
60.222349345638825
30
0
10
25.777193639147654
20
60.345954086047307
30
0
10
25.788637949568738
20
60.402317539194712
30
0
10
25.803541642269693
20
60.442566056400977
30
0
10
25.850085709059027
20
60.528888463111407
30
0
10
25.925741089956624
20
60.655703491165895
30
0
10
25.999752464068738
20
60.75355823411482
30
0
10
26.064516894118231
20
60.80412704415464
30
0
10
26.144332586680218
20
60.861639978003971
30
0
10
26.241888962705808
20
60.945432274416575
30
0
10
26.339017791300982
20
61.034676527227028
30
0
10
26.43172549598156
20
61.119796822996683
30
0
10
26.533350527856587
20
61.210794685739543
30
0
10
26.653924220534442
20
61.31996712592229
30
0
10
26.790878043985671
20
61.452994666806909
30
0
10
26.935156771331915
20
61.607545127039074
30
0
10
27.075629199356307
20
61.768875208881447
30
0
10
27.202853706009712
20
61.913452796483448
30
0
10
27.310299208607475
20
62.022686414139429
30
0
10
27.395918420416464
20
62.097974853215646
30
0
10
27.465000214282078
20
62.163419310320577
30
0
10
27.541868358875664
20
62.23558743390263
30
0
10
27.670324493045065
20
62.311060837793164
30
0
10
27.887530456748451
20
62.380121340220697
30
0
10
28.206349794841891
20
62.43466336229487
30
0
10
28.621799583927633
20
62.467954829475794
30
0
10
29.115685436740442
20
62.474675654268296
30
0
10
29.661849480977306
20
62.450881716284734
30
0
10
30.231263077430313
20
62.394002279820299
30
0
10
30.796939551365419
20
62.302815782041179
30
0
10
31.339571579135885
20
62.177454784916051
30
0
10
31.847140798360986
20
62.019224475877365
30
0
10
32.313333636663842
20
61.830386058091804
30
0
10
32.736364388629255
20
61.613952359776114
30
0
10
33.11764506289164
20
61.373478356747306
30
0
10
33.460481408337543
20
61.11285408616483
30
0
10
33.768851675212169
20
60.836096272096285
30
0
10
34.045915952231333
20
60.547141306020187
30
0
10
34.293655204460499
20
60.249634105146839
30
0
10
34.513378142297782
20
59.946713257504669
30
0
10
34.705974396913597
20
59.640798353837482
30
0
10
34.872275784362515
20
59.33337378130701
30
0
10
35.013362512059246
20
59.024779925013561
30
0
10
35.130916646305351
20
58.713984753848379
30
0
10
35.227090608754835
20
58.398695078432837
30
0
10
35.304346904428968
20
58.075494562358415
30
0
10
35.365306290513395
20
57.739965899266359
30
0
10
35.412596448289328
20
57.386833314690989
30
0
10
35.448689747332551
20
57.010059641482968
30
0
10
35.475872755764392
20
56.603400849477019
30
0
10
35.496233333419255
20
56.161022252386019
30
0
10
35.511641599134755
20
55.678088678169964
30
0
10
35.523733115510908
20
55.151375224312361
30
0
10
35.533891880815275
20
54.579847281793512
30
0
10
35.543231497195883
20
53.965306628219267
30
0
10
35.552582593047418
20
53.312855261340069
30
0
10
35.56252745054622
20
52.630038836385623
30
0
10
35.573429841915825
20
51.926122857337759
30
0
10
35.585466688375512
20
51.211317718230667
30
0
10
35.598658902449969
20
50.496026570054646
30
0
10
35.612902601959362
20
49.790081277826417
30
0
10
35.628000053439656
20
49.101988445218758
30
0
10
35.643690938369453
20
48.438159399105139
30
0
10
35.659682961914697
20
47.80217380171068
30
0
10
35.675683955558789
20
47.193964187040706
30
0
10
35.691429767009637
20
46.609222767737535
30
0
10
35.706682370668034
20
46.04038166084618
30
0
10
35.721231023923153
20
45.47743236105633
30
0
10
35.73489225483889
20
44.908805980879151
30
0
10
35.747510353649893
20
44.322228981984082
30
0
10
35.758957643159334
20
43.705585713754083
30
0
10
35.769134865946683
20
43.047786408508095
30
0
10
35.777971482442133
20
42.339613363863009
30
0
10
35.78542611183552
20
41.574623339705226
30
0
10
35.791486620213313
20
40.749889829073531
30
0
10
35.796167537893957
20
39.865508911166089
30
0
10
35.799507735073099
20
38.924224334267642
30
0
10
35.801568001492633
20
37.931007208573874
30
0
10
35.802428669731825
20
36.892655283298197
30
0
10
35.802187222262745
20
35.817384055864999
30
0
10
35.800955907733332
20
34.714421551669709
30
0
10
35.798859355204456
20
33.593601745035727
30
0
10
35.796032190936913
20
32.464958464891602
30
0
10
35.792616655369194
20
31.338319573902748
30
0
10
35.788760221202274
20
30.222899993780985
30
0
10
35.784613211443599
20
29.12689755205583
30
0
10
35.780326418670526
20
28.057081966530255
30
0
10
35.776048722199612
20
27.018399522547977
30
0
10
35.771924710150238
20
26.013540035189369
30
0
10
35.768092286900966
20
25.042609723905656
30
0
10
35.764680172615556
20
24.103605168941531
30
0
10
35.76180541235572
20
23.192808971436961
30
0
10
35.759570880384572
20
22.305215252012573
30
0
10
35.75806278446607
20
21.434942242368269
30
0
10
35.757348169130722
20
20.57565040710811
30
0
10
35.757472414963637
20
19.720957875513978
30
0
10
35.758456742026233
20
18.864857561850748
30
0
10
35.760295697006882
20
18.002132308210296
30
0
10
35.762954671149302
20
17.128773932900351
30
0
10
35.766367338811854
20
16.2423938219947
30
0
10
35.77043327205476
20
15.342653407381732
30
0
10
35.775015132344919
20
14.431648487806259
30
0
10
35.77993694630441
20
13.514413659942146
30
0
10
35.784973089841657
20
12.598402990044635
30
0
10
35.789835674796336
20
11.692795532863443
30
0
10
35.79416248986908
20
10.807862046453922
30
0
10
35.797504693233847
20
9.9543065902943031
30
0
10
35.799314617229975
20
9.1426179069195772
30
0
10
35.798933477470378
20
8.3824190973015593
30
0
10
35.795579193396499
20
7.6818121201716005
30
0
10
35.788333953109735
20
7.0467378912531089
30
0
10
35.776132321670261
20
6.4802979786758836
30
0
10
35.75774805029242
20
5.982165818182966
30
0
10
35.731783964896152
20
5.5477823098036652
30
0
10
35.696652122516412
20
5.168206077938958
30
0
10
35.650520712901908
20
4.8318484811415443
30
0
10
35.591272134345658
20
4.5258590172056454
30
0
10
35.51644570599133
20
4.2376704562605836
30
0
10
35.423212195694724
20
3.9564253057450842
30
0
10
35.308267607534731
20
3.6745872768570607
30
0
10
35.168482001652279
20
3.3880311767565834
30
0
10
35.001659792843995
20
3.0959109765806501
30
0
10
34.807262737999856
20
2.800608536671469
30
0
10
34.587144639917582
20
2.5076430288748646
30
0
10
34.346291957389539
20
2.2256118739336843
30
0
10
34.091485543424447
20
1.9642463271127633
30
0
10
33.829981235753394
20
1.7325186765888765
30
0
10
33.56812931053679
20
1.5366209041128589
30
0
10
33.310143854078937
20
1.3782471138093821
30
0
10
33.056489140898165
20
1.2521023950841776
30
0
10
32.804408637101844
20
1.1478161290910407
30
0
10
32.549197131676245
20
1.0535384235112968
30
0
10
32.28522584736929
20
0.95870619511135946
30
0
10
32.007075572658231
20
0.85780184341703736
30
0
10
31.710591645848211
20
0.75132291336729984
30
0
10
31.393813285866294
20
0.64336458342957914
30
0
10
31.058065489236945
20
0.53999326617286103
30
0
10
30.708695174196002
20
0.44741662672153909
30
0
10
30.356673137273905
20
0.36995305309816184
30
0
10
30.016846723049781
20
0.30932168749172939
30
0
10
29.703695631385344
20
0.26514782127472125
30
0
10
29.427490963911168
20
0.23500917156665185
30
0
10
29.190972120645114
20
0.21490665674592474
30
0
10
28.984083779741386
20
0.19896720113707547
30
0
10
28.788602363530966
20
0.18236143653652542
30
0
10
28.58638524777276
20
0.16483146669848786
30
0
10
28.367874848480202
20
0.15542018897376347
30
0
10
28.135841306708414
20
0.17206064866291687
30
0
10
27.899626214856113
20
0.23136497680291371
30
0
10
27.671653857203925
20
0.34134383118403844
30
0
10
27.462861652545755
20
0.49125975599400418
30
0
10
27.280505389821922
20
0.65951009012861661
30
0
10
27.126297993876047
20
0.82374947010813471
30
0
10
26.994098034075876
20
0.97095399120094739
30
0
10
26.868756992591152
20
1.1054957909980239
30
0
10
26.733341383084944
20
1.239480460129865
30
0
10
26.575642630812446
20
1.3847582866687835
30
0
10
26.394700376564941
20
1.5445803858979745
30
0
10
26.197156449992676
20
1.7171230653719685
30
0
10
25.994086601479921
20
1.8983432906430464
30
0
10
25.797405495345778
20
2.0854937895029861
30
0
10
25.61721104822103
20
2.2790969974898196
30
0
10
25.461506283674446
20
2.4806725177977142
30
0
10
25.335559195617741
20
2.6914049180206714
30
0
10
25.241265471955955
20
2.9100550850891604
30
0
10
25.176956075897621
20
3.1324485124770245
30
0
10
25.138539460507772
20
3.3548997193272672
30
0
10
25.120360569882976
20
3.5764893237510225
30
0
10
25.116214403736077
20
3.8027266219257694
30
0
10
25.120042998780931
20
4.0430702943967791
30
0
10
25.126552535149301
20
4.3063303193651485
30
0
10
25.131856060963322
20
4.596740184432754
30
0
10
25.134102101444817
20
4.9097960836806678
30
0
10
25.133020814272729
20
5.2358696621915479
30
0
10
25.129476451476066
20
5.563846713897469
30
0
10
25.125011591472322
20
5.8845355350979842
30
0
10
25.121409225498006
20
6.1946962378859913
30
0
10
25.120204973219408
20
6.4991660701516194
30
0
10
25.122094564508156
20
6.8072198389234835
30
0
10
25.126314911291885
20
7.1298255459904025
30
0
10
25.130128599752481
20
7.4767658150605882
30
0
10
25.128038821864187
20
7.8532885364229035
30
0
10
25.111965814330169
20
8.2589414008696203
30
0
10
25.072579745508481
20
8.6891377401410175
30
0
10
25.000330156170996
20
9.1360117486448971
30
0
10
24.886610975268468
20
9.5895670774717097
30
0
10
24.724839352859931
20
10.038689042012299
30
0
10
24.511638955996162
20
10.472240337185976
30
0
10
24.247783314047076
20
10.880047933396595
30
0
10
23.93722198673678
20
11.253175770279601
30
0
10
23.586276224704569
20
11.584261604092465
30
0
10
23.202775612334285
20
11.867823968501256
30
0
10
22.795207643307329
20
12.100595042379982
30
0
10
22.371890600183143
20
12.281812443293703
30
0
10
21.940067490122743
20
12.413601365021126
30
0
10
21.505244523971541
20
12.501097186646231
30
0
10
21.071533211991927
20
12.551521640338114
30
0
10
20.641844616160292
20
12.573408834948673
30
0
10
20.2181395302309
20
12.575782924033694
30
0
10
19.801658544038485
20
12.567333680573578
30
0
10
19.393151648463821
20
12.555646425587899
30
0
10
18.993131417076214
20
12.546269410990705
30
0
10
18.601945290446157
20
12.542863256343653
30
0
10
18.219798617486173
20
12.547637992882114
30
0
10
17.921395288590137
20
12.558881454391546
30
0
10
17.701721981024118
20
12.571655387672614
30
0
10
17.557108272429744
20
12.582100656476774
30
0
10
17.485260207768743
20
12.587805625851116
30
0
0
ENDSEC
0
SECTION
2
OBJECTS
0
DICTIONARY
5
C
100
AcDbDictionary
3
ACAD_GROUP
350
D
3
ACAD_MLINESTYLE
350
17
0
DICTIONARY
5
D
100
AcDbDictionary
0
DICTIONARY
5
1A
330
C
100
AcDbDictionary
0
DICTIONARY
5
17
100
AcDbDictionary
0
ENDSEC
0
EOF
