<?xml version='1.0' encoding='ascii'?>
<svg xmlns="http://www.w3.org/2000/svg" version="1.1" width="1920" height="1440">
    <g id="ViewLayer_LineSet" xmlns:inkscape="http://www.inkscape.org/namespaces/inkscape" inkscape:groupmode="lineset" inkscape:label="ViewLayer_LineSet">
        <g xmlns:inkscape="http://www.inkscape.org/namespaces/inkscape" inkscape:groupmode="layer" id="strokes" inkscape:label="strokes">
            <path fill="none" stroke-width="3.0" stroke-linecap="butt" stroke-opacity="1.0" stroke="rgb(0, 0, 0)" stroke-linejoin="round" d=" M 527.113, 201.739 518.939, 207.500 514.295, 210.774 506.882, 217.486 502.438, 221.509 495.824, 229.010 490.947, 234.540 484.931, 242.528 478.948, 250.473 473.806, 259.049 468.663, 267.626 467.429, 269.684 464.692, 279.302 461.955, 288.920 461.305, 291.205 461.131, 301.204 460.957, 311.202 460.896, 314.726 " />
            <path fill="none" stroke-width="3.0" stroke-linecap="butt" stroke-opacity="1.0" stroke="rgb(0, 0, 0)" stroke-linejoin="round" d=" M 466.006, 339.554 469.602, 348.885 473.197, 358.216 475.866, 365.142 480.226, 374.141 484.587, 383.140 488.837, 391.912 493.322, 400.850 497.807, 409.788 502.292, 418.725 503.682, 421.494 507.883, 430.568 512.085, 439.643 516.287, 448.717 518.788, 454.118 " />
            <path fill="none" stroke-width="3.0" stroke-linecap="butt" stroke-opacity="1.0" stroke="rgb(0, 0, 0)" stroke-linejoin="round" d=" M 518.788, 454.118 522.408, 463.439 526.029, 472.761 529.650, 482.082 532.488, 489.388 " />
            <path fill="none" stroke-width="3.0" stroke-linecap="butt" stroke-opacity="1.0" stroke="rgb(0, 0, 0)" stroke-linejoin="round" d=" M 578.518, 181.474 568.927, 184.304 559.336, 187.134 558.419, 187.405 549.113, 191.067 541.564, 194.038 532.739, 198.740 527.113, 201.739 " />
            <path fill="none" stroke-width="3.0" stroke-linecap="butt" stroke-opacity="1.0" stroke="rgb(0, 0, 0)" stroke-linejoin="round" d=" M 745.591, 244.351 739.428, 236.476 733.265, 228.600 727.103, 220.725 720.940, 212.849 718.824, 210.146 711.403, 203.443 703.982, 196.741 696.560, 190.038 690.870, 184.899 681.806, 180.675 672.742, 176.450 663.678, 172.226 661.396, 171.162 651.413, 170.590 641.429, 170.018 631.432, 169.446 621.661, 171.572 611.890, 173.699 602.898, 175.656 593.172, 177.977 583.445, 180.298 578.518, 181.474 " />
            <path fill="none" stroke-width="3.0" stroke-linecap="butt" stroke-opacity="1.0" stroke="rgb(0, 0, 0)" stroke-linejoin="round" d=" M 1181.855, 291.965 1173.234, 297.032 1164.612, 302.099 1155.991, 307.166 1147.370, 312.233 1144.672, 313.819 1136.660, 319.803 1128.648, 325.786 1120.636, 331.770 1112.624, 337.754 1106.943, 341.997 1099.159, 348.274 1091.374, 354.551 1083.590, 360.828 1075.805, 367.105 1068.828, 372.731 1060.847, 378.756 1052.866, 384.782 1044.885, 390.807 1036.904, 396.832 1029.878, 402.137 1021.323, 407.316 1012.769, 412.494 1004.214, 417.673 995.660, 422.852 989.934, 426.318 980.559, 429.798 971.184, 433.277 961.808, 436.757 952.433, 440.237 950.872, 440.816 940.873, 440.982 930.874, 441.148 920.876, 441.314 915.379, 441.405 906.180, 437.484 896.980, 433.563 887.781, 429.642 882.853, 427.541 875.287, 421.002 867.721, 414.463 860.155, 407.924 852.797, 401.564 846.519, 393.780 840.242, 385.996 833.964, 378.212 827.686, 370.428 824.664, 366.680 819.129, 358.351 813.593, 350.023 808.058, 341.695 802.523, 333.366 797.857, 326.346 792.578, 317.853 787.300, 309.359 782.021, 300.866 776.743, 292.373 771.723, 284.296 " />
            <path fill="none" stroke-width="3.0" stroke-linecap="butt" stroke-opacity="1.0" stroke="rgb(0, 0, 0)" stroke-linejoin="round" d=" M 590.151, 336.516 599.423, 332.770 608.694, 329.024 617.966, 325.278 627.238, 321.532 636.510, 317.786 645.782, 314.040 655.054, 310.294 656.616, 309.662 " />
            <path fill="none" stroke-width="3.0" stroke-linecap="butt" stroke-opacity="1.0" stroke="rgb(0, 0, 0)" stroke-linejoin="round" d=" M 656.616, 309.662 660.362, 318.934 664.109, 328.206 667.855, 337.478 671.601, 346.750 675.347, 356.022 679.093, 365.294 682.839, 374.565 686.585, 383.837 690.331, 393.109 694.077, 402.381 697.823, 411.653 701.569, 420.925 705.315, 430.196 709.061, 439.468 712.807, 448.740 716.553, 458.012 720.299, 467.284 724.046, 476.556 727.792, 485.827 729.590, 490.279 720.318, 494.025 711.046, 497.771 701.775, 501.517 692.503, 505.263 683.231, 509.009 673.959, 512.755 664.687, 516.501 663.124, 517.133 659.378, 507.861 655.632, 498.589 651.886, 489.317 649.613, 483.691 645.867, 474.420 642.121, 465.148 638.375, 455.876 634.629, 446.604 630.883, 437.332 627.137, 428.060 623.391, 418.789 619.645, 409.517 615.899, 400.245 612.153, 390.973 608.407, 381.701 604.661, 372.429 600.914, 363.157 597.168, 353.886 593.422, 344.614 590.151, 336.516 " />
            <path fill="none" stroke-width="3.0" stroke-linecap="butt" stroke-opacity="1.0" stroke="rgb(0, 0, 0)" stroke-linejoin="round" d=" M 532.488, 489.388 535.231, 499.004 537.975, 508.620 540.719, 518.236 543.142, 526.728 544.823, 536.585 546.503, 546.443 548.184, 556.301 549.627, 564.765 550.367, 574.738 551.107, 584.710 551.847, 594.683 552.315, 600.991 551.458, 610.954 550.601, 620.918 549.745, 630.881 549.341, 635.580 546.209, 645.076 543.077, 654.573 539.945, 664.070 538.662, 667.961 533.712, 676.649 528.762, 685.338 523.812, 694.027 521.936, 697.319 516.230, 705.531 510.523, 713.743 504.817, 721.955 503.083, 724.450 497.915, 733.012 492.748, 741.573 487.581, 750.135 486.843, 751.358 482.181, 760.205 477.519, 769.052 472.858, 777.899 472.084, 779.366 468.212, 788.586 464.339, 797.805 460.466, 807.025 459.419, 809.517 456.612, 819.115 453.805, 828.713 450.998, 838.311 449.744, 842.600 447.938, 852.435 446.131, 862.271 444.324, 872.106 443.462, 876.797 442.836, 886.777 442.209, 896.758 441.582, 906.738 441.354, 910.382 442.661, 920.296 443.969, 930.210 445.277, 940.124 445.378, 940.888 449.430, 950.030 453.482, 959.172 456.991, 967.087 " />
            <path fill="none" stroke-width="3.0" stroke-linecap="butt" stroke-opacity="1.0" stroke="rgb(0, 0, 0)" stroke-linejoin="round" d=" M 456.991, 967.087 463.369, 974.788 469.748, 982.490 475.644, 989.608 " />
            <path fill="none" stroke-width="3.0" stroke-linecap="butt" stroke-opacity="1.0" stroke="rgb(0, 0, 0)" stroke-linejoin="round" d=" M 475.644, 989.608 483.813, 995.376 491.983, 1001.144 500.152, 1006.911 502.082, 1008.274 " />
            <path fill="none" stroke-width="3.0" stroke-linecap="butt" stroke-opacity="1.0" stroke="rgb(0, 0, 0)" stroke-linejoin="round" d=" M 502.082, 1008.274 510.395, 1013.833 518.708, 1019.391 527.021, 1024.949 528.862, 1026.180 537.178, 1031.733 545.495, 1037.286 553.811, 1042.839 556.415, 1044.578 " />
            <path fill="none" stroke-width="3.0" stroke-linecap="butt" stroke-opacity="1.0" stroke="rgb(0, 0, 0)" stroke-linejoin="round" d=" M 556.415, 1044.578 564.351, 1050.662 572.287, 1056.746 580.223, 1062.830 588.159, 1068.914 596.096, 1074.999 601.137, 1078.863 611.070, 1080.018 621.003, 1081.172 630.936, 1082.327 640.869, 1083.481 650.803, 1084.636 660.736, 1085.790 667.910, 1086.624 674.563, 1087.610 " />
            <path fill="none" stroke-width="3.0" stroke-linecap="butt" stroke-opacity="1.0" stroke="rgb(0, 0, 0)" stroke-linejoin="round" d=" M 758.264, 928.597 754.561, 925.335 751.404, 921.738 " />
            <path fill="none" stroke-width="3.0" stroke-linecap="butt" stroke-opacity="1.0" stroke="rgb(0, 0, 0)" stroke-linejoin="round" d=" M 754.833, 925.167 758.264, 928.597 751.404, 921.738 745.160, 914.314 742.369, 910.347 739.577, 906.381 734.697, 897.997 730.555, 889.225 727.183, 880.130 724.605, 870.778 727.183, 880.130 724.605, 870.778 722.840, 861.239 721.902, 851.583 721.798, 841.883 " />
            <path fill="none" stroke-width="3.0" stroke-linecap="butt" stroke-opacity="1.0" stroke="rgb(0, 0, 0)" stroke-linejoin="round" d=" M 1390.060, 401.184 1383.575, 393.571 1377.090, 385.959 1370.605, 378.347 1367.699, 374.936 1360.765, 367.730 1353.830, 360.525 1346.896, 353.320 1339.962, 346.114 1336.982, 343.018 1329.777, 336.084 1322.572, 329.150 1315.366, 322.215 1308.161, 315.281 1305.065, 312.301 " />
            <path fill="none" stroke-width="3.0" stroke-linecap="butt" stroke-opacity="1.0" stroke="rgb(0, 0, 0)" stroke-linejoin="round" d=" M 1207.558, 421.753 1214.691, 428.761 1221.824, 435.770 1228.958, 442.778 1233.160, 446.907 1240.169, 454.041 1247.177, 461.174 1254.185, 468.307 1258.247, 472.442 " />
            <path fill="none" stroke-width="3.0" stroke-linecap="butt" stroke-opacity="1.0" stroke="rgb(0, 0, 0)" stroke-linejoin="round" d=" M 907.051, 759.244 914.666, 765.395 914.201, 765.800 914.200, 765.802 " />
            <path fill="none" stroke-width="3.0" stroke-linecap="butt" stroke-opacity="1.0" stroke="rgb(0, 0, 0)" stroke-linejoin="round" d=" M 1069.813, 559.498 1076.884, 552.427 1083.955, 545.355 1091.026, 538.284 1098.097, 531.213 1105.168, 524.142 1112.240, 517.071 1119.311, 510.000 1126.382, 502.929 1133.453, 495.858 1140.524, 488.787 1147.595, 481.716 1154.666, 474.645 1161.737, 467.574 1168.808, 460.503 1175.879, 453.432 1182.950, 446.361 1190.021, 439.290 1197.092, 432.218 1204.163, 425.147 1207.558, 421.753 1214.629, 428.824 1221.700, 435.895 1228.771, 442.966 1232.903, 447.097 1239.974, 454.168 1247.045, 461.240 1254.116, 468.311 1258.247, 472.442 1251.176, 479.513 1244.105, 486.584 1237.034, 493.655 1229.963, 500.726 1222.892, 507.797 1215.821, 514.868 1208.750, 521.939 1201.679, 529.010 1194.608, 536.081 1187.537, 543.153 1180.466, 550.224 1173.395, 557.295 1166.323, 564.366 1159.252, 571.437 1152.181, 578.508 1145.110, 585.579 1138.039, 592.650 1130.968, 599.721 1123.897, 606.792 1120.502, 610.187 " />
            <path fill="none" stroke-width="3.0" stroke-linecap="butt" stroke-opacity="1.0" stroke="rgb(0, 0, 0)" stroke-linejoin="round" d=" M 739.577, 906.381 734.697, 897.997 730.555, 889.225 727.183, 880.130 " />
            <path fill="none" stroke-width="3.0" stroke-linecap="butt" stroke-opacity="1.0" stroke="rgb(0, 0, 0)" stroke-linejoin="round" d=" M 899.366, 753.325 907.051, 759.244 " />
            <path fill="none" stroke-width="3.0" stroke-linecap="butt" stroke-opacity="1.0" stroke="rgb(0, 0, 0)" stroke-linejoin="round" d=" M 835.693, 732.788 845.380, 733.309 854.986, 734.661 864.440, 736.835 873.672, 739.812 882.614, 743.573 891.200, 748.088 899.366, 753.325 " />
            <path fill="none" stroke-width="3.0" stroke-linecap="butt" stroke-opacity="1.0" stroke="rgb(0, 0, 0)" stroke-linejoin="round" d=" M 722.840, 861.239 721.902, 851.583 721.798, 841.883 722.528, 832.210 724.087, 822.635 726.463, 813.230 729.639, 804.064 " />
            <path fill="none" stroke-width="3.0" stroke-linecap="butt" stroke-opacity="1.0" stroke="rgb(0, 0, 0)" stroke-linejoin="round" d=" M 722.528, 832.210 724.087, 822.635 726.463, 813.230 729.639, 804.064 " />
            <path fill="none" stroke-width="3.0" stroke-linecap="butt" stroke-opacity="1.0" stroke="rgb(0, 0, 0)" stroke-linejoin="round" d=" M 825.997, 733.101 835.693, 732.788 " />
            <path fill="none" stroke-width="3.0" stroke-linecap="butt" stroke-opacity="1.0" stroke="rgb(0, 0, 0)" stroke-linejoin="round" d=" M 729.639, 804.064 733.591, 795.205 " />
            <path fill="none" stroke-width="3.0" stroke-linecap="butt" stroke-opacity="1.0" stroke="rgb(0, 0, 0)" stroke-linejoin="round" d=" M 788.550, 742.561 797.571, 738.994 806.866, 736.215 816.364, 734.246 825.997, 733.101 " />
            <path fill="none" stroke-width="3.0" stroke-linecap="butt" stroke-opacity="1.0" stroke="rgb(0, 0, 0)" stroke-linejoin="round" d=" M 733.591, 795.205 738.289, 786.718 " />
            <path fill="none" stroke-width="3.0" stroke-linecap="butt" stroke-opacity="1.0" stroke="rgb(0, 0, 0)" stroke-linejoin="round" d=" M 738.289, 786.718 743.701, 778.667 749.784, 771.111 756.494, 764.105 763.782, 757.703 771.593, 751.950 779.869, 746.890 788.550, 742.561 " />
            <path fill="none" stroke-width="3.0" stroke-linecap="butt" stroke-opacity="1.0" stroke="rgb(0, 0, 0)" stroke-linejoin="round" d=" M 754.833, 925.167 751.404, 921.738 745.160, 914.314 742.369, 910.347 " />
            <path fill="none" stroke-width="3.0" stroke-linecap="butt" stroke-opacity="1.0" stroke="rgb(0, 0, 0)" stroke-linejoin="round" d=" M 734.697, 897.997 739.577, 906.381 " />
            <path fill="none" stroke-width="3.0" stroke-linecap="butt" stroke-opacity="1.0" stroke="rgb(0, 0, 0)" stroke-linejoin="round" d=" M 1258.247, 472.442 1251.176, 465.371 1244.105, 458.300 1237.034, 451.229 1232.903, 447.097 1225.832, 440.026 1218.761, 432.955 1211.690, 425.884 1207.558, 421.753 " />
            <path fill="none" stroke-width="3.0" stroke-linecap="butt" stroke-opacity="1.0" stroke="rgb(0, 0, 0)" stroke-linejoin="round" d=" M 914.201, 765.800 914.199, 765.801 907.051, 759.244 " />
            <path fill="none" stroke-width="3.0" stroke-linecap="butt" stroke-opacity="1.0" stroke="rgb(0, 0, 0)" stroke-linejoin="round" d=" M 721.902, 851.583 722.840, 861.239 " />
            <path fill="none" stroke-width="3.0" stroke-linecap="butt" stroke-opacity="1.0" stroke="rgb(0, 0, 0)" stroke-linejoin="round" d=" M 724.087, 822.635 722.528, 832.210 " />
            <path fill="none" stroke-width="3.0" stroke-linecap="butt" stroke-opacity="1.0" stroke="rgb(0, 0, 0)" stroke-linejoin="round" d=" M 816.364, 734.246 825.997, 733.101 835.693, 732.788 " />
            <path fill="none" stroke-width="3.0" stroke-linecap="butt" stroke-opacity="1.0" stroke="rgb(0, 0, 0)" stroke-linejoin="round" d=" M 825.997, 733.101 816.364, 734.246 " />
            <path fill="none" stroke-width="3.0" stroke-linecap="butt" stroke-opacity="1.0" stroke="rgb(0, 0, 0)" stroke-linejoin="round" d=" M 1445.460, 1189.054 1452.961, 1182.439 1458.491, 1177.562 1465.203, 1170.149 1469.226, 1165.705 1474.988, 1157.532 1478.261, 1152.887 " />
            <path fill="none" stroke-width="3.0" stroke-linecap="butt" stroke-opacity="1.0" stroke="rgb(0, 0, 0)" stroke-linejoin="round" d=" M 1478.261, 1152.887 1482.964, 1144.062 1485.963, 1138.436 " />
            <path fill="none" stroke-width="3.0" stroke-linecap="butt" stroke-opacity="1.0" stroke="rgb(0, 0, 0)" stroke-linejoin="round" d=" M 1485.963, 1138.436 1489.625, 1129.131 1492.595, 1121.582 " />
            <path fill="none" stroke-width="3.0" stroke-linecap="butt" stroke-opacity="1.0" stroke="rgb(0, 0, 0)" stroke-linejoin="round" d=" M 1492.595, 1121.582 1495.425, 1111.991 1498.255, 1102.399 1498.526, 1101.482 " />
            <path fill="none" stroke-width="3.0" stroke-linecap="butt" stroke-opacity="1.0" stroke="rgb(0, 0, 0)" stroke-linejoin="round" d=" M 1498.526, 1101.482 1500.848, 1091.755 1503.169, 1082.028 1504.345, 1077.102 1506.471, 1067.331 1508.598, 1057.559 1510.555, 1048.568 1509.983, 1038.584 1509.411, 1028.601 1508.838, 1018.604 " />
            <path fill="none" stroke-width="3.0" stroke-linecap="butt" stroke-opacity="1.0" stroke="rgb(0, 0, 0)" stroke-linejoin="round" d=" M 1162.868, 1016.875 1166.614, 1007.604 1170.360, 998.332 1174.106, 989.060 1177.852, 979.788 1181.598, 970.516 1185.344, 961.244 1189.090, 951.973 1189.722, 950.410 1198.993, 954.156 1208.265, 957.902 1217.537, 961.648 1226.809, 965.394 1236.081, 969.140 1245.353, 972.886 1254.624, 976.632 1263.896, 980.378 1273.168, 984.125 1282.440, 987.871 1291.712, 991.617 1300.984, 995.363 1310.255, 999.109 1319.527, 1002.855 1328.799, 1006.601 1338.071, 1010.347 1347.343, 1014.093 1356.615, 1017.839 1365.886, 1021.585 1370.338, 1023.384 1366.592, 1032.656 1362.846, 1041.927 1359.099, 1051.199 1355.353, 1060.471 1351.607, 1069.743 1347.861, 1079.015 1344.115, 1088.287 1343.484, 1089.849 " />
            <path fill="none" stroke-width="3.0" stroke-linecap="butt" stroke-opacity="1.0" stroke="rgb(0, 0, 0)" stroke-linejoin="round" d=" M 1129.302, 1155.020 1139.194, 1156.486 1149.086, 1157.953 1158.978, 1159.419 1166.238, 1160.495 1176.082, 1162.257 1185.925, 1164.018 1195.769, 1165.780 1205.795, 1167.574 1215.552, 1169.766 1225.309, 1171.958 1235.066, 1174.149 1244.823, 1176.341 1247.536, 1176.950 1256.923, 1180.398 1266.310, 1183.846 1275.697, 1187.293 1283.001, 1189.976 1292.139, 1194.037 1301.278, 1198.099 1310.416, 1202.160 1314.859, 1204.134 1324.190, 1207.730 1333.521, 1211.326 1340.446, 1213.994 1350.241, 1216.010 1360.036, 1218.026 1365.274, 1219.105 1375.273, 1218.931 1385.271, 1218.757 1388.795, 1218.695 1398.413, 1215.959 1408.031, 1213.222 1410.317, 1212.571 1418.893, 1207.429 1427.469, 1202.286 1429.527, 1201.052 " />
            <path fill="none" stroke-width="3.0" stroke-linecap="butt" stroke-opacity="1.0" stroke="rgb(0, 0, 0)" stroke-linejoin="round" d=" M 1429.527, 1201.052 1437.516, 1195.036 1445.460, 1189.054 " />
            <path fill="none" stroke-width="3.0" stroke-linecap="butt" stroke-opacity="1.0" stroke="rgb(0, 0, 0)" stroke-linejoin="round" d=" M 1307.269, 611.172 1313.546, 603.388 1319.823, 595.603 1326.100, 587.819 1332.378, 580.034 1338.004, 573.057 1343.987, 565.045 1349.971, 557.033 1355.955, 549.021 1361.939, 541.009 1366.181, 535.328 1371.248, 526.707 1376.315, 518.086 1381.382, 509.464 1386.449, 500.843 1388.035, 498.145 1391.406, 488.731 1394.778, 479.316 1398.149, 469.902 1400.703, 462.770 " />
            <path fill="none" stroke-width="3.0" stroke-linecap="butt" stroke-opacity="1.0" stroke="rgb(0, 0, 0)" stroke-linejoin="round" d=" M 1400.703, 462.770 1401.101, 452.778 1401.499, 442.786 1401.897, 432.794 1401.996, 430.303 " />
            <path fill="none" stroke-width="3.0" stroke-linecap="butt" stroke-opacity="1.0" stroke="rgb(0, 0, 0)" stroke-linejoin="round" d=" M 1277.863, 650.122 1283.889, 642.141 1289.914, 634.160 1295.939, 626.179 1301.965, 618.198 1307.269, 611.172 " />
            <path fill="none" stroke-width="3.0" stroke-linecap="butt" stroke-opacity="1.0" stroke="rgb(0, 0, 0)" stroke-linejoin="round" d=" M 914.200, 765.802 920.758, 772.950 " />
            <path fill="none" stroke-width="3.0" stroke-linecap="butt" stroke-opacity="1.0" stroke="rgb(0, 0, 0)" stroke-linejoin="round" d=" M 1253.682, 690.067 1258.861, 681.512 1264.040, 672.957 1269.218, 664.403 1274.397, 655.848 1277.863, 650.122 " />
            <path fill="none" stroke-width="3.0" stroke-linecap="butt" stroke-opacity="1.0" stroke="rgb(0, 0, 0)" stroke-linejoin="round" d=" M 1239.184, 729.129 1242.663, 719.754 1246.143, 710.379 1249.623, 701.003 1253.103, 691.628 1253.682, 690.067 " />
            <path fill="none" stroke-width="3.0" stroke-linecap="butt" stroke-opacity="1.0" stroke="rgb(0, 0, 0)" stroke-linejoin="round" d=" M 920.758, 772.950 926.677, 780.636 931.913, 788.802 936.429, 797.387 940.189, 806.330 943.167, 815.562 945.340, 825.016 946.692, 834.622 947.214, 844.309 946.901, 854.004 945.756, 863.637 943.786, 873.136 941.008, 882.430 937.441, 891.451 933.111, 900.132 928.052, 908.409 922.299, 916.220 915.896, 923.508 " />
            <path fill="none" stroke-width="3.0" stroke-linecap="butt" stroke-opacity="1.0" stroke="rgb(0, 0, 0)" stroke-linejoin="round" d=" M 1395.704, 908.277 1387.211, 902.999 1378.718, 897.720 1370.224, 892.442 1361.731, 887.163 1353.654, 882.143 1345.326, 876.608 1336.998, 871.073 1328.669, 865.538 1320.341, 860.002 1313.321, 855.336 1305.537, 849.059 1297.752, 842.781 1289.968, 836.504 1282.184, 830.226 1278.436, 827.204 1271.897, 819.638 1265.358, 812.072 1258.819, 804.506 1252.459, 797.147 1248.538, 787.948 1244.617, 778.749 1240.696, 769.550 1238.595, 764.621 1238.761, 754.623 1238.927, 744.624 1239.093, 734.626 1239.184, 729.129 " />
            <path fill="none" stroke-width="3.0" stroke-linecap="butt" stroke-opacity="1.0" stroke="rgb(0, 0, 0)" stroke-linejoin="round" d=" M 910.634, 1122.605 900.742, 1121.139 890.850, 1119.672 881.692, 1118.315 879.591, 1118.003 880.662, 1118.162 890.554, 1119.628 900.446, 1121.095 910.338, 1122.561 920.230, 1124.027 923.375, 1124.494 933.267, 1125.960 941.362, 1127.160 951.254, 1128.626 961.145, 1130.093 967.361, 1131.014 973.206, 1131.881 983.098, 1133.347 992.990, 1134.813 1002.882, 1136.280 1006.263, 1136.781 1016.155, 1138.247 1026.047, 1139.713 1029.802, 1140.270 1039.693, 1141.736 1039.870, 1141.763 1043.595, 1142.315 1051.194, 1143.441 1055.841, 1144.130 " />
            <path fill="none" stroke-width="3.0" stroke-linecap="butt" stroke-opacity="1.0" stroke="rgb(0, 0, 0)" stroke-linejoin="round" d=" M 910.634, 1122.605 920.526, 1124.071 930.418, 1125.538 940.310, 1127.004 941.362, 1127.160 " />
            <path fill="none" stroke-width="3.0" stroke-linecap="butt" stroke-opacity="1.0" stroke="rgb(0, 0, 0)" stroke-linejoin="round" d=" M 779.786, 1103.208 789.677, 1104.675 791.558, 1104.953 801.450, 1106.420 811.342, 1107.886 813.338, 1108.182 823.230, 1109.648 826.105, 1110.075 835.997, 1111.541 845.889, 1113.007 847.297, 1113.216 " />
            <path fill="none" stroke-width="3.0" stroke-linecap="butt" stroke-opacity="1.0" stroke="rgb(0, 0, 0)" stroke-linejoin="round" d=" M 847.297, 1113.216 837.405, 1111.750 827.513, 1110.283 817.621, 1108.817 807.729, 1107.351 797.838, 1105.884 787.946, 1104.418 783.915, 1103.820 779.786, 1103.208 773.208, 1102.233 763.316, 1100.767 753.424, 1099.301 748.262, 1098.535 758.154, 1100.002 761.210, 1100.455 771.102, 1101.921 780.993, 1103.387 790.885, 1104.854 791.558, 1104.953 795.624, 1105.556 805.516, 1107.022 815.407, 1108.489 825.299, 1109.955 835.191, 1111.422 845.083, 1112.888 847.297, 1113.216 " />
            <path fill="none" stroke-width="3.0" stroke-linecap="butt" stroke-opacity="1.0" stroke="rgb(0, 0, 0)" stroke-linejoin="round" d=" M 847.297, 1113.216 857.189, 1114.682 867.081, 1116.149 876.973, 1117.615 879.591, 1118.003 " />
            <path fill="none" stroke-width="3.0" stroke-linecap="butt" stroke-opacity="1.0" stroke="rgb(0, 0, 0)" stroke-linejoin="round" d=" M 915.896, 923.508 908.891, 930.218 901.335, 936.301 " />
            <path fill="none" stroke-width="3.0" stroke-linecap="butt" stroke-opacity="1.0" stroke="rgb(0, 0, 0)" stroke-linejoin="round" d=" M 901.335, 936.301 893.283, 941.712 " />
            <path fill="none" stroke-width="3.0" stroke-linecap="butt" stroke-opacity="1.0" stroke="rgb(0, 0, 0)" stroke-linejoin="round" d=" M 702.090, 1091.691 711.982, 1093.157 721.820, 1094.616 731.712, 1096.082 741.604, 1097.548 748.262, 1098.535 " />
            <path fill="none" stroke-width="3.0" stroke-linecap="butt" stroke-opacity="1.0" stroke="rgb(0, 0, 0)" stroke-linejoin="round" d=" M 674.563, 1087.610 681.057, 1088.573 688.347, 1089.654 698.239, 1091.120 702.090, 1091.691 " />
            <path fill="none" stroke-width="3.0" stroke-linecap="butt" stroke-opacity="1.0" stroke="rgb(0, 0, 0)" stroke-linejoin="round" d=" M 884.797, 946.411 875.937, 950.363 874.350, 950.913 866.771, 953.539 " />
            <path fill="none" stroke-width="3.0" stroke-linecap="butt" stroke-opacity="1.0" stroke="rgb(0, 0, 0)" stroke-linejoin="round" d=" M 773.621, 940.425 765.688, 934.841 758.264, 928.597 " />
            <path fill="none" stroke-width="3.0" stroke-linecap="butt" stroke-opacity="1.0" stroke="rgb(0, 0, 0)" stroke-linejoin="round" d=" M 858.554, 955.615 866.771, 953.539 866.771, 953.539 858.554, 955.615 857.366, 955.915 " />
            <path fill="none" stroke-width="3.0" stroke-linecap="butt" stroke-opacity="1.0" stroke="rgb(0, 0, 0)" stroke-linejoin="round" d=" M 874.350, 950.913 866.771, 953.539 857.366, 955.915 847.791, 957.474 838.118, 958.203 828.418, 958.099 818.763, 957.161 809.224, 955.397 " />
            <path fill="none" stroke-width="3.0" stroke-linecap="butt" stroke-opacity="1.0" stroke="rgb(0, 0, 0)" stroke-linejoin="round" d=" M 782.004, 945.305 773.621, 940.425 " />
            <path fill="none" stroke-width="3.0" stroke-linecap="butt" stroke-opacity="1.0" stroke="rgb(0, 0, 0)" stroke-linejoin="round" d=" M 818.763, 957.161 809.224, 955.397 799.872, 952.819 790.776, 949.447 782.004, 945.305 " />
            <path fill="none" stroke-width="3.0" stroke-linecap="butt" stroke-opacity="1.0" stroke="rgb(0, 0, 0)" stroke-linejoin="round" d=" M 838.118, 958.203 828.418, 958.099 818.763, 957.161 " />
            <path fill="none" stroke-width="3.0" stroke-linecap="butt" stroke-opacity="1.0" stroke="rgb(0, 0, 0)" stroke-linejoin="round" d=" M 702.090, 1091.691 711.982, 1093.157 721.909, 1094.629 731.801, 1096.095 741.693, 1097.562 748.313, 1098.543 758.205, 1100.009 761.210, 1100.455 771.102, 1101.921 773.208, 1102.233 780.092, 1103.254 783.915, 1103.820 793.807, 1105.287 795.624, 1105.556 805.516, 1107.022 813.501, 1108.206 823.393, 1109.673 826.105, 1110.075 835.997, 1111.541 845.889, 1113.007 846.981, 1113.169 " />
            <path fill="none" stroke-width="3.0" stroke-linecap="butt" stroke-opacity="1.0" stroke="rgb(0, 0, 0)" stroke-linejoin="round" d=" M 667.910, 1086.624 674.596, 1087.615 681.090, 1088.578 688.400, 1089.661 698.292, 1091.128 702.090, 1091.691 " />
            <path fill="none" stroke-width="3.0" stroke-linecap="butt" stroke-opacity="1.0" stroke="rgb(0, 0, 0)" stroke-linejoin="round" d=" M 1043.595, 1142.315 1046.346, 1142.723 1055.997, 1144.153 1065.889, 1145.620 1075.781, 1147.086 1085.673, 1148.552 1091.766, 1149.456 1101.657, 1150.922 1111.549, 1152.388 1121.441, 1153.855 1129.302, 1155.020 " />
            <path fill="none" stroke-width="3.0" stroke-linecap="butt" stroke-opacity="1.0" stroke="rgb(0, 0, 0)" stroke-linejoin="round" d=" M 941.045, 1127.113 950.937, 1128.579 960.829, 1130.046 967.361, 1131.014 " />
            <path fill="none" stroke-width="3.0" stroke-linecap="butt" stroke-opacity="1.0" stroke="rgb(0, 0, 0)" stroke-linejoin="round" d=" M 879.737, 1118.025 880.662, 1118.162 881.692, 1118.315 891.584, 1119.781 901.476, 1121.247 910.784, 1122.627 920.676, 1124.094 923.375, 1124.494 933.267, 1125.960 941.045, 1127.113 " />
            <path fill="none" stroke-width="3.0" stroke-linecap="butt" stroke-opacity="1.0" stroke="rgb(0, 0, 0)" stroke-linejoin="round" d=" M 846.981, 1113.169 856.872, 1114.636 866.764, 1116.102 876.656, 1117.568 879.737, 1118.025 889.629, 1119.491 899.521, 1120.958 909.413, 1122.424 919.305, 1123.890 929.197, 1125.357 939.089, 1126.823 941.045, 1127.113 950.937, 1128.579 960.829, 1130.046 970.721, 1131.512 973.206, 1131.881 " />
            <path fill="none" stroke-width="3.0" stroke-linecap="butt" stroke-opacity="1.0" stroke="rgb(0, 0, 0)" stroke-linejoin="round" d=" M 765.688, 934.841 758.264, 928.597 754.833, 925.167 751.404, 921.738 " />
            <path fill="none" stroke-width="3.0" stroke-linecap="butt" stroke-opacity="1.0" stroke="rgb(0, 0, 0)" stroke-linejoin="round" d=" M 758.264, 928.597 765.688, 934.841 " />
            <path fill="none" stroke-width="3.0" stroke-linecap="butt" stroke-opacity="1.0" stroke="rgb(0, 0, 0)" stroke-linejoin="round" d=" M 809.224, 955.397 799.872, 952.819 790.776, 949.447 782.004, 945.305 773.621, 940.425 " />
            <path fill="none" stroke-width="3.0" stroke-linecap="butt" stroke-opacity="1.0" stroke="rgb(0, 0, 0)" stroke-linejoin="round" d=" M 799.872, 952.819 809.224, 955.397 " />
            <path fill="none" stroke-width="3.0" stroke-linecap="butt" stroke-opacity="1.0" stroke="rgb(0, 0, 0)" stroke-linejoin="round" d=" M 828.418, 958.099 838.118, 958.203 " />
            <path fill="none" stroke-width="3.0" stroke-linecap="butt" stroke-opacity="1.0" stroke="rgb(0, 0, 0)" stroke-linejoin="round" d=" M 908.891, 930.218 901.335, 936.301 893.283, 941.712 " />
            <path fill="none" stroke-width="3.0" stroke-linecap="butt" stroke-opacity="1.0" stroke="rgb(0, 0, 0)" stroke-linejoin="round" d=" M 1207.558, 421.753 1214.629, 428.824 1221.700, 435.895 1228.771, 442.966 1235.843, 450.037 1242.914, 457.108 1249.985, 464.179 1257.056, 471.250 1258.247, 472.442 " />
            <path fill="none" stroke-width="3.0" stroke-linecap="butt" stroke-opacity="1.0" stroke="rgb(0, 0, 0)" stroke-linejoin="round" d=" M 729.639, 804.064 726.463, 813.230 " />
            <path fill="none" stroke-width="3.0" stroke-linecap="butt" stroke-opacity="1.0" stroke="rgb(0, 0, 0)" stroke-linejoin="round" d=" M 460.896, 314.726 462.912, 324.521 464.928, 334.315 466.006, 339.554 " />
            <path fill="none" stroke-width="3.0" stroke-linecap="butt" stroke-opacity="1.0" stroke="rgb(0, 0, 0)" stroke-linejoin="round" d=" M 771.723, 284.296 766.248, 275.928 760.774, 267.559 755.299, 259.191 749.824, 250.823 745.591, 244.351 " />
            <path fill="none" stroke-width="3.0" stroke-linecap="butt" stroke-opacity="1.0" stroke="rgb(0, 0, 0)" stroke-linejoin="round" d=" M 893.283, 941.712 884.797, 946.411 " />
            <path fill="none" stroke-width="3.0" stroke-linecap="butt" stroke-opacity="1.0" stroke="rgb(0, 0, 0)" stroke-linejoin="round" d=" M 893.283, 941.712 901.335, 936.301 " />
            <path fill="none" stroke-width="3.0" stroke-linecap="butt" stroke-opacity="1.0" stroke="rgb(0, 0, 0)" stroke-linejoin="round" d=" M 1120.502, 610.187 1113.431, 603.116 1106.360, 596.045 1099.289, 588.974 1092.218, 581.903 1085.147, 574.832 1078.076, 567.760 1071.005, 560.689 1069.813, 559.498 " />
            <path fill="none" stroke-width="3.0" stroke-linecap="butt" stroke-opacity="1.0" stroke="rgb(0, 0, 0)" stroke-linejoin="round" d=" M 1029.802, 1140.270 1039.693, 1141.736 1046.346, 1142.723 1051.194, 1143.441 " />
            <path fill="none" stroke-width="3.0" stroke-linecap="butt" stroke-opacity="1.0" stroke="rgb(0, 0, 0)" stroke-linejoin="round" d=" M 1217.230, 279.297 1207.816, 282.669 1198.401, 286.040 1188.986, 289.411 1181.855, 291.965 " />
            <path fill="none" stroke-width="3.0" stroke-linecap="butt" stroke-opacity="1.0" stroke="rgb(0, 0, 0)" stroke-linejoin="round" d=" M 1249.698, 278.004 1239.705, 278.402 1229.713, 278.800 1219.721, 279.198 1217.230, 279.297 " />
            <path fill="none" stroke-width="3.0" stroke-linecap="butt" stroke-opacity="1.0" stroke="rgb(0, 0, 0)" stroke-linejoin="round" d=" M 1278.817, 289.940 1269.564, 286.147 1260.311, 282.354 1251.058, 278.562 1249.698, 278.004 " />
            <path fill="none" stroke-width="3.0" stroke-linecap="butt" stroke-opacity="1.0" stroke="rgb(0, 0, 0)" stroke-linejoin="round" d=" M 1305.065, 312.301 1297.453, 305.816 1289.840, 299.331 1282.228, 292.846 1278.817, 289.940 " />
            <path fill="none" stroke-width="3.0" stroke-linecap="butt" stroke-opacity="1.0" stroke="rgb(0, 0, 0)" stroke-linejoin="round" d=" M 1343.484, 1089.849 1334.212, 1086.103 1324.940, 1082.357 1315.668, 1078.611 1306.396, 1074.865 1297.125, 1071.119 1287.853, 1067.373 1278.581, 1063.627 1269.309, 1059.881 1260.037, 1056.135 1250.765, 1052.389 1241.494, 1048.642 1232.222, 1044.896 1222.950, 1041.150 1213.678, 1037.404 1204.406, 1033.658 1195.134, 1029.912 1185.863, 1026.166 1176.591, 1022.420 1167.319, 1018.674 1162.868, 1016.875 " />
            <path fill="none" stroke-width="3.0" stroke-linecap="butt" stroke-opacity="1.0" stroke="rgb(0, 0, 0)" stroke-linejoin="round" d=" M 1401.996, 430.303 1398.203, 421.050 1394.411, 411.797 1390.618, 402.544 1390.060, 401.184 " />
            <path fill="none" stroke-width="3.0" stroke-linecap="butt" stroke-opacity="1.0" stroke="rgb(0, 0, 0)" stroke-linejoin="round" d=" M 1435.649, 934.410 1427.281, 928.935 1418.912, 923.460 1410.544, 917.986 1402.176, 912.511 1395.704, 908.277 " />
            <path fill="none" stroke-width="3.0" stroke-linecap="butt" stroke-opacity="1.0" stroke="rgb(0, 0, 0)" stroke-linejoin="round" d=" M 1469.855, 961.176 1461.979, 955.013 1454.104, 948.851 1446.229, 942.688 1438.353, 936.526 1435.649, 934.410 " />
            <path fill="none" stroke-width="3.0" stroke-linecap="butt" stroke-opacity="1.0" stroke="rgb(0, 0, 0)" stroke-linejoin="round" d=" M 1495.101, 989.130 1488.398, 981.709 1481.696, 974.287 1474.993, 966.866 1469.855, 961.176 " />
            <path fill="none" stroke-width="3.0" stroke-linecap="butt" stroke-opacity="1.0" stroke="rgb(0, 0, 0)" stroke-linejoin="round" d=" M 1508.838, 1018.604 1504.613, 1009.540 1500.389, 1000.476 1496.165, 991.412 1495.101, 989.130 " />
        </g>
    </g>
</svg>
